%TF.GenerationSoftware,KiCad,Pcbnew,8.0.4*%
%TF.CreationDate,2025-01-24T17:00:10-06:00*%
%TF.ProjectId,potentiostat control,706f7465-6e74-4696-9f73-74617420636f,0.1*%
%TF.SameCoordinates,Original*%
%TF.FileFunction,Copper,L2,Bot*%
%TF.FilePolarity,Positive*%
%FSLAX46Y46*%
G04 Gerber Fmt 4.6, Leading zero omitted, Abs format (unit mm)*
G04 Created by KiCad (PCBNEW 8.0.4) date 2025-01-24 17:00:10*
%MOMM*%
%LPD*%
G01*
G04 APERTURE LIST*
%TA.AperFunction,ComponentPad*%
%ADD10O,1.700000X1.700000*%
%TD*%
%TA.AperFunction,ComponentPad*%
%ADD11R,1.700000X1.700000*%
%TD*%
%TA.AperFunction,ComponentPad*%
%ADD12R,1.498600X1.498600*%
%TD*%
%TA.AperFunction,ComponentPad*%
%ADD13C,1.498600*%
%TD*%
%TA.AperFunction,ComponentPad*%
%ADD14R,1.725000X1.725000*%
%TD*%
%TA.AperFunction,ComponentPad*%
%ADD15C,1.725000*%
%TD*%
%TA.AperFunction,ComponentPad*%
%ADD16C,4.266000*%
%TD*%
%TA.AperFunction,ViaPad*%
%ADD17C,0.600000*%
%TD*%
%TA.AperFunction,Conductor*%
%ADD18C,0.200000*%
%TD*%
G04 APERTURE END LIST*
D10*
%TO.P,U1,1,GP0*%
%TO.N,Net-(Q1-S)*%
X154130000Y-91110000D03*
%TO.P,U1,2,GP1*%
%TO.N,unconnected-(U1-GP1-Pad2)*%
X151590000Y-91110000D03*
D11*
%TO.P,U1,3,GND*%
%TO.N,GND*%
X149050000Y-91110000D03*
D10*
%TO.P,U1,4,GP2*%
%TO.N,unconnected-(U1-GP2-Pad4)*%
X146510000Y-91110000D03*
%TO.P,U1,5,GP3*%
%TO.N,unconnected-(U1-GP3-Pad5)*%
X143970000Y-91110000D03*
%TO.P,U1,6,GP4*%
%TO.N,unconnected-(U1-GP4-Pad6)*%
X141430000Y-91110000D03*
%TO.P,U1,7,GP5*%
%TO.N,unconnected-(U1-GP5-Pad7)*%
X138890000Y-91110000D03*
D11*
%TO.P,U1,8,GND*%
%TO.N,GND*%
X136350000Y-91110000D03*
D10*
%TO.P,U1,9,GP6*%
%TO.N,Net-(U1-GP6)*%
X133810000Y-91110000D03*
%TO.P,U1,10,GP7*%
%TO.N,Net-(U1-GP7)*%
X131270000Y-91110000D03*
%TO.P,U1,11,GP8*%
%TO.N,Net-(U1-GP8)*%
X128730000Y-91110000D03*
%TO.P,U1,12,GP9*%
%TO.N,Net-(U1-GP9)*%
X126190000Y-91110000D03*
D11*
%TO.P,U1,13,GND*%
%TO.N,GND*%
X123650000Y-91110000D03*
D10*
%TO.P,U1,14,GP10*%
%TO.N,unconnected-(U1-GP10-Pad14)*%
X121110000Y-91110000D03*
%TO.P,U1,15,GP11*%
%TO.N,unconnected-(U1-GP11-Pad15)*%
X118570000Y-91110000D03*
%TO.P,U1,16,GP12*%
%TO.N,unconnected-(U1-GP12-Pad16)*%
X116030000Y-91110000D03*
%TO.P,U1,17,GP13*%
%TO.N,unconnected-(U1-GP13-Pad17)*%
X113490000Y-91110000D03*
D11*
%TO.P,U1,18,GND*%
%TO.N,GND*%
X110950000Y-91110000D03*
D10*
%TO.P,U1,19,GP14*%
%TO.N,unconnected-(U1-GP14-Pad19)*%
X108410000Y-91110000D03*
%TO.P,U1,20,GP15*%
%TO.N,unconnected-(U1-GP15-Pad20)_1*%
X105870000Y-91110000D03*
%TO.P,U1,21,GP16*%
%TO.N,unconnected-(U1-GP16-Pad21)_1*%
X105870000Y-108890000D03*
%TO.P,U1,22,GP17*%
%TO.N,unconnected-(U1-GP17-Pad22)*%
X108410000Y-108890000D03*
D11*
%TO.P,U1,23,GND*%
%TO.N,GND*%
X110950000Y-108890000D03*
D10*
%TO.P,U1,24,GP18*%
%TO.N,unconnected-(U1-GP18-Pad24)_1*%
X113490000Y-108890000D03*
%TO.P,U1,25,GP19*%
%TO.N,unconnected-(U1-GP19-Pad25)*%
X116030000Y-108890000D03*
%TO.P,U1,26,GP20*%
%TO.N,unconnected-(U1-GP20-Pad26)_1*%
X118570000Y-108890000D03*
%TO.P,U1,27,GP21*%
%TO.N,unconnected-(U1-GP21-Pad27)_1*%
X121110000Y-108890000D03*
D11*
%TO.P,U1,28,GND*%
%TO.N,GND*%
X123650000Y-108890000D03*
D10*
%TO.P,U1,29,GP22*%
%TO.N,unconnected-(U1-GP22-Pad29)_1*%
X126190000Y-108890000D03*
%TO.P,U1,30,~{RUN}*%
%TO.N,unconnected-(U1-~{RUN}-Pad30)*%
X128730000Y-108890000D03*
%TO.P,U1,31,GP26*%
%TO.N,unconnected-(U1-GP26-Pad31)*%
X131270000Y-108890000D03*
%TO.P,U1,32,GP27*%
%TO.N,unconnected-(U1-GP27-Pad32)_1*%
X133810000Y-108890000D03*
D11*
%TO.P,U1,33,AGND*%
%TO.N,AGND*%
X136350000Y-108890000D03*
D10*
%TO.P,U1,34,GP28*%
%TO.N,Net-(U1-GP28)*%
X138890000Y-108890000D03*
%TO.P,U1,35,ADC_VREF*%
%TO.N,+3.3VADC*%
X141430000Y-108890000D03*
%TO.P,U1,36,3V3_OUT*%
%TO.N,+3.3V*%
X143970000Y-108890000D03*
%TO.P,U1,37,3V3_EN*%
%TO.N,Net-(U1-3V3_EN)*%
X146510000Y-108890000D03*
D11*
%TO.P,U1,38,GND*%
%TO.N,GND*%
X149050000Y-108890000D03*
D10*
%TO.P,U1,39,VSYS*%
%TO.N,+5V*%
X151590000Y-108890000D03*
%TO.P,U1,40,VBUS*%
X154130000Y-108890000D03*
%TO.P,U1,41*%
%TO.N,N/C*%
X106100000Y-97460000D03*
D11*
%TO.P,U1,42*%
X106100000Y-100000000D03*
D10*
%TO.P,U1,43*%
X106100000Y-102540000D03*
%TD*%
D12*
%TO.P,SW1,1,1*%
%TO.N,Net-(U1-3V3_EN)*%
X115250001Y-84239401D03*
D13*
%TO.P,SW1,2,2*%
X108750000Y-84239401D03*
%TO.P,SW1,3,3*%
%TO.N,GND*%
X115250001Y-79739400D03*
%TO.P,SW1,4,4*%
X108750000Y-79739400D03*
%TD*%
D14*
%TO.P,J1,1,1*%
%TO.N,Net-(U1-GP28)*%
X99000000Y-104580000D03*
D15*
%TO.P,J1,2,2*%
%TO.N,AGND*%
X99000000Y-102290000D03*
%TO.P,J1,3,3*%
%TO.N,unconnected-(J1-Pad3)*%
X99000000Y-100000000D03*
%TO.P,J1,4,4*%
%TO.N,unconnected-(J1-Pad4)*%
X99000000Y-97710000D03*
%TO.P,J1,5,5*%
%TO.N,unconnected-(J1-Pad5)*%
X99000000Y-95420000D03*
%TO.P,J1,6,6*%
%TO.N,GND*%
X96460000Y-105725000D03*
%TO.P,J1,7,7*%
%TO.N,Net-(U1-GP6)*%
X96460000Y-103435000D03*
%TO.P,J1,8,8*%
%TO.N,Net-(U1-GP7)*%
X96460000Y-101145000D03*
%TO.P,J1,9,9*%
%TO.N,Net-(U1-GP8)*%
X96460000Y-98855000D03*
%TO.P,J1,10,10*%
%TO.N,Net-(U1-GP9)*%
X96460000Y-96565000D03*
%TO.P,J1,11,11*%
%TO.N,Net-(Q2-D)*%
X93920000Y-104580000D03*
%TO.P,J1,12,12*%
X93920000Y-102290000D03*
%TO.P,J1,13,13*%
X93920000Y-100000000D03*
%TO.P,J1,14,14*%
X93920000Y-97710000D03*
%TO.P,J1,15,15*%
%TO.N,+5VP*%
X93920000Y-95420000D03*
D16*
%TO.P,J1,SH1,SHIELD*%
%TO.N,unconnected-(J1-SHIELD-PadSH1)*%
X96460000Y-112745000D03*
%TO.P,J1,SH2,SHIELD*%
%TO.N,unconnected-(J1-SHIELD-PadSH1)_1*%
X96460000Y-87755000D03*
%TD*%
D17*
%TO.N,Net-(U1-GP28)*%
X133210000Y-106600000D03*
%TO.N,Net-(U1-GP6)*%
X91500000Y-107000000D03*
%TO.N,Net-(Q2-D)*%
X105000000Y-107000000D03*
X100000000Y-110000000D03*
%TO.N,Net-(U1-GP8)*%
X105943653Y-94260000D03*
%TO.N,Net-(U1-GP9)*%
X105343654Y-93660000D03*
%TO.N,Net-(U1-GP7)*%
X90900000Y-106450000D03*
%TO.N,+5VP*%
X116000000Y-97000000D03*
%TO.N,GND*%
X118750000Y-102300000D03*
%TO.N,Net-(Q1-D)*%
X122000000Y-97000000D03*
X137000000Y-97000000D03*
%TO.N,Net-(U1-3V3_EN)*%
X107997563Y-97162437D03*
X104519998Y-91660000D03*
%TD*%
D18*
%TO.N,Net-(U1-GP28)*%
X133210000Y-106600000D02*
X133010000Y-106400000D01*
X100820000Y-106400000D02*
X99000000Y-104580000D01*
X133010000Y-106400000D02*
X100820000Y-106400000D01*
%TO.N,Net-(U1-GP6)*%
X94840000Y-92660000D02*
X132260000Y-92660000D01*
X91500000Y-96000000D02*
X94840000Y-92660000D01*
X91500000Y-107000000D02*
X91500000Y-96000000D01*
X132260000Y-92660000D02*
X133810000Y-91110000D01*
%TO.N,Net-(Q2-D)*%
X105000000Y-107000000D02*
X103000000Y-107000000D01*
X93920000Y-102290000D02*
X93920000Y-100000000D01*
X103000000Y-107000000D02*
X100000000Y-110000000D01*
X93920000Y-100000000D02*
X93920000Y-97710000D01*
X93920000Y-104580000D02*
X93920000Y-102290000D01*
%TO.N,Net-(U1-GP8)*%
X97622500Y-95153476D02*
X97622500Y-97692500D01*
X97622500Y-97692500D02*
X96460000Y-98855000D01*
X99484024Y-94260000D02*
X99481524Y-94257500D01*
X98518476Y-94257500D02*
X97622500Y-95153476D01*
X99481524Y-94257500D02*
X98518476Y-94257500D01*
X105943653Y-94260000D02*
X99484024Y-94260000D01*
%TO.N,Net-(U1-GP9)*%
X105343654Y-93660000D02*
X98550290Y-93660000D01*
X96460000Y-95750290D02*
X96460000Y-96565000D01*
X98550290Y-93660000D02*
X96460000Y-95750290D01*
%TO.N,Net-(U1-GP7)*%
X94674314Y-92260000D02*
X130120000Y-92260000D01*
X130120000Y-92260000D02*
X131270000Y-91110000D01*
X90900000Y-106450000D02*
X90900000Y-96034314D01*
X90900000Y-96034314D02*
X94674314Y-92260000D01*
%TO.N,AGND*%
X102710000Y-106000000D02*
X99000000Y-102290000D01*
X133460000Y-106000000D02*
X102710000Y-106000000D01*
X136350000Y-108890000D02*
X133460000Y-106000000D01*
%TO.N,+5VP*%
X93920000Y-95420000D02*
X96280000Y-93060000D01*
X112060000Y-93060000D02*
X116000000Y-97000000D01*
X96280000Y-93060000D02*
X112060000Y-93060000D01*
%TO.N,Net-(Q1-D)*%
X122000000Y-97000000D02*
X137000000Y-97000000D01*
%TO.N,Net-(U1-3V3_EN)*%
X108750000Y-84239401D02*
X115250001Y-84239401D01*
X116435126Y-105600000D02*
X143220000Y-105600000D01*
X104519998Y-88469403D02*
X108750000Y-84239401D01*
X143220000Y-105600000D02*
X146510000Y-108890000D01*
X107997563Y-97162437D02*
X116435126Y-105600000D01*
X104519998Y-91660000D02*
X104519998Y-88469403D01*
%TD*%
%TA.AperFunction,Conductor*%
%TO.N,GND*%
G36*
X132514749Y-107020185D02*
G01*
X132552703Y-107058527D01*
X132580182Y-107102260D01*
X132580184Y-107102262D01*
X132707738Y-107229816D01*
X132860478Y-107325789D01*
X132948314Y-107356524D01*
X133030745Y-107385368D01*
X133030750Y-107385369D01*
X133209996Y-107405565D01*
X133209998Y-107405565D01*
X133209998Y-107405564D01*
X133210000Y-107405565D01*
X133231473Y-107403145D01*
X133300292Y-107415198D01*
X133351673Y-107462545D01*
X133369299Y-107530155D01*
X133347575Y-107596562D01*
X133297762Y-107638747D01*
X133132171Y-107715964D01*
X133132169Y-107715965D01*
X132938597Y-107851505D01*
X132771505Y-108018597D01*
X132641575Y-108204158D01*
X132586998Y-108247783D01*
X132517500Y-108254977D01*
X132455145Y-108223454D01*
X132438425Y-108204158D01*
X132308494Y-108018597D01*
X132141402Y-107851506D01*
X132141395Y-107851501D01*
X131947834Y-107715967D01*
X131947830Y-107715965D01*
X131876727Y-107682809D01*
X131733663Y-107616097D01*
X131733659Y-107616096D01*
X131733655Y-107616094D01*
X131505413Y-107554938D01*
X131505403Y-107554936D01*
X131270001Y-107534341D01*
X131269999Y-107534341D01*
X131034596Y-107554936D01*
X131034586Y-107554938D01*
X130806344Y-107616094D01*
X130806335Y-107616098D01*
X130592171Y-107715964D01*
X130592169Y-107715965D01*
X130398597Y-107851505D01*
X130231505Y-108018597D01*
X130101575Y-108204158D01*
X130046998Y-108247783D01*
X129977500Y-108254977D01*
X129915145Y-108223454D01*
X129898425Y-108204158D01*
X129768494Y-108018597D01*
X129601402Y-107851506D01*
X129601395Y-107851501D01*
X129407834Y-107715967D01*
X129407830Y-107715965D01*
X129336727Y-107682809D01*
X129193663Y-107616097D01*
X129193659Y-107616096D01*
X129193655Y-107616094D01*
X128965413Y-107554938D01*
X128965403Y-107554936D01*
X128730001Y-107534341D01*
X128729999Y-107534341D01*
X128494596Y-107554936D01*
X128494586Y-107554938D01*
X128266344Y-107616094D01*
X128266335Y-107616098D01*
X128052171Y-107715964D01*
X128052169Y-107715965D01*
X127858597Y-107851505D01*
X127691505Y-108018597D01*
X127561575Y-108204158D01*
X127506998Y-108247783D01*
X127437500Y-108254977D01*
X127375145Y-108223454D01*
X127358425Y-108204158D01*
X127228494Y-108018597D01*
X127061402Y-107851506D01*
X127061395Y-107851501D01*
X126867834Y-107715967D01*
X126867830Y-107715965D01*
X126796727Y-107682809D01*
X126653663Y-107616097D01*
X126653659Y-107616096D01*
X126653655Y-107616094D01*
X126425413Y-107554938D01*
X126425403Y-107554936D01*
X126190001Y-107534341D01*
X126189999Y-107534341D01*
X125954596Y-107554936D01*
X125954586Y-107554938D01*
X125726344Y-107616094D01*
X125726335Y-107616098D01*
X125512171Y-107715964D01*
X125512169Y-107715965D01*
X125318600Y-107851503D01*
X125196284Y-107973819D01*
X125134961Y-108007303D01*
X125065269Y-108002319D01*
X125009336Y-107960447D01*
X124992421Y-107929470D01*
X124943354Y-107797913D01*
X124943350Y-107797906D01*
X124857190Y-107682812D01*
X124857187Y-107682809D01*
X124742093Y-107596649D01*
X124742086Y-107596645D01*
X124607379Y-107546403D01*
X124607372Y-107546401D01*
X124547844Y-107540000D01*
X123900000Y-107540000D01*
X123900000Y-108445439D01*
X123846853Y-108414755D01*
X123717143Y-108380000D01*
X123582857Y-108380000D01*
X123453147Y-108414755D01*
X123400000Y-108445439D01*
X123400000Y-107540000D01*
X122752155Y-107540000D01*
X122692627Y-107546401D01*
X122692620Y-107546403D01*
X122557913Y-107596645D01*
X122557906Y-107596649D01*
X122442812Y-107682809D01*
X122442809Y-107682812D01*
X122356649Y-107797906D01*
X122356645Y-107797913D01*
X122307578Y-107929470D01*
X122265707Y-107985404D01*
X122200242Y-108009821D01*
X122131969Y-107994969D01*
X122103715Y-107973819D01*
X122058977Y-107929081D01*
X121981401Y-107851505D01*
X121981397Y-107851502D01*
X121981396Y-107851501D01*
X121787834Y-107715967D01*
X121787830Y-107715965D01*
X121716727Y-107682809D01*
X121573663Y-107616097D01*
X121573659Y-107616096D01*
X121573655Y-107616094D01*
X121345413Y-107554938D01*
X121345403Y-107554936D01*
X121110001Y-107534341D01*
X121109999Y-107534341D01*
X120874596Y-107554936D01*
X120874586Y-107554938D01*
X120646344Y-107616094D01*
X120646335Y-107616098D01*
X120432171Y-107715964D01*
X120432169Y-107715965D01*
X120238597Y-107851505D01*
X120071505Y-108018597D01*
X119941575Y-108204158D01*
X119886998Y-108247783D01*
X119817500Y-108254977D01*
X119755145Y-108223454D01*
X119738425Y-108204158D01*
X119608494Y-108018597D01*
X119441402Y-107851506D01*
X119441395Y-107851501D01*
X119247834Y-107715967D01*
X119247830Y-107715965D01*
X119176727Y-107682809D01*
X119033663Y-107616097D01*
X119033659Y-107616096D01*
X119033655Y-107616094D01*
X118805413Y-107554938D01*
X118805403Y-107554936D01*
X118570001Y-107534341D01*
X118569999Y-107534341D01*
X118334596Y-107554936D01*
X118334586Y-107554938D01*
X118106344Y-107616094D01*
X118106335Y-107616098D01*
X117892171Y-107715964D01*
X117892169Y-107715965D01*
X117698597Y-107851505D01*
X117531505Y-108018597D01*
X117401575Y-108204158D01*
X117346998Y-108247783D01*
X117277500Y-108254977D01*
X117215145Y-108223454D01*
X117198425Y-108204158D01*
X117068494Y-108018597D01*
X116901402Y-107851506D01*
X116901395Y-107851501D01*
X116707834Y-107715967D01*
X116707830Y-107715965D01*
X116636727Y-107682809D01*
X116493663Y-107616097D01*
X116493659Y-107616096D01*
X116493655Y-107616094D01*
X116265413Y-107554938D01*
X116265403Y-107554936D01*
X116030001Y-107534341D01*
X116029999Y-107534341D01*
X115794596Y-107554936D01*
X115794586Y-107554938D01*
X115566344Y-107616094D01*
X115566335Y-107616098D01*
X115352171Y-107715964D01*
X115352169Y-107715965D01*
X115158597Y-107851505D01*
X114991505Y-108018597D01*
X114861575Y-108204158D01*
X114806998Y-108247783D01*
X114737500Y-108254977D01*
X114675145Y-108223454D01*
X114658425Y-108204158D01*
X114528494Y-108018597D01*
X114361402Y-107851506D01*
X114361395Y-107851501D01*
X114167834Y-107715967D01*
X114167830Y-107715965D01*
X114096727Y-107682809D01*
X113953663Y-107616097D01*
X113953659Y-107616096D01*
X113953655Y-107616094D01*
X113725413Y-107554938D01*
X113725403Y-107554936D01*
X113490001Y-107534341D01*
X113489999Y-107534341D01*
X113254596Y-107554936D01*
X113254586Y-107554938D01*
X113026344Y-107616094D01*
X113026335Y-107616098D01*
X112812171Y-107715964D01*
X112812169Y-107715965D01*
X112618600Y-107851503D01*
X112496284Y-107973819D01*
X112434961Y-108007303D01*
X112365269Y-108002319D01*
X112309336Y-107960447D01*
X112292421Y-107929470D01*
X112243354Y-107797913D01*
X112243350Y-107797906D01*
X112157190Y-107682812D01*
X112157187Y-107682809D01*
X112042093Y-107596649D01*
X112042086Y-107596645D01*
X111907379Y-107546403D01*
X111907372Y-107546401D01*
X111847844Y-107540000D01*
X111200000Y-107540000D01*
X111200000Y-108445439D01*
X111146853Y-108414755D01*
X111017143Y-108380000D01*
X110882857Y-108380000D01*
X110753147Y-108414755D01*
X110700000Y-108445439D01*
X110700000Y-107540000D01*
X110052155Y-107540000D01*
X109992627Y-107546401D01*
X109992620Y-107546403D01*
X109857913Y-107596645D01*
X109857906Y-107596649D01*
X109742812Y-107682809D01*
X109742809Y-107682812D01*
X109656649Y-107797906D01*
X109656645Y-107797913D01*
X109607578Y-107929470D01*
X109565707Y-107985404D01*
X109500242Y-108009821D01*
X109431969Y-107994969D01*
X109403715Y-107973819D01*
X109358977Y-107929081D01*
X109281401Y-107851505D01*
X109281397Y-107851502D01*
X109281396Y-107851501D01*
X109087834Y-107715967D01*
X109087830Y-107715965D01*
X109016727Y-107682809D01*
X108873663Y-107616097D01*
X108873659Y-107616096D01*
X108873655Y-107616094D01*
X108645413Y-107554938D01*
X108645403Y-107554936D01*
X108410001Y-107534341D01*
X108409999Y-107534341D01*
X108174596Y-107554936D01*
X108174586Y-107554938D01*
X107946344Y-107616094D01*
X107946335Y-107616098D01*
X107732171Y-107715964D01*
X107732169Y-107715965D01*
X107538597Y-107851505D01*
X107371505Y-108018597D01*
X107241575Y-108204158D01*
X107186998Y-108247783D01*
X107117500Y-108254977D01*
X107055145Y-108223454D01*
X107038425Y-108204158D01*
X106908494Y-108018597D01*
X106741402Y-107851506D01*
X106741395Y-107851501D01*
X106547834Y-107715967D01*
X106547830Y-107715965D01*
X106476727Y-107682809D01*
X106333663Y-107616097D01*
X106333659Y-107616096D01*
X106333655Y-107616094D01*
X106105413Y-107554938D01*
X106105403Y-107554936D01*
X105870001Y-107534341D01*
X105869995Y-107534341D01*
X105843048Y-107536698D01*
X105774548Y-107522930D01*
X105724366Y-107474314D01*
X105708434Y-107406285D01*
X105724282Y-107356524D01*
X105722769Y-107355795D01*
X105725787Y-107349527D01*
X105725789Y-107349522D01*
X105785368Y-107179255D01*
X105786901Y-107165656D01*
X105793102Y-107110617D01*
X105820168Y-107046203D01*
X105877763Y-107006648D01*
X105916322Y-107000500D01*
X132447710Y-107000500D01*
X132514749Y-107020185D01*
G37*
%TD.AperFunction*%
%TA.AperFunction,Conductor*%
G36*
X95477288Y-104383431D02*
G01*
X95495329Y-104399544D01*
X95533702Y-104441228D01*
X95638523Y-104522813D01*
X95679335Y-104579523D01*
X95681152Y-104592600D01*
X96269352Y-105180799D01*
X96238058Y-105189185D01*
X96106942Y-105264885D01*
X95999885Y-105371942D01*
X95924185Y-105503058D01*
X95915799Y-105534352D01*
X95302176Y-104920729D01*
X95268691Y-104859406D01*
X95269526Y-104810397D01*
X95268174Y-104810172D01*
X95269018Y-104805109D01*
X95287671Y-104580005D01*
X95287671Y-104579994D01*
X95280526Y-104493770D01*
X95294607Y-104425334D01*
X95343452Y-104375375D01*
X95411553Y-104359754D01*
X95477288Y-104383431D01*
G37*
%TD.AperFunction*%
%TA.AperFunction,Conductor*%
G36*
X97551495Y-104368804D02*
G01*
X97609111Y-104408327D01*
X97636213Y-104472727D01*
X97637000Y-104486677D01*
X97637000Y-104850189D01*
X97617315Y-104917228D01*
X97600681Y-104937870D01*
X97004200Y-105534351D01*
X96995815Y-105503058D01*
X96920115Y-105371942D01*
X96813058Y-105264885D01*
X96681942Y-105189185D01*
X96650647Y-105180799D01*
X97242934Y-104588511D01*
X97249366Y-104560225D01*
X97281472Y-104522817D01*
X97386298Y-104441228D01*
X97421772Y-104402692D01*
X97481657Y-104366704D01*
X97551495Y-104368804D01*
G37*
%TD.AperFunction*%
%TA.AperFunction,Conductor*%
G36*
X153002324Y-77480587D02*
G01*
X153042259Y-77482081D01*
X153481082Y-77498500D01*
X153490306Y-77499192D01*
X153964101Y-77552575D01*
X153973247Y-77553954D01*
X154335901Y-77622572D01*
X154441708Y-77642592D01*
X154450749Y-77644655D01*
X154624139Y-77691114D01*
X154911287Y-77768056D01*
X154920133Y-77770784D01*
X155370158Y-77928255D01*
X155378778Y-77931637D01*
X155622667Y-78038045D01*
X155815784Y-78122302D01*
X155824138Y-78126326D01*
X156245640Y-78349096D01*
X156253671Y-78353732D01*
X156657371Y-78607393D01*
X156665033Y-78612617D01*
X157048641Y-78895732D01*
X157055883Y-78901508D01*
X157417275Y-79212511D01*
X157424072Y-79218818D01*
X157761181Y-79555927D01*
X157767488Y-79562724D01*
X158078491Y-79924116D01*
X158084269Y-79931362D01*
X158103318Y-79957171D01*
X158367382Y-80314966D01*
X158372606Y-80322628D01*
X158626267Y-80726328D01*
X158630903Y-80734359D01*
X158853673Y-81155861D01*
X158857697Y-81164215D01*
X159048359Y-81601215D01*
X159051747Y-81609848D01*
X159209212Y-82059859D01*
X159211945Y-82068719D01*
X159335344Y-82529250D01*
X159337407Y-82538291D01*
X159426043Y-83006741D01*
X159427425Y-83015910D01*
X159480806Y-83489681D01*
X159481499Y-83498928D01*
X159499413Y-83977674D01*
X159499500Y-83982311D01*
X159499500Y-115977688D01*
X159499413Y-115982325D01*
X159481499Y-116461071D01*
X159480806Y-116470318D01*
X159427425Y-116944089D01*
X159426043Y-116953258D01*
X159337407Y-117421708D01*
X159335344Y-117430749D01*
X159211945Y-117891280D01*
X159209212Y-117900140D01*
X159051747Y-118350151D01*
X159048359Y-118358784D01*
X158857697Y-118795784D01*
X158853673Y-118804138D01*
X158630903Y-119225640D01*
X158626267Y-119233671D01*
X158372606Y-119637371D01*
X158367382Y-119645033D01*
X158084273Y-120028633D01*
X158078491Y-120035883D01*
X157767488Y-120397275D01*
X157761181Y-120404072D01*
X157424072Y-120741181D01*
X157417275Y-120747488D01*
X157055883Y-121058491D01*
X157048633Y-121064273D01*
X156665033Y-121347382D01*
X156657371Y-121352606D01*
X156253671Y-121606267D01*
X156245640Y-121610903D01*
X155824138Y-121833673D01*
X155815784Y-121837697D01*
X155378784Y-122028359D01*
X155370151Y-122031747D01*
X154920140Y-122189212D01*
X154911280Y-122191945D01*
X154450749Y-122315344D01*
X154441708Y-122317407D01*
X153973258Y-122406043D01*
X153964089Y-122407425D01*
X153490318Y-122460806D01*
X153481071Y-122461499D01*
X153002325Y-122479413D01*
X152997688Y-122479500D01*
X94002312Y-122479500D01*
X93997675Y-122479413D01*
X93518928Y-122461499D01*
X93509681Y-122460806D01*
X93035910Y-122407425D01*
X93026741Y-122406043D01*
X92558291Y-122317407D01*
X92549250Y-122315344D01*
X92088719Y-122191945D01*
X92079859Y-122189212D01*
X91629848Y-122031747D01*
X91621215Y-122028359D01*
X91184215Y-121837697D01*
X91175861Y-121833673D01*
X90754359Y-121610903D01*
X90746328Y-121606267D01*
X90342628Y-121352606D01*
X90334966Y-121347382D01*
X89951366Y-121064273D01*
X89944116Y-121058491D01*
X89582724Y-120747488D01*
X89575927Y-120741181D01*
X89238818Y-120404072D01*
X89232511Y-120397275D01*
X88921508Y-120035883D01*
X88915726Y-120028633D01*
X88821955Y-119901577D01*
X98749500Y-119901577D01*
X98749500Y-120098422D01*
X98780290Y-120292826D01*
X98841117Y-120480029D01*
X98858793Y-120514719D01*
X98930476Y-120655405D01*
X99046172Y-120814646D01*
X99185354Y-120953828D01*
X99344595Y-121069524D01*
X99427455Y-121111743D01*
X99519970Y-121158882D01*
X99519972Y-121158882D01*
X99519975Y-121158884D01*
X99620317Y-121191487D01*
X99707173Y-121219709D01*
X99901578Y-121250500D01*
X99901583Y-121250500D01*
X100098422Y-121250500D01*
X100292826Y-121219709D01*
X100480025Y-121158884D01*
X100655405Y-121069524D01*
X100814646Y-120953828D01*
X100953828Y-120814646D01*
X101069524Y-120655405D01*
X101158884Y-120480025D01*
X101219709Y-120292826D01*
X101250500Y-120098422D01*
X101250500Y-119901577D01*
X148749500Y-119901577D01*
X148749500Y-120098422D01*
X148780290Y-120292826D01*
X148841117Y-120480029D01*
X148858793Y-120514719D01*
X148930476Y-120655405D01*
X149046172Y-120814646D01*
X149185354Y-120953828D01*
X149344595Y-121069524D01*
X149427455Y-121111743D01*
X149519970Y-121158882D01*
X149519972Y-121158882D01*
X149519975Y-121158884D01*
X149620317Y-121191487D01*
X149707173Y-121219709D01*
X149901578Y-121250500D01*
X149901583Y-121250500D01*
X150098422Y-121250500D01*
X150292826Y-121219709D01*
X150480025Y-121158884D01*
X150655405Y-121069524D01*
X150814646Y-120953828D01*
X150953828Y-120814646D01*
X151069524Y-120655405D01*
X151158884Y-120480025D01*
X151219709Y-120292826D01*
X151250500Y-120098422D01*
X151250500Y-119901577D01*
X151219709Y-119707173D01*
X151158882Y-119519970D01*
X151069523Y-119344594D01*
X150953828Y-119185354D01*
X150814646Y-119046172D01*
X150655405Y-118930476D01*
X150480029Y-118841117D01*
X150292826Y-118780290D01*
X150098422Y-118749500D01*
X150098417Y-118749500D01*
X149901583Y-118749500D01*
X149901578Y-118749500D01*
X149707173Y-118780290D01*
X149519970Y-118841117D01*
X149344594Y-118930476D01*
X149253741Y-118996485D01*
X149185354Y-119046172D01*
X149185352Y-119046174D01*
X149185351Y-119046174D01*
X149046174Y-119185351D01*
X149046174Y-119185352D01*
X149046172Y-119185354D01*
X148996485Y-119253741D01*
X148930476Y-119344594D01*
X148841117Y-119519970D01*
X148780290Y-119707173D01*
X148749500Y-119901577D01*
X101250500Y-119901577D01*
X101219709Y-119707173D01*
X101158882Y-119519970D01*
X101069523Y-119344594D01*
X100953828Y-119185354D01*
X100814646Y-119046172D01*
X100655405Y-118930476D01*
X100480029Y-118841117D01*
X100292826Y-118780290D01*
X100098422Y-118749500D01*
X100098417Y-118749500D01*
X99901583Y-118749500D01*
X99901578Y-118749500D01*
X99707173Y-118780290D01*
X99519970Y-118841117D01*
X99344594Y-118930476D01*
X99253741Y-118996485D01*
X99185354Y-119046172D01*
X99185352Y-119046174D01*
X99185351Y-119046174D01*
X99046174Y-119185351D01*
X99046174Y-119185352D01*
X99046172Y-119185354D01*
X98996485Y-119253741D01*
X98930476Y-119344594D01*
X98841117Y-119519970D01*
X98780290Y-119707173D01*
X98749500Y-119901577D01*
X88821955Y-119901577D01*
X88632617Y-119645033D01*
X88627393Y-119637371D01*
X88373732Y-119233671D01*
X88369096Y-119225640D01*
X88146326Y-118804138D01*
X88142302Y-118795784D01*
X87951640Y-118358784D01*
X87948252Y-118350151D01*
X87790787Y-117900140D01*
X87788054Y-117891280D01*
X87752043Y-117756887D01*
X87664655Y-117430749D01*
X87662592Y-117421708D01*
X87642572Y-117315901D01*
X87573954Y-116953247D01*
X87572574Y-116944089D01*
X87519193Y-116470318D01*
X87518500Y-116461070D01*
X87500587Y-115982324D01*
X87500500Y-115977688D01*
X87500500Y-112745000D01*
X93821687Y-112745000D01*
X93840922Y-113063007D01*
X93898352Y-113376390D01*
X93993135Y-113680562D01*
X93993137Y-113680569D01*
X94123880Y-113971066D01*
X94123887Y-113971078D01*
X94123890Y-113971085D01*
X94288710Y-114243731D01*
X94288715Y-114243739D01*
X94485196Y-114494528D01*
X94710471Y-114719803D01*
X94961260Y-114916284D01*
X94961263Y-114916285D01*
X94961267Y-114916289D01*
X95233915Y-115081110D01*
X95233925Y-115081114D01*
X95233933Y-115081119D01*
X95524430Y-115211862D01*
X95524435Y-115211863D01*
X95524441Y-115211866D01*
X95828610Y-115306648D01*
X96141987Y-115364077D01*
X96460000Y-115383313D01*
X96778013Y-115364077D01*
X97091390Y-115306648D01*
X97395559Y-115211866D01*
X97395565Y-115211862D01*
X97395569Y-115211862D01*
X97686066Y-115081119D01*
X97686069Y-115081116D01*
X97686085Y-115081110D01*
X97958733Y-114916289D01*
X98209525Y-114719806D01*
X98434806Y-114494525D01*
X98631289Y-114243733D01*
X98796110Y-113971085D01*
X98796119Y-113971066D01*
X98926862Y-113680569D01*
X98926862Y-113680565D01*
X98926866Y-113680559D01*
X99021648Y-113376390D01*
X99079077Y-113063013D01*
X99098313Y-112745000D01*
X99079077Y-112426987D01*
X99021648Y-112113610D01*
X98926866Y-111809441D01*
X98926863Y-111809435D01*
X98926862Y-111809430D01*
X98796119Y-111518933D01*
X98796114Y-111518925D01*
X98796110Y-111518915D01*
X98631289Y-111246267D01*
X98434806Y-110995475D01*
X98434803Y-110995471D01*
X98209528Y-110770196D01*
X97958739Y-110573715D01*
X97958731Y-110573710D01*
X97686085Y-110408890D01*
X97686078Y-110408887D01*
X97686066Y-110408880D01*
X97395569Y-110278137D01*
X97395562Y-110278135D01*
X97273181Y-110240000D01*
X97091390Y-110183352D01*
X96778013Y-110125923D01*
X96778012Y-110125922D01*
X96778007Y-110125922D01*
X96460000Y-110106687D01*
X96141992Y-110125922D01*
X95828609Y-110183352D01*
X95524437Y-110278135D01*
X95524430Y-110278137D01*
X95233933Y-110408880D01*
X95233917Y-110408889D01*
X94961268Y-110573710D01*
X94961260Y-110573715D01*
X94710471Y-110770196D01*
X94485196Y-110995471D01*
X94288715Y-111246260D01*
X94288710Y-111246268D01*
X94123889Y-111518917D01*
X94123880Y-111518933D01*
X93993137Y-111809430D01*
X93993135Y-111809437D01*
X93898352Y-112113609D01*
X93840922Y-112426992D01*
X93821687Y-112745000D01*
X87500500Y-112745000D01*
X87500500Y-106449996D01*
X90094435Y-106449996D01*
X90094435Y-106450003D01*
X90114630Y-106629249D01*
X90114631Y-106629254D01*
X90174211Y-106799523D01*
X90218211Y-106869548D01*
X90270184Y-106952262D01*
X90397738Y-107079816D01*
X90550478Y-107175789D01*
X90679789Y-107221037D01*
X90736564Y-107261758D01*
X90755875Y-107297122D01*
X90774211Y-107349523D01*
X90774212Y-107349524D01*
X90815478Y-107415198D01*
X90870184Y-107502262D01*
X90997738Y-107629816D01*
X91011952Y-107638747D01*
X91134841Y-107715964D01*
X91150478Y-107725789D01*
X91315218Y-107783434D01*
X91320745Y-107785368D01*
X91320750Y-107785369D01*
X91499996Y-107805565D01*
X91500000Y-107805565D01*
X91500004Y-107805565D01*
X91679249Y-107785369D01*
X91679252Y-107785368D01*
X91679255Y-107785368D01*
X91849522Y-107725789D01*
X92002262Y-107629816D01*
X92129816Y-107502262D01*
X92225789Y-107349522D01*
X92285368Y-107179255D01*
X92285759Y-107175789D01*
X92305565Y-107000003D01*
X92305565Y-106999996D01*
X92285369Y-106820750D01*
X92285368Y-106820745D01*
X92225788Y-106650476D01*
X92129813Y-106497734D01*
X92127550Y-106494896D01*
X92126659Y-106492715D01*
X92126111Y-106491842D01*
X92126264Y-106491745D01*
X92101144Y-106430209D01*
X92100500Y-106417587D01*
X92100500Y-96300096D01*
X92120185Y-96233057D01*
X92136815Y-96212419D01*
X92455025Y-95894208D01*
X92516346Y-95860725D01*
X92586037Y-95865709D01*
X92641971Y-95907580D01*
X92656260Y-95932081D01*
X92717168Y-96070938D01*
X92840715Y-96260042D01*
X92993698Y-96426224D01*
X92993703Y-96426229D01*
X93046274Y-96467147D01*
X93087087Y-96523858D01*
X93090760Y-96593631D01*
X93056129Y-96654314D01*
X93046274Y-96662853D01*
X92993703Y-96703770D01*
X92993698Y-96703775D01*
X92840715Y-96869957D01*
X92717168Y-97059061D01*
X92626433Y-97265917D01*
X92570981Y-97484892D01*
X92552329Y-97709994D01*
X92552329Y-97710005D01*
X92570981Y-97935107D01*
X92626433Y-98154082D01*
X92717168Y-98360938D01*
X92840715Y-98550042D01*
X92993698Y-98716224D01*
X92993703Y-98716229D01*
X93046274Y-98757147D01*
X93087087Y-98813858D01*
X93090760Y-98883631D01*
X93056129Y-98944314D01*
X93046274Y-98952853D01*
X92993703Y-98993770D01*
X92993698Y-98993775D01*
X92840715Y-99159957D01*
X92717168Y-99349061D01*
X92626433Y-99555917D01*
X92570981Y-99774892D01*
X92552329Y-99999994D01*
X92552329Y-100000005D01*
X92570981Y-100225107D01*
X92626433Y-100444082D01*
X92717168Y-100650938D01*
X92840715Y-100840042D01*
X92993698Y-101006224D01*
X92993703Y-101006229D01*
X93046274Y-101047147D01*
X93087087Y-101103858D01*
X93090760Y-101173631D01*
X93056129Y-101234314D01*
X93046274Y-101242853D01*
X92993703Y-101283770D01*
X92993698Y-101283775D01*
X92840715Y-101449957D01*
X92717168Y-101639061D01*
X92626433Y-101845917D01*
X92570981Y-102064892D01*
X92552329Y-102289994D01*
X92552329Y-102290005D01*
X92570981Y-102515107D01*
X92570981Y-102515110D01*
X92570982Y-102515111D01*
X92577285Y-102540000D01*
X92626433Y-102734082D01*
X92717168Y-102940938D01*
X92840715Y-103130042D01*
X92993698Y-103296224D01*
X92993703Y-103296229D01*
X93046274Y-103337147D01*
X93087087Y-103393858D01*
X93090760Y-103463631D01*
X93056129Y-103524314D01*
X93046274Y-103532853D01*
X92993703Y-103573770D01*
X92993698Y-103573775D01*
X92840715Y-103739957D01*
X92717168Y-103929061D01*
X92626433Y-104135917D01*
X92570981Y-104354892D01*
X92552329Y-104579994D01*
X92552329Y-104580005D01*
X92570981Y-104805107D01*
X92626433Y-105024082D01*
X92717168Y-105230938D01*
X92840715Y-105420042D01*
X92993698Y-105586224D01*
X92993702Y-105586228D01*
X93171955Y-105724968D01*
X93370613Y-105832477D01*
X93472885Y-105867587D01*
X93584253Y-105905820D01*
X93584255Y-105905820D01*
X93584257Y-105905821D01*
X93807059Y-105943000D01*
X93807060Y-105943000D01*
X94032940Y-105943000D01*
X94032941Y-105943000D01*
X94255743Y-105905821D01*
X94469387Y-105832477D01*
X94668045Y-105724968D01*
X94846298Y-105586228D01*
X94885219Y-105543947D01*
X94945105Y-105507958D01*
X95014944Y-105510059D01*
X95072560Y-105549583D01*
X95099661Y-105613982D01*
X95100025Y-105638171D01*
X95092830Y-105725004D01*
X95092830Y-105725006D01*
X95111474Y-105950021D01*
X95111476Y-105950029D01*
X95166907Y-106168920D01*
X95257609Y-106375700D01*
X95335904Y-106495540D01*
X95915799Y-105915646D01*
X95924185Y-105946942D01*
X95999885Y-106078058D01*
X96106942Y-106185115D01*
X96238058Y-106260815D01*
X96269352Y-106269200D01*
X95687922Y-106850629D01*
X95712230Y-106869549D01*
X95910812Y-106977017D01*
X95910818Y-106977019D01*
X96124377Y-107050334D01*
X96347100Y-107087500D01*
X96572900Y-107087500D01*
X96795622Y-107050334D01*
X97009181Y-106977019D01*
X97009187Y-106977017D01*
X97207770Y-106869548D01*
X97232076Y-106850629D01*
X96650647Y-106269200D01*
X96681942Y-106260815D01*
X96813058Y-106185115D01*
X96920115Y-106078058D01*
X96995815Y-105946942D01*
X97004200Y-105915647D01*
X97584093Y-106495541D01*
X97662389Y-106375702D01*
X97753092Y-106168919D01*
X97796795Y-105996343D01*
X97832335Y-105936187D01*
X97894755Y-105904795D01*
X97960334Y-105910601D01*
X98030017Y-105936591D01*
X98030016Y-105936591D01*
X98036944Y-105937335D01*
X98089627Y-105943000D01*
X99462401Y-105942999D01*
X99529440Y-105962684D01*
X99550082Y-105979318D01*
X100451284Y-106880520D01*
X100451286Y-106880521D01*
X100451290Y-106880524D01*
X100575546Y-106952262D01*
X100588216Y-106959577D01*
X100740943Y-107000501D01*
X100740945Y-107000501D01*
X100906654Y-107000501D01*
X100906670Y-107000500D01*
X101850902Y-107000500D01*
X101917941Y-107020185D01*
X101963696Y-107072989D01*
X101973640Y-107142147D01*
X101944615Y-107205703D01*
X101938583Y-107212181D01*
X99981465Y-109169298D01*
X99920142Y-109202783D01*
X99907668Y-109204837D01*
X99820750Y-109214630D01*
X99650478Y-109274210D01*
X99497737Y-109370184D01*
X99370184Y-109497737D01*
X99274211Y-109650476D01*
X99214631Y-109820745D01*
X99214630Y-109820750D01*
X99194435Y-109999996D01*
X99194435Y-110000003D01*
X99214630Y-110179249D01*
X99214631Y-110179254D01*
X99274211Y-110349523D01*
X99311514Y-110408890D01*
X99370184Y-110502262D01*
X99497738Y-110629816D01*
X99650478Y-110725789D01*
X99777380Y-110770194D01*
X99820745Y-110785368D01*
X99820750Y-110785369D01*
X99999996Y-110805565D01*
X100000000Y-110805565D01*
X100000004Y-110805565D01*
X100179249Y-110785369D01*
X100179252Y-110785368D01*
X100179255Y-110785368D01*
X100349522Y-110725789D01*
X100502262Y-110629816D01*
X100629816Y-110502262D01*
X100725789Y-110349522D01*
X100785368Y-110179255D01*
X100795161Y-110092329D01*
X100822226Y-110027918D01*
X100830690Y-110018543D01*
X103212417Y-107636819D01*
X103273740Y-107603334D01*
X103300098Y-107600500D01*
X104417588Y-107600500D01*
X104484627Y-107620185D01*
X104494903Y-107627555D01*
X104497736Y-107629814D01*
X104497738Y-107629816D01*
X104650476Y-107725788D01*
X104650478Y-107725789D01*
X104815218Y-107783434D01*
X104871994Y-107824156D01*
X104897742Y-107889109D01*
X104884286Y-107957670D01*
X104861947Y-107988156D01*
X104831503Y-108018599D01*
X104695965Y-108212169D01*
X104695964Y-108212171D01*
X104596098Y-108426335D01*
X104596094Y-108426344D01*
X104534938Y-108654586D01*
X104534936Y-108654596D01*
X104514341Y-108889999D01*
X104514341Y-108890000D01*
X104534936Y-109125403D01*
X104534938Y-109125413D01*
X104596094Y-109353655D01*
X104596096Y-109353659D01*
X104596097Y-109353663D01*
X104676004Y-109525023D01*
X104695965Y-109567830D01*
X104695967Y-109567834D01*
X104804281Y-109722521D01*
X104831505Y-109761401D01*
X104998599Y-109928495D01*
X105095384Y-109996265D01*
X105192165Y-110064032D01*
X105192167Y-110064033D01*
X105192170Y-110064035D01*
X105406337Y-110163903D01*
X105634592Y-110225063D01*
X105811034Y-110240500D01*
X105869999Y-110245659D01*
X105870000Y-110245659D01*
X105870001Y-110245659D01*
X105928966Y-110240500D01*
X106105408Y-110225063D01*
X106333663Y-110163903D01*
X106547830Y-110064035D01*
X106741401Y-109928495D01*
X106908495Y-109761401D01*
X107038425Y-109575842D01*
X107093002Y-109532217D01*
X107162500Y-109525023D01*
X107224855Y-109556546D01*
X107241575Y-109575842D01*
X107371500Y-109761395D01*
X107371505Y-109761401D01*
X107538599Y-109928495D01*
X107635384Y-109996265D01*
X107732165Y-110064032D01*
X107732167Y-110064033D01*
X107732170Y-110064035D01*
X107946337Y-110163903D01*
X108174592Y-110225063D01*
X108351034Y-110240500D01*
X108409999Y-110245659D01*
X108410000Y-110245659D01*
X108410001Y-110245659D01*
X108468966Y-110240500D01*
X108645408Y-110225063D01*
X108873663Y-110163903D01*
X109087830Y-110064035D01*
X109281401Y-109928495D01*
X109403717Y-109806178D01*
X109465036Y-109772696D01*
X109534728Y-109777680D01*
X109590662Y-109819551D01*
X109607577Y-109850528D01*
X109656646Y-109982088D01*
X109656649Y-109982093D01*
X109742809Y-110097187D01*
X109742812Y-110097190D01*
X109857906Y-110183350D01*
X109857913Y-110183354D01*
X109992620Y-110233596D01*
X109992627Y-110233598D01*
X110052155Y-110239999D01*
X110052172Y-110240000D01*
X110700000Y-110240000D01*
X110700000Y-109334560D01*
X110753147Y-109365245D01*
X110882857Y-109400000D01*
X111017143Y-109400000D01*
X111146853Y-109365245D01*
X111200000Y-109334560D01*
X111200000Y-110240000D01*
X111847828Y-110240000D01*
X111847844Y-110239999D01*
X111907372Y-110233598D01*
X111907379Y-110233596D01*
X112042086Y-110183354D01*
X112042093Y-110183350D01*
X112157187Y-110097190D01*
X112157190Y-110097187D01*
X112243350Y-109982093D01*
X112243354Y-109982086D01*
X112292422Y-109850529D01*
X112334293Y-109794595D01*
X112399757Y-109770178D01*
X112468030Y-109785030D01*
X112496285Y-109806181D01*
X112618599Y-109928495D01*
X112715384Y-109996265D01*
X112812165Y-110064032D01*
X112812167Y-110064033D01*
X112812170Y-110064035D01*
X113026337Y-110163903D01*
X113254592Y-110225063D01*
X113431034Y-110240500D01*
X113489999Y-110245659D01*
X113490000Y-110245659D01*
X113490001Y-110245659D01*
X113548966Y-110240500D01*
X113725408Y-110225063D01*
X113953663Y-110163903D01*
X114167830Y-110064035D01*
X114361401Y-109928495D01*
X114528495Y-109761401D01*
X114658425Y-109575842D01*
X114713002Y-109532217D01*
X114782500Y-109525023D01*
X114844855Y-109556546D01*
X114861575Y-109575842D01*
X114991500Y-109761395D01*
X114991505Y-109761401D01*
X115158599Y-109928495D01*
X115255384Y-109996265D01*
X115352165Y-110064032D01*
X115352167Y-110064033D01*
X115352170Y-110064035D01*
X115566337Y-110163903D01*
X115794592Y-110225063D01*
X115971034Y-110240500D01*
X116029999Y-110245659D01*
X116030000Y-110245659D01*
X116030001Y-110245659D01*
X116088966Y-110240500D01*
X116265408Y-110225063D01*
X116493663Y-110163903D01*
X116707830Y-110064035D01*
X116901401Y-109928495D01*
X117068495Y-109761401D01*
X117198425Y-109575842D01*
X117253002Y-109532217D01*
X117322500Y-109525023D01*
X117384855Y-109556546D01*
X117401575Y-109575842D01*
X117531500Y-109761395D01*
X117531505Y-109761401D01*
X117698599Y-109928495D01*
X117795384Y-109996265D01*
X117892165Y-110064032D01*
X117892167Y-110064033D01*
X117892170Y-110064035D01*
X118106337Y-110163903D01*
X118334592Y-110225063D01*
X118511034Y-110240500D01*
X118569999Y-110245659D01*
X118570000Y-110245659D01*
X118570001Y-110245659D01*
X118628966Y-110240500D01*
X118805408Y-110225063D01*
X119033663Y-110163903D01*
X119247830Y-110064035D01*
X119441401Y-109928495D01*
X119608495Y-109761401D01*
X119738425Y-109575842D01*
X119793002Y-109532217D01*
X119862500Y-109525023D01*
X119924855Y-109556546D01*
X119941575Y-109575842D01*
X120071500Y-109761395D01*
X120071505Y-109761401D01*
X120238599Y-109928495D01*
X120335384Y-109996265D01*
X120432165Y-110064032D01*
X120432167Y-110064033D01*
X120432170Y-110064035D01*
X120646337Y-110163903D01*
X120874592Y-110225063D01*
X121051034Y-110240500D01*
X121109999Y-110245659D01*
X121110000Y-110245659D01*
X121110001Y-110245659D01*
X121168966Y-110240500D01*
X121345408Y-110225063D01*
X121573663Y-110163903D01*
X121787830Y-110064035D01*
X121981401Y-109928495D01*
X122103717Y-109806178D01*
X122165036Y-109772696D01*
X122234728Y-109777680D01*
X122290662Y-109819551D01*
X122307577Y-109850528D01*
X122356646Y-109982088D01*
X122356649Y-109982093D01*
X122442809Y-110097187D01*
X122442812Y-110097190D01*
X122557906Y-110183350D01*
X122557913Y-110183354D01*
X122692620Y-110233596D01*
X122692627Y-110233598D01*
X122752155Y-110239999D01*
X122752172Y-110240000D01*
X123400000Y-110240000D01*
X123400000Y-109334560D01*
X123453147Y-109365245D01*
X123582857Y-109400000D01*
X123717143Y-109400000D01*
X123846853Y-109365245D01*
X123900000Y-109334560D01*
X123900000Y-110240000D01*
X124547828Y-110240000D01*
X124547844Y-110239999D01*
X124607372Y-110233598D01*
X124607379Y-110233596D01*
X124742086Y-110183354D01*
X124742093Y-110183350D01*
X124857187Y-110097190D01*
X124857190Y-110097187D01*
X124943350Y-109982093D01*
X124943354Y-109982086D01*
X124992422Y-109850529D01*
X125034293Y-109794595D01*
X125099757Y-109770178D01*
X125168030Y-109785030D01*
X125196285Y-109806181D01*
X125318599Y-109928495D01*
X125415384Y-109996265D01*
X125512165Y-110064032D01*
X125512167Y-110064033D01*
X125512170Y-110064035D01*
X125726337Y-110163903D01*
X125954592Y-110225063D01*
X126131034Y-110240500D01*
X126189999Y-110245659D01*
X126190000Y-110245659D01*
X126190001Y-110245659D01*
X126248966Y-110240500D01*
X126425408Y-110225063D01*
X126653663Y-110163903D01*
X126867830Y-110064035D01*
X127061401Y-109928495D01*
X127228495Y-109761401D01*
X127358425Y-109575842D01*
X127413002Y-109532217D01*
X127482500Y-109525023D01*
X127544855Y-109556546D01*
X127561575Y-109575842D01*
X127691500Y-109761395D01*
X127691505Y-109761401D01*
X127858599Y-109928495D01*
X127955384Y-109996265D01*
X128052165Y-110064032D01*
X128052167Y-110064033D01*
X128052170Y-110064035D01*
X128266337Y-110163903D01*
X128494592Y-110225063D01*
X128671034Y-110240500D01*
X128729999Y-110245659D01*
X128730000Y-110245659D01*
X128730001Y-110245659D01*
X128788966Y-110240500D01*
X128965408Y-110225063D01*
X129193663Y-110163903D01*
X129407830Y-110064035D01*
X129601401Y-109928495D01*
X129768495Y-109761401D01*
X129898425Y-109575842D01*
X129953002Y-109532217D01*
X130022500Y-109525023D01*
X130084855Y-109556546D01*
X130101575Y-109575842D01*
X130231500Y-109761395D01*
X130231505Y-109761401D01*
X130398599Y-109928495D01*
X130495384Y-109996265D01*
X130592165Y-110064032D01*
X130592167Y-110064033D01*
X130592170Y-110064035D01*
X130806337Y-110163903D01*
X131034592Y-110225063D01*
X131211034Y-110240500D01*
X131269999Y-110245659D01*
X131270000Y-110245659D01*
X131270001Y-110245659D01*
X131328966Y-110240500D01*
X131505408Y-110225063D01*
X131733663Y-110163903D01*
X131947830Y-110064035D01*
X132141401Y-109928495D01*
X132308495Y-109761401D01*
X132438425Y-109575842D01*
X132493002Y-109532217D01*
X132562500Y-109525023D01*
X132624855Y-109556546D01*
X132641575Y-109575842D01*
X132771500Y-109761395D01*
X132771505Y-109761401D01*
X132938599Y-109928495D01*
X133035384Y-109996265D01*
X133132165Y-110064032D01*
X133132167Y-110064033D01*
X133132170Y-110064035D01*
X133346337Y-110163903D01*
X133574592Y-110225063D01*
X133751034Y-110240500D01*
X133809999Y-110245659D01*
X133810000Y-110245659D01*
X133810001Y-110245659D01*
X133868966Y-110240500D01*
X134045408Y-110225063D01*
X134273663Y-110163903D01*
X134487830Y-110064035D01*
X134681401Y-109928495D01*
X134803329Y-109806566D01*
X134864648Y-109773084D01*
X134934340Y-109778068D01*
X134990274Y-109819939D01*
X135007189Y-109850917D01*
X135056202Y-109982328D01*
X135056206Y-109982335D01*
X135142452Y-110097544D01*
X135142455Y-110097547D01*
X135257664Y-110183793D01*
X135257671Y-110183797D01*
X135392517Y-110234091D01*
X135392516Y-110234091D01*
X135399444Y-110234835D01*
X135452127Y-110240500D01*
X137247872Y-110240499D01*
X137307483Y-110234091D01*
X137442331Y-110183796D01*
X137557546Y-110097546D01*
X137643796Y-109982331D01*
X137692810Y-109850916D01*
X137734681Y-109794984D01*
X137800145Y-109770566D01*
X137868418Y-109785417D01*
X137896673Y-109806569D01*
X138018599Y-109928495D01*
X138115384Y-109996265D01*
X138212165Y-110064032D01*
X138212167Y-110064033D01*
X138212170Y-110064035D01*
X138426337Y-110163903D01*
X138654592Y-110225063D01*
X138831034Y-110240500D01*
X138889999Y-110245659D01*
X138890000Y-110245659D01*
X138890001Y-110245659D01*
X138948966Y-110240500D01*
X139125408Y-110225063D01*
X139353663Y-110163903D01*
X139567830Y-110064035D01*
X139761401Y-109928495D01*
X139928495Y-109761401D01*
X140058425Y-109575842D01*
X140113002Y-109532217D01*
X140182500Y-109525023D01*
X140244855Y-109556546D01*
X140261575Y-109575842D01*
X140391500Y-109761395D01*
X140391505Y-109761401D01*
X140558599Y-109928495D01*
X140655384Y-109996265D01*
X140752165Y-110064032D01*
X140752167Y-110064033D01*
X140752170Y-110064035D01*
X140966337Y-110163903D01*
X141194592Y-110225063D01*
X141371034Y-110240500D01*
X141429999Y-110245659D01*
X141430000Y-110245659D01*
X141430001Y-110245659D01*
X141488966Y-110240500D01*
X141665408Y-110225063D01*
X141893663Y-110163903D01*
X142107830Y-110064035D01*
X142301401Y-109928495D01*
X142468495Y-109761401D01*
X142598425Y-109575842D01*
X142653002Y-109532217D01*
X142722500Y-109525023D01*
X142784855Y-109556546D01*
X142801575Y-109575842D01*
X142931500Y-109761395D01*
X142931505Y-109761401D01*
X143098599Y-109928495D01*
X143195384Y-109996265D01*
X143292165Y-110064032D01*
X143292167Y-110064033D01*
X143292170Y-110064035D01*
X143506337Y-110163903D01*
X143734592Y-110225063D01*
X143911034Y-110240500D01*
X143969999Y-110245659D01*
X143970000Y-110245659D01*
X143970001Y-110245659D01*
X144028966Y-110240500D01*
X144205408Y-110225063D01*
X144433663Y-110163903D01*
X144647830Y-110064035D01*
X144841401Y-109928495D01*
X145008495Y-109761401D01*
X145138425Y-109575842D01*
X145193002Y-109532217D01*
X145262500Y-109525023D01*
X145324855Y-109556546D01*
X145341575Y-109575842D01*
X145471500Y-109761395D01*
X145471505Y-109761401D01*
X145638599Y-109928495D01*
X145735384Y-109996265D01*
X145832165Y-110064032D01*
X145832167Y-110064033D01*
X145832170Y-110064035D01*
X146046337Y-110163903D01*
X146274592Y-110225063D01*
X146451034Y-110240500D01*
X146509999Y-110245659D01*
X146510000Y-110245659D01*
X146510001Y-110245659D01*
X146568966Y-110240500D01*
X146745408Y-110225063D01*
X146973663Y-110163903D01*
X147187830Y-110064035D01*
X147381401Y-109928495D01*
X147503717Y-109806178D01*
X147565036Y-109772696D01*
X147634728Y-109777680D01*
X147690662Y-109819551D01*
X147707577Y-109850528D01*
X147756646Y-109982088D01*
X147756649Y-109982093D01*
X147842809Y-110097187D01*
X147842812Y-110097190D01*
X147957906Y-110183350D01*
X147957913Y-110183354D01*
X148092620Y-110233596D01*
X148092627Y-110233598D01*
X148152155Y-110239999D01*
X148152172Y-110240000D01*
X148800000Y-110240000D01*
X148800000Y-109334560D01*
X148853147Y-109365245D01*
X148982857Y-109400000D01*
X149117143Y-109400000D01*
X149246853Y-109365245D01*
X149300000Y-109334560D01*
X149300000Y-110240000D01*
X149947828Y-110240000D01*
X149947844Y-110239999D01*
X150007372Y-110233598D01*
X150007379Y-110233596D01*
X150142086Y-110183354D01*
X150142093Y-110183350D01*
X150257187Y-110097190D01*
X150257190Y-110097187D01*
X150343350Y-109982093D01*
X150343354Y-109982086D01*
X150392422Y-109850529D01*
X150434293Y-109794595D01*
X150499757Y-109770178D01*
X150568030Y-109785030D01*
X150596285Y-109806181D01*
X150718599Y-109928495D01*
X150815384Y-109996265D01*
X150912165Y-110064032D01*
X150912167Y-110064033D01*
X150912170Y-110064035D01*
X151126337Y-110163903D01*
X151354592Y-110225063D01*
X151531034Y-110240500D01*
X151589999Y-110245659D01*
X151590000Y-110245659D01*
X151590001Y-110245659D01*
X151648966Y-110240500D01*
X151825408Y-110225063D01*
X152053663Y-110163903D01*
X152267830Y-110064035D01*
X152461401Y-109928495D01*
X152628495Y-109761401D01*
X152758425Y-109575842D01*
X152813002Y-109532217D01*
X152882500Y-109525023D01*
X152944855Y-109556546D01*
X152961575Y-109575842D01*
X153091500Y-109761395D01*
X153091505Y-109761401D01*
X153258599Y-109928495D01*
X153355384Y-109996265D01*
X153452165Y-110064032D01*
X153452167Y-110064033D01*
X153452170Y-110064035D01*
X153666337Y-110163903D01*
X153894592Y-110225063D01*
X154071034Y-110240500D01*
X154129999Y-110245659D01*
X154130000Y-110245659D01*
X154130001Y-110245659D01*
X154188966Y-110240500D01*
X154365408Y-110225063D01*
X154593663Y-110163903D01*
X154807830Y-110064035D01*
X155001401Y-109928495D01*
X155168495Y-109761401D01*
X155304035Y-109567830D01*
X155403903Y-109353663D01*
X155465063Y-109125408D01*
X155485659Y-108890000D01*
X155465063Y-108654592D01*
X155403903Y-108426337D01*
X155304035Y-108212171D01*
X155298425Y-108204158D01*
X155168494Y-108018597D01*
X155001402Y-107851506D01*
X155001395Y-107851501D01*
X154807834Y-107715967D01*
X154807830Y-107715965D01*
X154736727Y-107682809D01*
X154593663Y-107616097D01*
X154593659Y-107616096D01*
X154593655Y-107616094D01*
X154365413Y-107554938D01*
X154365403Y-107554936D01*
X154130001Y-107534341D01*
X154129999Y-107534341D01*
X153894596Y-107554936D01*
X153894586Y-107554938D01*
X153666344Y-107616094D01*
X153666335Y-107616098D01*
X153452171Y-107715964D01*
X153452169Y-107715965D01*
X153258597Y-107851505D01*
X153091505Y-108018597D01*
X152961575Y-108204158D01*
X152906998Y-108247783D01*
X152837500Y-108254977D01*
X152775145Y-108223454D01*
X152758425Y-108204158D01*
X152628494Y-108018597D01*
X152461402Y-107851506D01*
X152461395Y-107851501D01*
X152267834Y-107715967D01*
X152267830Y-107715965D01*
X152196727Y-107682809D01*
X152053663Y-107616097D01*
X152053659Y-107616096D01*
X152053655Y-107616094D01*
X151825413Y-107554938D01*
X151825403Y-107554936D01*
X151590001Y-107534341D01*
X151589999Y-107534341D01*
X151354596Y-107554936D01*
X151354586Y-107554938D01*
X151126344Y-107616094D01*
X151126335Y-107616098D01*
X150912171Y-107715964D01*
X150912169Y-107715965D01*
X150718600Y-107851503D01*
X150596284Y-107973819D01*
X150534961Y-108007303D01*
X150465269Y-108002319D01*
X150409336Y-107960447D01*
X150392421Y-107929470D01*
X150343354Y-107797913D01*
X150343350Y-107797906D01*
X150257190Y-107682812D01*
X150257187Y-107682809D01*
X150142093Y-107596649D01*
X150142086Y-107596645D01*
X150007379Y-107546403D01*
X150007372Y-107546401D01*
X149947844Y-107540000D01*
X149300000Y-107540000D01*
X149300000Y-108445439D01*
X149246853Y-108414755D01*
X149117143Y-108380000D01*
X148982857Y-108380000D01*
X148853147Y-108414755D01*
X148800000Y-108445439D01*
X148800000Y-107540000D01*
X148152155Y-107540000D01*
X148092627Y-107546401D01*
X148092620Y-107546403D01*
X147957913Y-107596645D01*
X147957906Y-107596649D01*
X147842812Y-107682809D01*
X147842809Y-107682812D01*
X147756649Y-107797906D01*
X147756645Y-107797913D01*
X147707578Y-107929470D01*
X147665707Y-107985404D01*
X147600242Y-108009821D01*
X147531969Y-107994969D01*
X147503715Y-107973819D01*
X147458977Y-107929081D01*
X147381401Y-107851505D01*
X147381397Y-107851502D01*
X147381396Y-107851501D01*
X147187834Y-107715967D01*
X147187830Y-107715965D01*
X147116727Y-107682809D01*
X146973663Y-107616097D01*
X146973659Y-107616096D01*
X146973655Y-107616094D01*
X146745413Y-107554938D01*
X146745403Y-107554936D01*
X146510001Y-107534341D01*
X146509999Y-107534341D01*
X146274596Y-107554936D01*
X146274586Y-107554938D01*
X146146243Y-107589327D01*
X146076393Y-107587664D01*
X146026469Y-107557233D01*
X143707590Y-105238355D01*
X143707588Y-105238352D01*
X143588717Y-105119481D01*
X143588716Y-105119480D01*
X143501904Y-105069360D01*
X143501904Y-105069359D01*
X143501900Y-105069358D01*
X143451785Y-105040423D01*
X143299057Y-104999499D01*
X143140943Y-104999499D01*
X143133347Y-104999499D01*
X143133331Y-104999500D01*
X116735223Y-104999500D01*
X116668184Y-104979815D01*
X116647542Y-104963181D01*
X114109358Y-102424997D01*
X149714723Y-102424997D01*
X149714723Y-102425002D01*
X149733793Y-102642975D01*
X149733793Y-102642979D01*
X149790422Y-102854322D01*
X149790424Y-102854326D01*
X149790425Y-102854330D01*
X149836661Y-102953484D01*
X149882897Y-103052638D01*
X149882898Y-103052639D01*
X150008402Y-103231877D01*
X150163123Y-103386598D01*
X150342361Y-103512102D01*
X150540670Y-103604575D01*
X150752023Y-103661207D01*
X150934926Y-103677208D01*
X150969998Y-103680277D01*
X150970000Y-103680277D01*
X150970002Y-103680277D01*
X150998254Y-103677805D01*
X151187977Y-103661207D01*
X151399330Y-103604575D01*
X151597639Y-103512102D01*
X151776877Y-103386598D01*
X151931598Y-103231877D01*
X152057102Y-103052639D01*
X152149575Y-102854330D01*
X152184231Y-102724993D01*
X152594700Y-102724993D01*
X152594700Y-102725006D01*
X152613864Y-102956297D01*
X152613866Y-102956308D01*
X152670842Y-103181300D01*
X152764075Y-103393848D01*
X152891016Y-103588147D01*
X152891019Y-103588151D01*
X152891021Y-103588153D01*
X153048216Y-103758913D01*
X153048219Y-103758915D01*
X153048222Y-103758918D01*
X153231365Y-103901464D01*
X153231371Y-103901468D01*
X153231374Y-103901470D01*
X153435497Y-104011936D01*
X153549487Y-104051068D01*
X153655015Y-104087297D01*
X153655017Y-104087297D01*
X153655019Y-104087298D01*
X153883951Y-104125500D01*
X153883952Y-104125500D01*
X154116048Y-104125500D01*
X154116049Y-104125500D01*
X154344981Y-104087298D01*
X154564503Y-104011936D01*
X154768626Y-103901470D01*
X154802557Y-103875061D01*
X154881130Y-103813905D01*
X154951784Y-103758913D01*
X155108979Y-103588153D01*
X155235924Y-103393849D01*
X155329157Y-103181300D01*
X155386134Y-102956305D01*
X155386135Y-102956297D01*
X155405300Y-102725006D01*
X155405300Y-102724993D01*
X155386135Y-102493702D01*
X155386133Y-102493691D01*
X155329157Y-102268699D01*
X155235924Y-102056151D01*
X155108983Y-101861852D01*
X155108980Y-101861849D01*
X155108979Y-101861847D01*
X154951784Y-101691087D01*
X154951779Y-101691083D01*
X154951777Y-101691081D01*
X154768634Y-101548535D01*
X154768628Y-101548531D01*
X154564504Y-101438064D01*
X154564495Y-101438061D01*
X154344984Y-101362702D01*
X154173282Y-101334050D01*
X154116049Y-101324500D01*
X153883951Y-101324500D01*
X153838164Y-101332140D01*
X153655015Y-101362702D01*
X153435504Y-101438061D01*
X153435495Y-101438064D01*
X153231371Y-101548531D01*
X153231365Y-101548535D01*
X153048222Y-101691081D01*
X153048219Y-101691084D01*
X152891016Y-101861852D01*
X152764075Y-102056151D01*
X152670842Y-102268699D01*
X152613866Y-102493691D01*
X152613864Y-102493702D01*
X152594700Y-102724993D01*
X152184231Y-102724993D01*
X152206207Y-102642977D01*
X152225277Y-102425000D01*
X152206207Y-102207023D01*
X152149575Y-101995670D01*
X152057102Y-101797362D01*
X152057100Y-101797359D01*
X152057099Y-101797357D01*
X151931599Y-101618124D01*
X151860148Y-101546673D01*
X151776877Y-101463402D01*
X151628811Y-101359725D01*
X151597638Y-101337897D01*
X151481561Y-101283770D01*
X151399330Y-101245425D01*
X151399326Y-101245424D01*
X151399322Y-101245422D01*
X151187977Y-101188793D01*
X150970002Y-101169723D01*
X150969998Y-101169723D01*
X150824682Y-101182436D01*
X150752023Y-101188793D01*
X150752020Y-101188793D01*
X150540677Y-101245422D01*
X150540668Y-101245426D01*
X150342361Y-101337898D01*
X150342357Y-101337900D01*
X150163121Y-101463402D01*
X150008402Y-101618121D01*
X149882900Y-101797357D01*
X149882898Y-101797361D01*
X149790426Y-101995668D01*
X149790422Y-101995677D01*
X149733793Y-102207020D01*
X149733793Y-102207024D01*
X149714723Y-102424997D01*
X114109358Y-102424997D01*
X108828263Y-97143902D01*
X108794778Y-97082579D01*
X108792726Y-97070123D01*
X108782931Y-96983182D01*
X108723352Y-96812915D01*
X108627379Y-96660175D01*
X108499825Y-96532621D01*
X108444309Y-96497738D01*
X108347086Y-96436648D01*
X108176817Y-96377068D01*
X108176812Y-96377067D01*
X107997567Y-96356872D01*
X107997559Y-96356872D01*
X107818313Y-96377067D01*
X107818308Y-96377068D01*
X107648039Y-96436648D01*
X107495302Y-96532620D01*
X107366881Y-96661041D01*
X107305558Y-96694525D01*
X107235866Y-96689541D01*
X107179933Y-96647669D01*
X107177625Y-96644482D01*
X107138494Y-96588597D01*
X106971402Y-96421506D01*
X106971395Y-96421501D01*
X106777834Y-96285967D01*
X106777830Y-96285965D01*
X106777828Y-96285964D01*
X106563663Y-96186097D01*
X106563659Y-96186096D01*
X106563655Y-96186094D01*
X106335413Y-96124938D01*
X106335403Y-96124936D01*
X106100001Y-96104341D01*
X106099999Y-96104341D01*
X105864596Y-96124936D01*
X105864586Y-96124938D01*
X105636344Y-96186094D01*
X105636335Y-96186098D01*
X105422171Y-96285964D01*
X105422169Y-96285965D01*
X105228597Y-96421505D01*
X105061505Y-96588597D01*
X104925965Y-96782169D01*
X104925964Y-96782171D01*
X104826098Y-96996335D01*
X104826094Y-96996344D01*
X104764938Y-97224586D01*
X104764936Y-97224596D01*
X104744341Y-97459999D01*
X104744341Y-97460000D01*
X104764936Y-97695403D01*
X104764938Y-97695413D01*
X104826094Y-97923655D01*
X104826096Y-97923659D01*
X104826097Y-97923663D01*
X104868669Y-98014959D01*
X104925965Y-98137830D01*
X104925967Y-98137834D01*
X104972340Y-98204061D01*
X105061501Y-98331396D01*
X105061506Y-98331402D01*
X105183430Y-98453326D01*
X105216915Y-98514649D01*
X105211931Y-98584341D01*
X105170059Y-98640274D01*
X105139083Y-98657189D01*
X105007669Y-98706203D01*
X105007664Y-98706206D01*
X104892455Y-98792452D01*
X104892452Y-98792455D01*
X104806206Y-98907664D01*
X104806202Y-98907671D01*
X104755908Y-99042517D01*
X104751867Y-99080111D01*
X104749501Y-99102123D01*
X104749500Y-99102135D01*
X104749500Y-100897870D01*
X104749501Y-100897876D01*
X104755908Y-100957483D01*
X104806202Y-101092328D01*
X104806206Y-101092335D01*
X104892452Y-101207544D01*
X104892455Y-101207547D01*
X105007664Y-101293793D01*
X105007671Y-101293797D01*
X105139081Y-101342810D01*
X105195015Y-101384681D01*
X105219432Y-101450145D01*
X105204580Y-101518418D01*
X105183430Y-101546673D01*
X105061503Y-101668600D01*
X104925965Y-101862169D01*
X104925964Y-101862171D01*
X104826098Y-102076335D01*
X104826094Y-102076344D01*
X104764938Y-102304586D01*
X104764936Y-102304596D01*
X104744341Y-102539999D01*
X104744341Y-102540000D01*
X104764936Y-102775403D01*
X104764938Y-102775413D01*
X104826094Y-103003655D01*
X104826096Y-103003659D01*
X104826097Y-103003663D01*
X104848935Y-103052639D01*
X104925965Y-103217830D01*
X104925967Y-103217834D01*
X105004999Y-103330702D01*
X105061505Y-103411401D01*
X105228599Y-103578495D01*
X105265848Y-103604577D01*
X105422165Y-103714032D01*
X105422167Y-103714033D01*
X105422170Y-103714035D01*
X105636337Y-103813903D01*
X105864592Y-103875063D01*
X106052918Y-103891539D01*
X106099999Y-103895659D01*
X106100000Y-103895659D01*
X106100001Y-103895659D01*
X106139234Y-103892226D01*
X106335408Y-103875063D01*
X106563663Y-103813903D01*
X106777830Y-103714035D01*
X106971401Y-103578495D01*
X107138495Y-103411401D01*
X107274035Y-103217830D01*
X107373903Y-103003663D01*
X107435063Y-102775408D01*
X107455659Y-102540000D01*
X107435063Y-102304592D01*
X107373903Y-102076337D01*
X107274035Y-101862171D01*
X107273808Y-101861847D01*
X107138496Y-101668600D01*
X107088017Y-101618121D01*
X107016567Y-101546671D01*
X106983084Y-101485351D01*
X106988068Y-101415659D01*
X107029939Y-101359725D01*
X107060915Y-101342810D01*
X107192331Y-101293796D01*
X107307546Y-101207546D01*
X107393796Y-101092331D01*
X107444091Y-100957483D01*
X107450500Y-100897873D01*
X107450499Y-99102128D01*
X107444091Y-99042517D01*
X107425911Y-98993775D01*
X107393797Y-98907671D01*
X107393793Y-98907664D01*
X107307547Y-98792455D01*
X107307544Y-98792452D01*
X107192335Y-98706206D01*
X107192328Y-98706202D01*
X107060917Y-98657189D01*
X107004983Y-98615318D01*
X106980566Y-98549853D01*
X106995418Y-98481580D01*
X107016563Y-98453332D01*
X107138495Y-98331401D01*
X107274035Y-98137830D01*
X107373903Y-97923663D01*
X107378047Y-97908195D01*
X107414410Y-97848534D01*
X107477256Y-97818003D01*
X107546631Y-97826295D01*
X107563795Y-97835291D01*
X107585250Y-97848772D01*
X107648041Y-97888226D01*
X107818308Y-97947805D01*
X107905232Y-97957598D01*
X107969643Y-97984663D01*
X107979028Y-97993137D01*
X115173710Y-105187819D01*
X115207195Y-105249142D01*
X115202211Y-105318834D01*
X115160339Y-105374767D01*
X115094875Y-105399184D01*
X115086029Y-105399500D01*
X103010097Y-105399500D01*
X102943058Y-105379815D01*
X102922416Y-105363181D01*
X100343337Y-102784102D01*
X100309852Y-102722779D01*
X100310811Y-102665983D01*
X100349018Y-102515111D01*
X100366462Y-102304592D01*
X100367671Y-102290005D01*
X100367671Y-102289994D01*
X100349967Y-102076344D01*
X100349018Y-102064889D01*
X100293567Y-101845918D01*
X100202831Y-101639061D01*
X100143685Y-101548531D01*
X100079284Y-101449957D01*
X99926301Y-101283775D01*
X99926298Y-101283772D01*
X99877031Y-101245426D01*
X99873725Y-101242852D01*
X99832913Y-101186143D01*
X99829238Y-101116370D01*
X99863870Y-101055687D01*
X99873725Y-101047147D01*
X99926298Y-101006228D01*
X100079285Y-100840041D01*
X100202831Y-100650939D01*
X100293567Y-100444082D01*
X100349018Y-100225111D01*
X100357308Y-100125061D01*
X100367671Y-100000005D01*
X100367671Y-99999994D01*
X100349018Y-99774892D01*
X100349018Y-99774889D01*
X100293567Y-99555918D01*
X100202831Y-99349061D01*
X100079285Y-99159959D01*
X100079284Y-99159957D01*
X99926301Y-98993775D01*
X99926298Y-98993772D01*
X99926295Y-98993770D01*
X99873725Y-98952852D01*
X99832913Y-98896143D01*
X99829238Y-98826370D01*
X99863870Y-98765687D01*
X99873725Y-98757147D01*
X99926298Y-98716228D01*
X100079285Y-98550041D01*
X100202831Y-98360939D01*
X100293567Y-98154082D01*
X100349018Y-97935111D01*
X100360795Y-97792979D01*
X100367671Y-97710005D01*
X100367671Y-97709994D01*
X100350793Y-97506308D01*
X100349018Y-97484889D01*
X100293567Y-97265918D01*
X100202831Y-97059061D01*
X100129854Y-96947361D01*
X100079284Y-96869957D01*
X99926301Y-96703775D01*
X99926298Y-96703772D01*
X99908014Y-96689541D01*
X99873725Y-96662852D01*
X99832913Y-96606143D01*
X99829238Y-96536370D01*
X99863870Y-96475687D01*
X99873725Y-96467147D01*
X99926298Y-96426228D01*
X100079285Y-96260041D01*
X100202831Y-96070939D01*
X100293567Y-95864082D01*
X100349018Y-95645111D01*
X100360526Y-95506229D01*
X100367671Y-95420005D01*
X100367671Y-95419994D01*
X100349018Y-95194892D01*
X100349018Y-95194889D01*
X100303449Y-95014940D01*
X100306074Y-94945120D01*
X100346031Y-94887802D01*
X100410632Y-94861186D01*
X100423655Y-94860500D01*
X105361241Y-94860500D01*
X105428280Y-94880185D01*
X105438556Y-94887555D01*
X105441389Y-94889814D01*
X105441391Y-94889816D01*
X105594131Y-94985789D01*
X105677440Y-95014940D01*
X105764398Y-95045368D01*
X105764403Y-95045369D01*
X105943649Y-95065565D01*
X105943653Y-95065565D01*
X105943657Y-95065565D01*
X106122902Y-95045369D01*
X106122905Y-95045368D01*
X106122908Y-95045368D01*
X106293175Y-94985789D01*
X106445915Y-94889816D01*
X106573469Y-94762262D01*
X106669442Y-94609522D01*
X106729021Y-94439255D01*
X106749218Y-94260000D01*
X106734590Y-94130173D01*
X106729022Y-94080750D01*
X106729021Y-94080745D01*
X106669441Y-93910476D01*
X106631738Y-93850472D01*
X106612738Y-93783235D01*
X106633106Y-93716400D01*
X106686374Y-93671186D01*
X106736732Y-93660500D01*
X111759903Y-93660500D01*
X111826942Y-93680185D01*
X111847584Y-93696819D01*
X115169298Y-97018533D01*
X115202783Y-97079856D01*
X115204837Y-97092330D01*
X115214630Y-97179249D01*
X115274210Y-97349521D01*
X115309096Y-97405041D01*
X115370184Y-97502262D01*
X115497738Y-97629816D01*
X115588080Y-97686582D01*
X115648074Y-97724279D01*
X115650478Y-97725789D01*
X115666228Y-97731300D01*
X115820745Y-97785368D01*
X115820750Y-97785369D01*
X115999996Y-97805565D01*
X116000000Y-97805565D01*
X116000004Y-97805565D01*
X116179249Y-97785369D01*
X116179252Y-97785368D01*
X116179255Y-97785368D01*
X116349522Y-97725789D01*
X116502262Y-97629816D01*
X116629816Y-97502262D01*
X116725789Y-97349522D01*
X116785368Y-97179255D01*
X116785369Y-97179249D01*
X116805565Y-97000003D01*
X116805565Y-96999996D01*
X121194435Y-96999996D01*
X121194435Y-97000003D01*
X121214630Y-97179249D01*
X121214631Y-97179254D01*
X121274211Y-97349523D01*
X121309096Y-97405041D01*
X121370184Y-97502262D01*
X121497738Y-97629816D01*
X121588080Y-97686582D01*
X121648074Y-97724279D01*
X121650478Y-97725789D01*
X121666228Y-97731300D01*
X121820745Y-97785368D01*
X121820750Y-97785369D01*
X121999996Y-97805565D01*
X122000000Y-97805565D01*
X122000004Y-97805565D01*
X122179249Y-97785369D01*
X122179252Y-97785368D01*
X122179255Y-97785368D01*
X122349522Y-97725789D01*
X122502262Y-97629816D01*
X122502267Y-97629810D01*
X122505097Y-97627555D01*
X122507275Y-97626665D01*
X122508158Y-97626111D01*
X122508255Y-97626265D01*
X122569783Y-97601145D01*
X122582412Y-97600500D01*
X136417588Y-97600500D01*
X136484627Y-97620185D01*
X136494903Y-97627555D01*
X136497736Y-97629814D01*
X136497738Y-97629816D01*
X136602119Y-97695403D01*
X136648074Y-97724279D01*
X136650478Y-97725789D01*
X136666228Y-97731300D01*
X136820745Y-97785368D01*
X136820750Y-97785369D01*
X136999996Y-97805565D01*
X137000000Y-97805565D01*
X137000004Y-97805565D01*
X137179249Y-97785369D01*
X137179252Y-97785368D01*
X137179255Y-97785368D01*
X137349522Y-97725789D01*
X137502262Y-97629816D01*
X137557081Y-97574997D01*
X149714723Y-97574997D01*
X149714723Y-97575002D01*
X149719519Y-97629816D01*
X149733127Y-97785369D01*
X149733793Y-97792975D01*
X149733793Y-97792979D01*
X149790422Y-98004322D01*
X149790424Y-98004326D01*
X149790425Y-98004330D01*
X149836661Y-98103484D01*
X149882897Y-98202638D01*
X149907998Y-98238486D01*
X150008402Y-98381877D01*
X150163123Y-98536598D01*
X150342361Y-98662102D01*
X150540670Y-98754575D01*
X150540676Y-98754576D01*
X150540677Y-98754577D01*
X150571364Y-98762799D01*
X150752023Y-98811207D01*
X150925342Y-98826370D01*
X150969998Y-98830277D01*
X150970000Y-98830277D01*
X150970002Y-98830277D01*
X150998254Y-98827805D01*
X151187977Y-98811207D01*
X151399330Y-98754575D01*
X151597639Y-98662102D01*
X151776877Y-98536598D01*
X151931598Y-98381877D01*
X152057102Y-98202639D01*
X152149575Y-98004330D01*
X152206207Y-97792977D01*
X152225277Y-97575000D01*
X152206207Y-97357023D01*
X152184227Y-97274993D01*
X152594700Y-97274993D01*
X152594700Y-97275006D01*
X152613864Y-97506297D01*
X152613866Y-97506308D01*
X152670842Y-97731300D01*
X152764075Y-97943848D01*
X152891016Y-98138147D01*
X152891019Y-98138151D01*
X152891021Y-98138153D01*
X153048216Y-98308913D01*
X153048219Y-98308915D01*
X153048222Y-98308918D01*
X153231365Y-98451464D01*
X153231371Y-98451468D01*
X153231374Y-98451470D01*
X153435497Y-98561936D01*
X153500761Y-98584341D01*
X153655015Y-98637297D01*
X153655017Y-98637297D01*
X153655019Y-98637298D01*
X153883951Y-98675500D01*
X153883952Y-98675500D01*
X154116048Y-98675500D01*
X154116049Y-98675500D01*
X154344981Y-98637298D01*
X154564503Y-98561936D01*
X154768626Y-98451470D01*
X154951784Y-98308913D01*
X155108979Y-98138153D01*
X155235924Y-97943849D01*
X155329157Y-97731300D01*
X155386134Y-97506305D01*
X155386469Y-97502262D01*
X155405300Y-97275006D01*
X155405300Y-97274993D01*
X155386135Y-97043702D01*
X155386133Y-97043691D01*
X155329157Y-96818699D01*
X155235924Y-96606151D01*
X155108983Y-96411852D01*
X155108980Y-96411849D01*
X155108979Y-96411847D01*
X154951784Y-96241087D01*
X154951779Y-96241083D01*
X154951777Y-96241081D01*
X154768634Y-96098535D01*
X154768628Y-96098531D01*
X154564504Y-95988064D01*
X154564495Y-95988061D01*
X154344984Y-95912702D01*
X154173282Y-95884050D01*
X154116049Y-95874500D01*
X153883951Y-95874500D01*
X153838164Y-95882140D01*
X153655015Y-95912702D01*
X153435504Y-95988061D01*
X153435495Y-95988064D01*
X153231371Y-96098531D01*
X153231365Y-96098535D01*
X153048222Y-96241081D01*
X153048219Y-96241084D01*
X152891016Y-96411852D01*
X152764075Y-96606151D01*
X152670842Y-96818699D01*
X152613866Y-97043691D01*
X152613864Y-97043702D01*
X152594700Y-97274993D01*
X152184227Y-97274993D01*
X152158574Y-97179254D01*
X152149577Y-97145677D01*
X152149576Y-97145676D01*
X152149575Y-97145670D01*
X152057102Y-96947362D01*
X152057100Y-96947359D01*
X152057099Y-96947357D01*
X151931599Y-96768124D01*
X151858000Y-96694525D01*
X151776877Y-96613402D01*
X151597639Y-96487898D01*
X151597640Y-96487898D01*
X151597638Y-96487897D01*
X151465385Y-96426227D01*
X151399330Y-96395425D01*
X151399326Y-96395424D01*
X151399322Y-96395422D01*
X151187977Y-96338793D01*
X150970002Y-96319723D01*
X150969998Y-96319723D01*
X150824682Y-96332436D01*
X150752023Y-96338793D01*
X150752020Y-96338793D01*
X150540677Y-96395422D01*
X150540668Y-96395426D01*
X150342361Y-96487898D01*
X150342357Y-96487900D01*
X150163121Y-96613402D01*
X150008402Y-96768121D01*
X149882900Y-96947357D01*
X149882898Y-96947361D01*
X149790426Y-97145668D01*
X149790422Y-97145677D01*
X149733793Y-97357020D01*
X149733793Y-97357024D01*
X149714723Y-97574997D01*
X137557081Y-97574997D01*
X137629816Y-97502262D01*
X137725789Y-97349522D01*
X137785368Y-97179255D01*
X137785369Y-97179249D01*
X137805565Y-97000003D01*
X137805565Y-96999996D01*
X137785369Y-96820750D01*
X137785368Y-96820745D01*
X137744437Y-96703772D01*
X137725789Y-96650478D01*
X137722021Y-96644482D01*
X137672100Y-96565032D01*
X137629816Y-96497738D01*
X137502262Y-96370184D01*
X137368232Y-96285967D01*
X137349523Y-96274211D01*
X137179254Y-96214631D01*
X137179249Y-96214630D01*
X137000004Y-96194435D01*
X136999996Y-96194435D01*
X136820750Y-96214630D01*
X136820745Y-96214631D01*
X136650476Y-96274211D01*
X136497736Y-96370185D01*
X136494903Y-96372445D01*
X136492724Y-96373334D01*
X136491842Y-96373889D01*
X136491744Y-96373734D01*
X136430217Y-96398855D01*
X136417588Y-96399500D01*
X122582412Y-96399500D01*
X122515373Y-96379815D01*
X122505097Y-96372445D01*
X122502263Y-96370185D01*
X122502262Y-96370184D01*
X122368232Y-96285967D01*
X122349523Y-96274211D01*
X122179254Y-96214631D01*
X122179249Y-96214630D01*
X122000004Y-96194435D01*
X121999996Y-96194435D01*
X121820750Y-96214630D01*
X121820745Y-96214631D01*
X121650476Y-96274211D01*
X121497737Y-96370184D01*
X121370184Y-96497737D01*
X121274211Y-96650476D01*
X121214631Y-96820745D01*
X121214630Y-96820750D01*
X121194435Y-96999996D01*
X116805565Y-96999996D01*
X116785369Y-96820750D01*
X116785368Y-96820745D01*
X116744437Y-96703772D01*
X116725789Y-96650478D01*
X116722021Y-96644482D01*
X116672100Y-96565032D01*
X116629816Y-96497738D01*
X116502262Y-96370184D01*
X116368232Y-96285967D01*
X116349521Y-96274210D01*
X116179249Y-96214630D01*
X116092330Y-96204837D01*
X116027916Y-96177770D01*
X116018533Y-96169298D01*
X113321416Y-93472181D01*
X113287931Y-93410858D01*
X113292915Y-93341166D01*
X113334787Y-93285233D01*
X113400251Y-93260816D01*
X113409097Y-93260500D01*
X132173331Y-93260500D01*
X132173347Y-93260501D01*
X132180943Y-93260501D01*
X132339054Y-93260501D01*
X132339057Y-93260501D01*
X132491785Y-93219577D01*
X132561233Y-93179481D01*
X132628716Y-93140520D01*
X132740520Y-93028716D01*
X132740520Y-93028714D01*
X132750724Y-93018511D01*
X132750728Y-93018506D01*
X133326470Y-92442763D01*
X133387791Y-92409280D01*
X133446238Y-92410670D01*
X133574592Y-92445063D01*
X133745319Y-92460000D01*
X133809999Y-92465659D01*
X133810000Y-92465659D01*
X133810001Y-92465659D01*
X133874681Y-92460000D01*
X134045408Y-92445063D01*
X134273663Y-92383903D01*
X134487830Y-92284035D01*
X134681401Y-92148495D01*
X134803717Y-92026178D01*
X134865036Y-91992696D01*
X134934728Y-91997680D01*
X134990662Y-92039551D01*
X135007577Y-92070528D01*
X135056646Y-92202088D01*
X135056649Y-92202093D01*
X135142809Y-92317187D01*
X135142812Y-92317190D01*
X135257906Y-92403350D01*
X135257913Y-92403354D01*
X135392620Y-92453596D01*
X135392627Y-92453598D01*
X135452155Y-92459999D01*
X135452172Y-92460000D01*
X136100000Y-92460000D01*
X136100000Y-91554560D01*
X136153147Y-91585245D01*
X136282857Y-91620000D01*
X136417143Y-91620000D01*
X136546853Y-91585245D01*
X136600000Y-91554560D01*
X136600000Y-92460000D01*
X137247828Y-92460000D01*
X137247844Y-92459999D01*
X137307372Y-92453598D01*
X137307379Y-92453596D01*
X137442086Y-92403354D01*
X137442093Y-92403350D01*
X137557187Y-92317190D01*
X137557190Y-92317187D01*
X137643350Y-92202093D01*
X137643354Y-92202086D01*
X137692422Y-92070529D01*
X137734293Y-92014595D01*
X137799757Y-91990178D01*
X137868030Y-92005030D01*
X137896285Y-92026181D01*
X138018599Y-92148495D01*
X138095135Y-92202086D01*
X138212165Y-92284032D01*
X138212167Y-92284033D01*
X138212170Y-92284035D01*
X138426337Y-92383903D01*
X138654592Y-92445063D01*
X138825319Y-92460000D01*
X138889999Y-92465659D01*
X138890000Y-92465659D01*
X138890001Y-92465659D01*
X138954681Y-92460000D01*
X139125408Y-92445063D01*
X139353663Y-92383903D01*
X139567830Y-92284035D01*
X139761401Y-92148495D01*
X139928495Y-91981401D01*
X140058425Y-91795842D01*
X140113002Y-91752217D01*
X140182500Y-91745023D01*
X140244855Y-91776546D01*
X140261575Y-91795842D01*
X140391500Y-91981395D01*
X140391505Y-91981401D01*
X140558599Y-92148495D01*
X140635135Y-92202086D01*
X140752165Y-92284032D01*
X140752167Y-92284033D01*
X140752170Y-92284035D01*
X140966337Y-92383903D01*
X141194592Y-92445063D01*
X141365319Y-92460000D01*
X141429999Y-92465659D01*
X141430000Y-92465659D01*
X141430001Y-92465659D01*
X141494681Y-92460000D01*
X141665408Y-92445063D01*
X141893663Y-92383903D01*
X142107830Y-92284035D01*
X142301401Y-92148495D01*
X142468495Y-91981401D01*
X142598425Y-91795842D01*
X142653002Y-91752217D01*
X142722500Y-91745023D01*
X142784855Y-91776546D01*
X142801575Y-91795842D01*
X142931500Y-91981395D01*
X142931505Y-91981401D01*
X143098599Y-92148495D01*
X143175135Y-92202086D01*
X143292165Y-92284032D01*
X143292167Y-92284033D01*
X143292170Y-92284035D01*
X143506337Y-92383903D01*
X143734592Y-92445063D01*
X143905319Y-92460000D01*
X143969999Y-92465659D01*
X143970000Y-92465659D01*
X143970001Y-92465659D01*
X144034681Y-92460000D01*
X144205408Y-92445063D01*
X144433663Y-92383903D01*
X144647830Y-92284035D01*
X144841401Y-92148495D01*
X145008495Y-91981401D01*
X145138425Y-91795842D01*
X145193002Y-91752217D01*
X145262500Y-91745023D01*
X145324855Y-91776546D01*
X145341575Y-91795842D01*
X145471500Y-91981395D01*
X145471505Y-91981401D01*
X145638599Y-92148495D01*
X145715135Y-92202086D01*
X145832165Y-92284032D01*
X145832167Y-92284033D01*
X145832170Y-92284035D01*
X146046337Y-92383903D01*
X146274592Y-92445063D01*
X146445319Y-92460000D01*
X146509999Y-92465659D01*
X146510000Y-92465659D01*
X146510001Y-92465659D01*
X146574681Y-92460000D01*
X146745408Y-92445063D01*
X146973663Y-92383903D01*
X147187830Y-92284035D01*
X147381401Y-92148495D01*
X147503717Y-92026178D01*
X147565036Y-91992696D01*
X147634728Y-91997680D01*
X147690662Y-92039551D01*
X147707577Y-92070528D01*
X147756646Y-92202088D01*
X147756649Y-92202093D01*
X147842809Y-92317187D01*
X147842812Y-92317190D01*
X147957906Y-92403350D01*
X147957913Y-92403354D01*
X148092620Y-92453596D01*
X148092627Y-92453598D01*
X148152155Y-92459999D01*
X148152172Y-92460000D01*
X148800000Y-92460000D01*
X148800000Y-91554560D01*
X148853147Y-91585245D01*
X148982857Y-91620000D01*
X149117143Y-91620000D01*
X149246853Y-91585245D01*
X149300000Y-91554560D01*
X149300000Y-92460000D01*
X149947828Y-92460000D01*
X149947844Y-92459999D01*
X150007372Y-92453598D01*
X150007379Y-92453596D01*
X150142086Y-92403354D01*
X150142093Y-92403350D01*
X150257187Y-92317190D01*
X150257190Y-92317187D01*
X150343350Y-92202093D01*
X150343354Y-92202086D01*
X150392422Y-92070529D01*
X150434293Y-92014595D01*
X150499757Y-91990178D01*
X150568030Y-92005030D01*
X150596285Y-92026181D01*
X150718599Y-92148495D01*
X150795135Y-92202086D01*
X150912165Y-92284032D01*
X150912167Y-92284033D01*
X150912170Y-92284035D01*
X151126337Y-92383903D01*
X151354592Y-92445063D01*
X151525319Y-92460000D01*
X151589999Y-92465659D01*
X151590000Y-92465659D01*
X151590001Y-92465659D01*
X151654681Y-92460000D01*
X151825408Y-92445063D01*
X152053663Y-92383903D01*
X152267830Y-92284035D01*
X152461401Y-92148495D01*
X152628495Y-91981401D01*
X152758425Y-91795842D01*
X152813002Y-91752217D01*
X152882500Y-91745023D01*
X152944855Y-91776546D01*
X152961575Y-91795842D01*
X153091500Y-91981395D01*
X153091505Y-91981401D01*
X153258599Y-92148495D01*
X153335135Y-92202086D01*
X153452165Y-92284032D01*
X153452167Y-92284033D01*
X153452170Y-92284035D01*
X153666337Y-92383903D01*
X153894592Y-92445063D01*
X154065319Y-92460000D01*
X154129999Y-92465659D01*
X154130000Y-92465659D01*
X154130001Y-92465659D01*
X154194681Y-92460000D01*
X154365408Y-92445063D01*
X154593663Y-92383903D01*
X154807830Y-92284035D01*
X155001401Y-92148495D01*
X155168495Y-91981401D01*
X155304035Y-91787830D01*
X155403903Y-91573663D01*
X155465063Y-91345408D01*
X155485659Y-91110000D01*
X155465063Y-90874592D01*
X155403903Y-90646337D01*
X155304035Y-90432171D01*
X155298425Y-90424158D01*
X155168494Y-90238597D01*
X155001402Y-90071506D01*
X155001395Y-90071501D01*
X154807834Y-89935967D01*
X154807830Y-89935965D01*
X154725597Y-89897619D01*
X154593663Y-89836097D01*
X154593659Y-89836096D01*
X154593655Y-89836094D01*
X154365413Y-89774938D01*
X154365403Y-89774936D01*
X154130001Y-89754341D01*
X154129999Y-89754341D01*
X153894596Y-89774936D01*
X153894586Y-89774938D01*
X153666344Y-89836094D01*
X153666335Y-89836098D01*
X153452171Y-89935964D01*
X153452169Y-89935965D01*
X153258597Y-90071505D01*
X153091505Y-90238597D01*
X152961575Y-90424158D01*
X152906998Y-90467783D01*
X152837500Y-90474977D01*
X152775145Y-90443454D01*
X152758425Y-90424158D01*
X152628494Y-90238597D01*
X152461402Y-90071506D01*
X152461395Y-90071501D01*
X152267834Y-89935967D01*
X152267830Y-89935965D01*
X152185597Y-89897619D01*
X152053663Y-89836097D01*
X152053659Y-89836096D01*
X152053655Y-89836094D01*
X151825413Y-89774938D01*
X151825403Y-89774936D01*
X151590001Y-89754341D01*
X151589999Y-89754341D01*
X151354596Y-89774936D01*
X151354586Y-89774938D01*
X151126344Y-89836094D01*
X151126335Y-89836098D01*
X150912171Y-89935964D01*
X150912169Y-89935965D01*
X150718600Y-90071503D01*
X150596284Y-90193819D01*
X150534961Y-90227303D01*
X150465269Y-90222319D01*
X150409336Y-90180447D01*
X150392421Y-90149470D01*
X150343354Y-90017913D01*
X150343350Y-90017906D01*
X150257190Y-89902812D01*
X150257187Y-89902809D01*
X150142093Y-89816649D01*
X150142086Y-89816645D01*
X150007379Y-89766403D01*
X150007372Y-89766401D01*
X149947844Y-89760000D01*
X149300000Y-89760000D01*
X149300000Y-90665439D01*
X149246853Y-90634755D01*
X149117143Y-90600000D01*
X148982857Y-90600000D01*
X148853147Y-90634755D01*
X148800000Y-90665439D01*
X148800000Y-89760000D01*
X148152155Y-89760000D01*
X148092627Y-89766401D01*
X148092620Y-89766403D01*
X147957913Y-89816645D01*
X147957906Y-89816649D01*
X147842812Y-89902809D01*
X147842809Y-89902812D01*
X147756649Y-90017906D01*
X147756645Y-90017913D01*
X147707578Y-90149470D01*
X147665707Y-90205404D01*
X147600242Y-90229821D01*
X147531969Y-90214969D01*
X147503715Y-90193819D01*
X147459366Y-90149470D01*
X147381401Y-90071505D01*
X147381397Y-90071502D01*
X147381396Y-90071501D01*
X147187834Y-89935967D01*
X147187830Y-89935965D01*
X147105597Y-89897619D01*
X146973663Y-89836097D01*
X146973659Y-89836096D01*
X146973655Y-89836094D01*
X146745413Y-89774938D01*
X146745403Y-89774936D01*
X146510001Y-89754341D01*
X146509999Y-89754341D01*
X146274596Y-89774936D01*
X146274586Y-89774938D01*
X146046344Y-89836094D01*
X146046335Y-89836098D01*
X145832171Y-89935964D01*
X145832169Y-89935965D01*
X145638597Y-90071505D01*
X145471505Y-90238597D01*
X145341575Y-90424158D01*
X145286998Y-90467783D01*
X145217500Y-90474977D01*
X145155145Y-90443454D01*
X145138425Y-90424158D01*
X145008494Y-90238597D01*
X144841402Y-90071506D01*
X144841395Y-90071501D01*
X144647834Y-89935967D01*
X144647830Y-89935965D01*
X144565597Y-89897619D01*
X144433663Y-89836097D01*
X144433659Y-89836096D01*
X144433655Y-89836094D01*
X144205413Y-89774938D01*
X144205403Y-89774936D01*
X143970001Y-89754341D01*
X143969999Y-89754341D01*
X143734596Y-89774936D01*
X143734586Y-89774938D01*
X143506344Y-89836094D01*
X143506335Y-89836098D01*
X143292171Y-89935964D01*
X143292169Y-89935965D01*
X143098597Y-90071505D01*
X142931505Y-90238597D01*
X142801575Y-90424158D01*
X142746998Y-90467783D01*
X142677500Y-90474977D01*
X142615145Y-90443454D01*
X142598425Y-90424158D01*
X142468494Y-90238597D01*
X142301402Y-90071506D01*
X142301395Y-90071501D01*
X142107834Y-89935967D01*
X142107830Y-89935965D01*
X142025597Y-89897619D01*
X141893663Y-89836097D01*
X141893659Y-89836096D01*
X141893655Y-89836094D01*
X141665413Y-89774938D01*
X141665403Y-89774936D01*
X141430001Y-89754341D01*
X141429999Y-89754341D01*
X141194596Y-89774936D01*
X141194586Y-89774938D01*
X140966344Y-89836094D01*
X140966335Y-89836098D01*
X140752171Y-89935964D01*
X140752169Y-89935965D01*
X140558597Y-90071505D01*
X140391505Y-90238597D01*
X140261575Y-90424158D01*
X140206998Y-90467783D01*
X140137500Y-90474977D01*
X140075145Y-90443454D01*
X140058425Y-90424158D01*
X139928494Y-90238597D01*
X139761402Y-90071506D01*
X139761395Y-90071501D01*
X139567834Y-89935967D01*
X139567830Y-89935965D01*
X139485597Y-89897619D01*
X139353663Y-89836097D01*
X139353659Y-89836096D01*
X139353655Y-89836094D01*
X139125413Y-89774938D01*
X139125403Y-89774936D01*
X138890001Y-89754341D01*
X138889999Y-89754341D01*
X138654596Y-89774936D01*
X138654586Y-89774938D01*
X138426344Y-89836094D01*
X138426335Y-89836098D01*
X138212171Y-89935964D01*
X138212169Y-89935965D01*
X138018600Y-90071503D01*
X137896284Y-90193819D01*
X137834961Y-90227303D01*
X137765269Y-90222319D01*
X137709336Y-90180447D01*
X137692421Y-90149470D01*
X137643354Y-90017913D01*
X137643350Y-90017906D01*
X137557190Y-89902812D01*
X137557187Y-89902809D01*
X137442093Y-89816649D01*
X137442086Y-89816645D01*
X137307379Y-89766403D01*
X137307372Y-89766401D01*
X137247844Y-89760000D01*
X136600000Y-89760000D01*
X136600000Y-90665439D01*
X136546853Y-90634755D01*
X136417143Y-90600000D01*
X136282857Y-90600000D01*
X136153147Y-90634755D01*
X136100000Y-90665439D01*
X136100000Y-89760000D01*
X135452155Y-89760000D01*
X135392627Y-89766401D01*
X135392620Y-89766403D01*
X135257913Y-89816645D01*
X135257906Y-89816649D01*
X135142812Y-89902809D01*
X135142809Y-89902812D01*
X135056649Y-90017906D01*
X135056645Y-90017913D01*
X135007578Y-90149470D01*
X134965707Y-90205404D01*
X134900242Y-90229821D01*
X134831969Y-90214969D01*
X134803715Y-90193819D01*
X134759366Y-90149470D01*
X134681401Y-90071505D01*
X134681397Y-90071502D01*
X134681396Y-90071501D01*
X134487834Y-89935967D01*
X134487830Y-89935965D01*
X134405597Y-89897619D01*
X134273663Y-89836097D01*
X134273659Y-89836096D01*
X134273655Y-89836094D01*
X134045413Y-89774938D01*
X134045403Y-89774936D01*
X133810001Y-89754341D01*
X133809999Y-89754341D01*
X133574596Y-89774936D01*
X133574586Y-89774938D01*
X133346344Y-89836094D01*
X133346335Y-89836098D01*
X133132171Y-89935964D01*
X133132169Y-89935965D01*
X132938597Y-90071505D01*
X132771505Y-90238597D01*
X132641575Y-90424158D01*
X132586998Y-90467783D01*
X132517500Y-90474977D01*
X132455145Y-90443454D01*
X132438425Y-90424158D01*
X132308494Y-90238597D01*
X132141402Y-90071506D01*
X132141395Y-90071501D01*
X131947834Y-89935967D01*
X131947830Y-89935965D01*
X131865597Y-89897619D01*
X131733663Y-89836097D01*
X131733659Y-89836096D01*
X131733655Y-89836094D01*
X131505413Y-89774938D01*
X131505403Y-89774936D01*
X131270001Y-89754341D01*
X131269999Y-89754341D01*
X131034596Y-89774936D01*
X131034586Y-89774938D01*
X130806344Y-89836094D01*
X130806335Y-89836098D01*
X130592171Y-89935964D01*
X130592169Y-89935965D01*
X130398597Y-90071505D01*
X130231505Y-90238597D01*
X130101575Y-90424158D01*
X130046998Y-90467783D01*
X129977500Y-90474977D01*
X129915145Y-90443454D01*
X129898425Y-90424158D01*
X129768494Y-90238597D01*
X129601402Y-90071506D01*
X129601395Y-90071501D01*
X129407834Y-89935967D01*
X129407830Y-89935965D01*
X129325597Y-89897619D01*
X129193663Y-89836097D01*
X129193659Y-89836096D01*
X129193655Y-89836094D01*
X128965413Y-89774938D01*
X128965403Y-89774936D01*
X128730001Y-89754341D01*
X128729999Y-89754341D01*
X128494596Y-89774936D01*
X128494586Y-89774938D01*
X128266344Y-89836094D01*
X128266335Y-89836098D01*
X128052171Y-89935964D01*
X128052169Y-89935965D01*
X127858597Y-90071505D01*
X127691505Y-90238597D01*
X127561575Y-90424158D01*
X127506998Y-90467783D01*
X127437500Y-90474977D01*
X127375145Y-90443454D01*
X127358425Y-90424158D01*
X127228494Y-90238597D01*
X127061402Y-90071506D01*
X127061395Y-90071501D01*
X126867834Y-89935967D01*
X126867830Y-89935965D01*
X126785597Y-89897619D01*
X126653663Y-89836097D01*
X126653659Y-89836096D01*
X126653655Y-89836094D01*
X126425413Y-89774938D01*
X126425403Y-89774936D01*
X126190001Y-89754341D01*
X126189999Y-89754341D01*
X125954596Y-89774936D01*
X125954586Y-89774938D01*
X125726344Y-89836094D01*
X125726335Y-89836098D01*
X125512171Y-89935964D01*
X125512169Y-89935965D01*
X125318600Y-90071503D01*
X125196284Y-90193819D01*
X125134961Y-90227303D01*
X125065269Y-90222319D01*
X125009336Y-90180447D01*
X124992421Y-90149470D01*
X124943354Y-90017913D01*
X124943350Y-90017906D01*
X124857190Y-89902812D01*
X124857187Y-89902809D01*
X124742093Y-89816649D01*
X124742086Y-89816645D01*
X124607379Y-89766403D01*
X124607372Y-89766401D01*
X124547844Y-89760000D01*
X123900000Y-89760000D01*
X123900000Y-90665439D01*
X123846853Y-90634755D01*
X123717143Y-90600000D01*
X123582857Y-90600000D01*
X123453147Y-90634755D01*
X123400000Y-90665439D01*
X123400000Y-89760000D01*
X122752155Y-89760000D01*
X122692627Y-89766401D01*
X122692620Y-89766403D01*
X122557913Y-89816645D01*
X122557906Y-89816649D01*
X122442812Y-89902809D01*
X122442809Y-89902812D01*
X122356649Y-90017906D01*
X122356645Y-90017913D01*
X122307578Y-90149470D01*
X122265707Y-90205404D01*
X122200242Y-90229821D01*
X122131969Y-90214969D01*
X122103715Y-90193819D01*
X122059366Y-90149470D01*
X121981401Y-90071505D01*
X121981397Y-90071502D01*
X121981396Y-90071501D01*
X121787834Y-89935967D01*
X121787830Y-89935965D01*
X121705597Y-89897619D01*
X121573663Y-89836097D01*
X121573659Y-89836096D01*
X121573655Y-89836094D01*
X121345413Y-89774938D01*
X121345403Y-89774936D01*
X121110001Y-89754341D01*
X121109999Y-89754341D01*
X120874596Y-89774936D01*
X120874586Y-89774938D01*
X120646344Y-89836094D01*
X120646335Y-89836098D01*
X120432171Y-89935964D01*
X120432169Y-89935965D01*
X120238597Y-90071505D01*
X120071505Y-90238597D01*
X119941575Y-90424158D01*
X119886998Y-90467783D01*
X119817500Y-90474977D01*
X119755145Y-90443454D01*
X119738425Y-90424158D01*
X119608494Y-90238597D01*
X119441402Y-90071506D01*
X119441395Y-90071501D01*
X119247834Y-89935967D01*
X119247830Y-89935965D01*
X119165597Y-89897619D01*
X119033663Y-89836097D01*
X119033659Y-89836096D01*
X119033655Y-89836094D01*
X118805413Y-89774938D01*
X118805403Y-89774936D01*
X118570001Y-89754341D01*
X118569999Y-89754341D01*
X118334596Y-89774936D01*
X118334586Y-89774938D01*
X118106344Y-89836094D01*
X118106335Y-89836098D01*
X117892171Y-89935964D01*
X117892169Y-89935965D01*
X117698597Y-90071505D01*
X117531505Y-90238597D01*
X117401575Y-90424158D01*
X117346998Y-90467783D01*
X117277500Y-90474977D01*
X117215145Y-90443454D01*
X117198425Y-90424158D01*
X117068494Y-90238597D01*
X116901402Y-90071506D01*
X116901395Y-90071501D01*
X116707834Y-89935967D01*
X116707830Y-89935965D01*
X116625597Y-89897619D01*
X116493663Y-89836097D01*
X116493659Y-89836096D01*
X116493655Y-89836094D01*
X116265413Y-89774938D01*
X116265403Y-89774936D01*
X116030001Y-89754341D01*
X116029999Y-89754341D01*
X115794596Y-89774936D01*
X115794586Y-89774938D01*
X115566344Y-89836094D01*
X115566335Y-89836098D01*
X115352171Y-89935964D01*
X115352169Y-89935965D01*
X115158597Y-90071505D01*
X114991505Y-90238597D01*
X114861575Y-90424158D01*
X114806998Y-90467783D01*
X114737500Y-90474977D01*
X114675145Y-90443454D01*
X114658425Y-90424158D01*
X114528494Y-90238597D01*
X114361402Y-90071506D01*
X114361395Y-90071501D01*
X114167834Y-89935967D01*
X114167830Y-89935965D01*
X114085597Y-89897619D01*
X113953663Y-89836097D01*
X113953659Y-89836096D01*
X113953655Y-89836094D01*
X113725413Y-89774938D01*
X113725403Y-89774936D01*
X113490001Y-89754341D01*
X113489999Y-89754341D01*
X113254596Y-89774936D01*
X113254586Y-89774938D01*
X113026344Y-89836094D01*
X113026335Y-89836098D01*
X112812171Y-89935964D01*
X112812169Y-89935965D01*
X112618600Y-90071503D01*
X112496284Y-90193819D01*
X112434961Y-90227303D01*
X112365269Y-90222319D01*
X112309336Y-90180447D01*
X112292421Y-90149470D01*
X112243354Y-90017913D01*
X112243350Y-90017906D01*
X112157190Y-89902812D01*
X112157187Y-89902809D01*
X112042093Y-89816649D01*
X112042086Y-89816645D01*
X111907379Y-89766403D01*
X111907372Y-89766401D01*
X111847844Y-89760000D01*
X111200000Y-89760000D01*
X111200000Y-90665439D01*
X111146853Y-90634755D01*
X111017143Y-90600000D01*
X110882857Y-90600000D01*
X110753147Y-90634755D01*
X110700000Y-90665439D01*
X110700000Y-89760000D01*
X110052155Y-89760000D01*
X109992627Y-89766401D01*
X109992620Y-89766403D01*
X109857913Y-89816645D01*
X109857906Y-89816649D01*
X109742812Y-89902809D01*
X109742809Y-89902812D01*
X109656649Y-90017906D01*
X109656645Y-90017913D01*
X109607578Y-90149470D01*
X109565707Y-90205404D01*
X109500242Y-90229821D01*
X109431969Y-90214969D01*
X109403715Y-90193819D01*
X109359366Y-90149470D01*
X109281401Y-90071505D01*
X109281397Y-90071502D01*
X109281396Y-90071501D01*
X109087834Y-89935967D01*
X109087830Y-89935965D01*
X109005597Y-89897619D01*
X108873663Y-89836097D01*
X108873659Y-89836096D01*
X108873655Y-89836094D01*
X108645413Y-89774938D01*
X108645403Y-89774936D01*
X108410001Y-89754341D01*
X108409999Y-89754341D01*
X108174596Y-89774936D01*
X108174586Y-89774938D01*
X107946344Y-89836094D01*
X107946335Y-89836098D01*
X107732171Y-89935964D01*
X107732169Y-89935965D01*
X107538597Y-90071505D01*
X107371505Y-90238597D01*
X107241575Y-90424158D01*
X107186998Y-90467783D01*
X107117500Y-90474977D01*
X107055145Y-90443454D01*
X107038425Y-90424158D01*
X106908494Y-90238597D01*
X106741402Y-90071506D01*
X106741395Y-90071501D01*
X106547834Y-89935967D01*
X106547830Y-89935965D01*
X106465597Y-89897619D01*
X106333663Y-89836097D01*
X106333659Y-89836096D01*
X106333655Y-89836094D01*
X106105413Y-89774938D01*
X106105403Y-89774936D01*
X105870001Y-89754341D01*
X105869999Y-89754341D01*
X105634596Y-89774936D01*
X105634586Y-89774938D01*
X105406344Y-89836094D01*
X105406335Y-89836098D01*
X105296903Y-89887127D01*
X105227825Y-89897619D01*
X105164041Y-89869099D01*
X105125802Y-89810623D01*
X105120498Y-89774745D01*
X105120498Y-88769499D01*
X105140183Y-88702460D01*
X105156812Y-88681823D01*
X108348691Y-85489943D01*
X108410012Y-85456460D01*
X108468463Y-85457850D01*
X108532146Y-85474915D01*
X108706429Y-85490163D01*
X108749999Y-85493975D01*
X108750000Y-85493975D01*
X108750001Y-85493975D01*
X108786309Y-85490798D01*
X108967854Y-85474915D01*
X109179090Y-85418315D01*
X109377287Y-85325894D01*
X109556425Y-85200460D01*
X109711059Y-85045826D01*
X109772409Y-84958209D01*
X109818226Y-84892777D01*
X109872803Y-84849152D01*
X109919800Y-84839901D01*
X113876202Y-84839901D01*
X113943241Y-84859586D01*
X113988996Y-84912390D01*
X114000202Y-84963901D01*
X114000202Y-85036577D01*
X114006609Y-85096184D01*
X114056903Y-85231029D01*
X114056907Y-85231036D01*
X114143153Y-85346245D01*
X114143156Y-85346248D01*
X114258365Y-85432494D01*
X114258372Y-85432498D01*
X114393218Y-85482792D01*
X114393217Y-85482792D01*
X114400145Y-85483536D01*
X114452828Y-85489201D01*
X116047173Y-85489200D01*
X116106784Y-85482792D01*
X116241632Y-85432497D01*
X116356847Y-85346247D01*
X116443097Y-85231032D01*
X116493392Y-85096184D01*
X116499801Y-85036574D01*
X116499800Y-83442229D01*
X116493392Y-83382618D01*
X116443097Y-83247770D01*
X116443096Y-83247769D01*
X116443094Y-83247765D01*
X116356848Y-83132556D01*
X116356845Y-83132553D01*
X116241636Y-83046307D01*
X116241629Y-83046303D01*
X116106783Y-82996009D01*
X116106784Y-82996009D01*
X116047184Y-82989602D01*
X116047182Y-82989601D01*
X116047174Y-82989601D01*
X116047165Y-82989601D01*
X114452830Y-82989601D01*
X114452824Y-82989602D01*
X114393217Y-82996009D01*
X114258372Y-83046303D01*
X114258365Y-83046307D01*
X114143156Y-83132553D01*
X114143153Y-83132556D01*
X114056907Y-83247765D01*
X114056903Y-83247772D01*
X114006609Y-83382618D01*
X114000202Y-83442217D01*
X114000202Y-83442224D01*
X114000201Y-83442236D01*
X114000201Y-83514901D01*
X113980516Y-83581940D01*
X113927712Y-83627695D01*
X113876201Y-83638901D01*
X109919800Y-83638901D01*
X109852761Y-83619216D01*
X109818226Y-83586025D01*
X109741755Y-83476815D01*
X109711059Y-83432976D01*
X109556425Y-83278342D01*
X109377287Y-83152908D01*
X109377288Y-83152908D01*
X109377286Y-83152907D01*
X109278188Y-83106697D01*
X109179090Y-83060487D01*
X109179086Y-83060486D01*
X109179082Y-83060484D01*
X108967859Y-83003888D01*
X108967849Y-83003886D01*
X108750001Y-82984827D01*
X108749999Y-82984827D01*
X108532150Y-83003886D01*
X108532140Y-83003888D01*
X108320917Y-83060484D01*
X108320908Y-83060488D01*
X108122713Y-83152907D01*
X108037578Y-83212520D01*
X107943575Y-83278342D01*
X107943573Y-83278343D01*
X107943570Y-83278346D01*
X107788945Y-83432971D01*
X107788942Y-83432974D01*
X107788941Y-83432976D01*
X107749236Y-83489681D01*
X107663506Y-83612114D01*
X107571087Y-83810309D01*
X107571083Y-83810318D01*
X107514487Y-84021541D01*
X107514485Y-84021551D01*
X107495426Y-84239400D01*
X107495426Y-84239401D01*
X107514485Y-84457250D01*
X107514487Y-84457260D01*
X107531549Y-84520935D01*
X107529886Y-84590785D01*
X107499455Y-84640709D01*
X104151284Y-87988881D01*
X104039479Y-88100685D01*
X104039473Y-88100693D01*
X103999141Y-88170552D01*
X103999141Y-88170554D01*
X103960421Y-88237617D01*
X103960421Y-88237618D01*
X103919497Y-88390346D01*
X103919497Y-88390348D01*
X103919497Y-88558449D01*
X103919498Y-88558462D01*
X103919498Y-91077587D01*
X103899813Y-91144626D01*
X103892448Y-91154896D01*
X103890184Y-91157734D01*
X103794208Y-91310478D01*
X103734628Y-91480750D01*
X103726896Y-91549383D01*
X103699830Y-91613797D01*
X103642235Y-91653352D01*
X103603676Y-91659500D01*
X94760983Y-91659500D01*
X94760967Y-91659499D01*
X94753371Y-91659499D01*
X94595257Y-91659499D01*
X94487901Y-91688265D01*
X94442524Y-91700424D01*
X94442523Y-91700425D01*
X94392410Y-91729359D01*
X94392409Y-91729360D01*
X94365280Y-91745023D01*
X94305599Y-91779479D01*
X94305596Y-91779481D01*
X90419481Y-95665596D01*
X90419479Y-95665599D01*
X90369361Y-95752408D01*
X90369359Y-95752410D01*
X90340425Y-95802523D01*
X90340424Y-95802524D01*
X90340423Y-95802529D01*
X90299499Y-95955257D01*
X90299499Y-95955259D01*
X90299499Y-96123360D01*
X90299500Y-96123373D01*
X90299500Y-105867587D01*
X90279815Y-105934626D01*
X90272450Y-105944896D01*
X90270186Y-105947734D01*
X90174211Y-106100476D01*
X90114631Y-106270745D01*
X90114630Y-106270750D01*
X90094435Y-106449996D01*
X87500500Y-106449996D01*
X87500500Y-87755000D01*
X93821687Y-87755000D01*
X93840922Y-88073007D01*
X93840922Y-88073012D01*
X93840923Y-88073013D01*
X93845996Y-88100693D01*
X93898352Y-88386390D01*
X93993135Y-88690562D01*
X93993137Y-88690569D01*
X94123880Y-88981066D01*
X94123887Y-88981078D01*
X94123890Y-88981085D01*
X94288710Y-89253731D01*
X94288715Y-89253739D01*
X94485196Y-89504528D01*
X94710471Y-89729803D01*
X94961260Y-89926284D01*
X94961263Y-89926285D01*
X94961267Y-89926289D01*
X95233915Y-90091110D01*
X95233925Y-90091114D01*
X95233933Y-90091119D01*
X95524430Y-90221862D01*
X95524435Y-90221863D01*
X95524441Y-90221866D01*
X95828610Y-90316648D01*
X96141987Y-90374077D01*
X96460000Y-90393313D01*
X96778013Y-90374077D01*
X97091390Y-90316648D01*
X97395559Y-90221866D01*
X97395565Y-90221862D01*
X97395569Y-90221862D01*
X97686066Y-90091119D01*
X97686069Y-90091116D01*
X97686085Y-90091110D01*
X97958733Y-89926289D01*
X98209525Y-89729806D01*
X98434806Y-89504525D01*
X98631289Y-89253733D01*
X98796110Y-88981085D01*
X98921510Y-88702460D01*
X98926862Y-88690569D01*
X98926862Y-88690565D01*
X98926866Y-88690559D01*
X99021648Y-88386390D01*
X99079077Y-88073013D01*
X99098313Y-87755000D01*
X99079077Y-87436987D01*
X99021648Y-87123610D01*
X98926866Y-86819441D01*
X98926863Y-86819435D01*
X98926862Y-86819430D01*
X98796119Y-86528933D01*
X98796114Y-86528925D01*
X98796110Y-86528915D01*
X98631289Y-86256267D01*
X98434806Y-86005475D01*
X98434803Y-86005471D01*
X98209528Y-85780196D01*
X97958739Y-85583715D01*
X97958731Y-85583710D01*
X97686085Y-85418890D01*
X97686078Y-85418887D01*
X97686066Y-85418880D01*
X97395569Y-85288137D01*
X97395562Y-85288135D01*
X97212310Y-85231032D01*
X97091390Y-85193352D01*
X96778013Y-85135923D01*
X96778012Y-85135922D01*
X96778007Y-85135922D01*
X96460000Y-85116687D01*
X96141992Y-85135922D01*
X95828609Y-85193352D01*
X95524437Y-85288135D01*
X95524430Y-85288137D01*
X95233933Y-85418880D01*
X95233916Y-85418889D01*
X95233915Y-85418890D01*
X95141241Y-85474913D01*
X94961268Y-85583710D01*
X94961260Y-85583715D01*
X94710471Y-85780196D01*
X94485196Y-86005471D01*
X94288715Y-86256260D01*
X94288710Y-86256268D01*
X94123889Y-86528917D01*
X94123880Y-86528933D01*
X93993137Y-86819430D01*
X93993135Y-86819437D01*
X93898352Y-87123609D01*
X93840922Y-87436992D01*
X93821687Y-87755000D01*
X87500500Y-87755000D01*
X87500500Y-83932060D01*
X87500587Y-83927424D01*
X87510456Y-83663664D01*
X87518359Y-83452420D01*
X87519050Y-83443200D01*
X87572015Y-82973133D01*
X87573392Y-82963995D01*
X87661332Y-82499221D01*
X87663395Y-82490183D01*
X87771674Y-82086080D01*
X87785823Y-82033273D01*
X87788549Y-82024435D01*
X87944784Y-81577940D01*
X87948159Y-81569339D01*
X88137328Y-81135762D01*
X88141350Y-81127413D01*
X88222210Y-80974418D01*
X88362367Y-80709227D01*
X88367000Y-80701203D01*
X88505973Y-80480029D01*
X88618668Y-80300675D01*
X88623886Y-80293024D01*
X88808027Y-80043521D01*
X88904774Y-79912432D01*
X88910535Y-79905207D01*
X88913659Y-79901577D01*
X98749500Y-79901577D01*
X98749500Y-80098422D01*
X98780290Y-80292826D01*
X98841117Y-80480029D01*
X98898559Y-80592764D01*
X98930476Y-80655405D01*
X99046172Y-80814646D01*
X99185354Y-80953828D01*
X99344595Y-81069524D01*
X99427455Y-81111743D01*
X99519970Y-81158882D01*
X99519972Y-81158882D01*
X99519975Y-81158884D01*
X99620317Y-81191487D01*
X99707173Y-81219709D01*
X99901578Y-81250500D01*
X99901583Y-81250500D01*
X100098422Y-81250500D01*
X100292826Y-81219709D01*
X100480025Y-81158884D01*
X100655405Y-81069524D01*
X100814646Y-80953828D01*
X100953828Y-80814646D01*
X101069524Y-80655405D01*
X101158884Y-80480025D01*
X101219709Y-80292826D01*
X101228915Y-80234700D01*
X101250500Y-80098422D01*
X101250500Y-79901577D01*
X101224813Y-79739398D01*
X107495928Y-79739398D01*
X107495928Y-79739401D01*
X107514979Y-79957161D01*
X107514981Y-79957171D01*
X107571555Y-80168310D01*
X107571559Y-80168319D01*
X107663941Y-80366434D01*
X107663942Y-80366436D01*
X107707377Y-80428467D01*
X107707378Y-80428468D01*
X108270874Y-79864971D01*
X108288454Y-79930579D01*
X108353661Y-80043521D01*
X108445879Y-80135739D01*
X108558821Y-80200946D01*
X108624427Y-80218525D01*
X108060930Y-80782021D01*
X108122964Y-80825457D01*
X108321080Y-80917840D01*
X108321089Y-80917844D01*
X108532228Y-80974418D01*
X108532238Y-80974420D01*
X108749998Y-80993472D01*
X108750002Y-80993472D01*
X108967761Y-80974420D01*
X108967771Y-80974418D01*
X109178910Y-80917844D01*
X109178919Y-80917840D01*
X109377035Y-80825458D01*
X109377039Y-80825456D01*
X109439068Y-80782022D01*
X109439068Y-80782021D01*
X108875572Y-80218525D01*
X108941179Y-80200946D01*
X109054121Y-80135739D01*
X109146339Y-80043521D01*
X109211546Y-79930579D01*
X109229125Y-79864972D01*
X109792621Y-80428468D01*
X109792622Y-80428468D01*
X109836056Y-80366439D01*
X109836058Y-80366435D01*
X109928440Y-80168319D01*
X109928444Y-80168310D01*
X109985018Y-79957171D01*
X109985020Y-79957161D01*
X110004072Y-79739401D01*
X110004072Y-79739398D01*
X113995929Y-79739398D01*
X113995929Y-79739401D01*
X114014980Y-79957161D01*
X114014982Y-79957171D01*
X114071556Y-80168310D01*
X114071560Y-80168319D01*
X114163942Y-80366434D01*
X114163943Y-80366436D01*
X114207378Y-80428467D01*
X114207379Y-80428468D01*
X114770875Y-79864971D01*
X114788455Y-79930579D01*
X114853662Y-80043521D01*
X114945880Y-80135739D01*
X115058822Y-80200946D01*
X115124428Y-80218525D01*
X114560931Y-80782021D01*
X114622965Y-80825457D01*
X114821081Y-80917840D01*
X114821090Y-80917844D01*
X115032229Y-80974418D01*
X115032239Y-80974420D01*
X115249999Y-80993472D01*
X115250003Y-80993472D01*
X115467762Y-80974420D01*
X115467772Y-80974418D01*
X115678911Y-80917844D01*
X115678920Y-80917840D01*
X115877036Y-80825458D01*
X115877040Y-80825456D01*
X115939069Y-80782022D01*
X115939069Y-80782021D01*
X115375573Y-80218525D01*
X115441180Y-80200946D01*
X115554122Y-80135739D01*
X115646340Y-80043521D01*
X115711547Y-79930579D01*
X115729126Y-79864972D01*
X116292622Y-80428468D01*
X116292623Y-80428468D01*
X116336057Y-80366439D01*
X116336059Y-80366435D01*
X116428441Y-80168319D01*
X116428445Y-80168310D01*
X116485019Y-79957171D01*
X116485021Y-79957161D01*
X116489884Y-79901577D01*
X148749500Y-79901577D01*
X148749500Y-80098422D01*
X148780290Y-80292826D01*
X148841117Y-80480029D01*
X148898559Y-80592764D01*
X148930476Y-80655405D01*
X149046172Y-80814646D01*
X149185354Y-80953828D01*
X149344595Y-81069524D01*
X149427455Y-81111743D01*
X149519970Y-81158882D01*
X149519972Y-81158882D01*
X149519975Y-81158884D01*
X149620317Y-81191487D01*
X149707173Y-81219709D01*
X149901578Y-81250500D01*
X149901583Y-81250500D01*
X150098422Y-81250500D01*
X150292826Y-81219709D01*
X150480025Y-81158884D01*
X150655405Y-81069524D01*
X150814646Y-80953828D01*
X150953828Y-80814646D01*
X151069524Y-80655405D01*
X151158884Y-80480025D01*
X151219709Y-80292826D01*
X151228915Y-80234700D01*
X151250500Y-80098422D01*
X151250500Y-79901577D01*
X151219709Y-79707173D01*
X151172774Y-79562724D01*
X151158884Y-79519975D01*
X151158882Y-79519972D01*
X151158882Y-79519970D01*
X151069523Y-79344594D01*
X151044744Y-79310489D01*
X150953828Y-79185354D01*
X150814646Y-79046172D01*
X150655405Y-78930476D01*
X150592621Y-78898486D01*
X150480029Y-78841117D01*
X150292826Y-78780290D01*
X150098422Y-78749500D01*
X150098417Y-78749500D01*
X149901583Y-78749500D01*
X149901578Y-78749500D01*
X149707173Y-78780290D01*
X149519970Y-78841117D01*
X149344594Y-78930476D01*
X149253741Y-78996485D01*
X149185354Y-79046172D01*
X149185352Y-79046174D01*
X149185351Y-79046174D01*
X149046174Y-79185351D01*
X149046174Y-79185352D01*
X149046172Y-79185354D01*
X149021859Y-79218818D01*
X148930476Y-79344594D01*
X148841117Y-79519970D01*
X148780290Y-79707173D01*
X148749500Y-79901577D01*
X116489884Y-79901577D01*
X116504073Y-79739401D01*
X116504073Y-79739398D01*
X116485021Y-79521638D01*
X116485019Y-79521628D01*
X116428445Y-79310489D01*
X116428441Y-79310480D01*
X116336058Y-79112364D01*
X116292622Y-79050330D01*
X115729125Y-79613826D01*
X115711547Y-79548221D01*
X115646340Y-79435279D01*
X115554122Y-79343061D01*
X115441180Y-79277854D01*
X115375573Y-79260274D01*
X115939069Y-78696778D01*
X115939068Y-78696777D01*
X115877037Y-78653342D01*
X115877035Y-78653341D01*
X115678920Y-78560959D01*
X115678911Y-78560955D01*
X115467772Y-78504381D01*
X115467762Y-78504379D01*
X115250003Y-78485328D01*
X115249999Y-78485328D01*
X115032239Y-78504379D01*
X115032229Y-78504381D01*
X114821090Y-78560955D01*
X114821081Y-78560959D01*
X114622961Y-78653344D01*
X114560932Y-78696776D01*
X114560931Y-78696777D01*
X115124429Y-79260274D01*
X115058822Y-79277854D01*
X114945880Y-79343061D01*
X114853662Y-79435279D01*
X114788455Y-79548221D01*
X114770875Y-79613827D01*
X114207378Y-79050330D01*
X114207377Y-79050331D01*
X114163945Y-79112360D01*
X114071560Y-79310480D01*
X114071556Y-79310489D01*
X114014982Y-79521628D01*
X114014980Y-79521638D01*
X113995929Y-79739398D01*
X110004072Y-79739398D01*
X109985020Y-79521638D01*
X109985018Y-79521628D01*
X109928444Y-79310489D01*
X109928440Y-79310480D01*
X109836057Y-79112364D01*
X109792621Y-79050330D01*
X109229124Y-79613826D01*
X109211546Y-79548221D01*
X109146339Y-79435279D01*
X109054121Y-79343061D01*
X108941179Y-79277854D01*
X108875572Y-79260274D01*
X109439068Y-78696778D01*
X109439067Y-78696777D01*
X109377036Y-78653342D01*
X109377034Y-78653341D01*
X109178919Y-78560959D01*
X109178910Y-78560955D01*
X108967771Y-78504381D01*
X108967761Y-78504379D01*
X108750002Y-78485328D01*
X108749998Y-78485328D01*
X108532238Y-78504379D01*
X108532228Y-78504381D01*
X108321089Y-78560955D01*
X108321080Y-78560959D01*
X108122960Y-78653344D01*
X108060931Y-78696776D01*
X108060930Y-78696777D01*
X108624428Y-79260274D01*
X108558821Y-79277854D01*
X108445879Y-79343061D01*
X108353661Y-79435279D01*
X108288454Y-79548221D01*
X108270874Y-79613827D01*
X107707377Y-79050330D01*
X107707376Y-79050331D01*
X107663944Y-79112360D01*
X107571559Y-79310480D01*
X107571555Y-79310489D01*
X107514981Y-79521628D01*
X107514979Y-79521638D01*
X107495928Y-79739398D01*
X101224813Y-79739398D01*
X101219709Y-79707173D01*
X101172774Y-79562724D01*
X101158884Y-79519975D01*
X101158882Y-79519972D01*
X101158882Y-79519970D01*
X101069523Y-79344594D01*
X101044744Y-79310489D01*
X100953828Y-79185354D01*
X100814646Y-79046172D01*
X100655405Y-78930476D01*
X100592621Y-78898486D01*
X100480029Y-78841117D01*
X100292826Y-78780290D01*
X100098422Y-78749500D01*
X100098417Y-78749500D01*
X99901583Y-78749500D01*
X99901578Y-78749500D01*
X99707173Y-78780290D01*
X99519970Y-78841117D01*
X99344594Y-78930476D01*
X99253741Y-78996485D01*
X99185354Y-79046172D01*
X99185352Y-79046174D01*
X99185351Y-79046174D01*
X99046174Y-79185351D01*
X99046174Y-79185352D01*
X99046172Y-79185354D01*
X99021859Y-79218818D01*
X98930476Y-79344594D01*
X98841117Y-79519970D01*
X98780290Y-79707173D01*
X98749500Y-79901577D01*
X88913659Y-79901577D01*
X89219103Y-79546645D01*
X89225384Y-79539876D01*
X89559876Y-79205384D01*
X89566645Y-79199103D01*
X89925207Y-78890535D01*
X89932432Y-78884774D01*
X90313024Y-78603886D01*
X90320675Y-78598668D01*
X90721209Y-78346995D01*
X90729227Y-78342367D01*
X91147418Y-78121347D01*
X91155762Y-78117328D01*
X91589339Y-77928159D01*
X91597940Y-77924784D01*
X92044435Y-77768549D01*
X92053273Y-77765823D01*
X92336883Y-77689830D01*
X92510183Y-77643395D01*
X92519223Y-77641332D01*
X92983995Y-77553392D01*
X92993133Y-77552015D01*
X93463200Y-77499050D01*
X93472420Y-77498359D01*
X93947425Y-77480587D01*
X93952061Y-77480500D01*
X94015642Y-77480500D01*
X152934108Y-77480500D01*
X152997688Y-77480500D01*
X153002324Y-77480587D01*
G37*
%TD.AperFunction*%
%TD*%
M02*
