%TF.GenerationSoftware,KiCad,Pcbnew,8.0.4*%
%TF.CreationDate,2025-01-24T17:00:10-06:00*%
%TF.ProjectId,potentiostat control,706f7465-6e74-4696-9f73-74617420636f,0.1*%
%TF.SameCoordinates,Original*%
%TF.FileFunction,Legend,Top*%
%TF.FilePolarity,Positive*%
%FSLAX46Y46*%
G04 Gerber Fmt 4.6, Leading zero omitted, Abs format (unit mm)*
G04 Created by KiCad (PCBNEW 8.0.4) date 2025-01-24 17:00:10*
%MOMM*%
%LPD*%
G01*
G04 APERTURE LIST*
%ADD10C,0.150000*%
%ADD11C,0.120000*%
%ADD12C,0.152400*%
G04 APERTURE END LIST*
D10*
X122187557Y-103095238D02*
X122139938Y-103190476D01*
X122139938Y-103190476D02*
X122044700Y-103285714D01*
X122044700Y-103285714D02*
X121901842Y-103428571D01*
X121901842Y-103428571D02*
X121854223Y-103523809D01*
X121854223Y-103523809D02*
X121854223Y-103619047D01*
X122092319Y-103571428D02*
X122044700Y-103666666D01*
X122044700Y-103666666D02*
X121949461Y-103761904D01*
X121949461Y-103761904D02*
X121758985Y-103809523D01*
X121758985Y-103809523D02*
X121425652Y-103809523D01*
X121425652Y-103809523D02*
X121235176Y-103761904D01*
X121235176Y-103761904D02*
X121139938Y-103666666D01*
X121139938Y-103666666D02*
X121092319Y-103571428D01*
X121092319Y-103571428D02*
X121092319Y-103380952D01*
X121092319Y-103380952D02*
X121139938Y-103285714D01*
X121139938Y-103285714D02*
X121235176Y-103190476D01*
X121235176Y-103190476D02*
X121425652Y-103142857D01*
X121425652Y-103142857D02*
X121758985Y-103142857D01*
X121758985Y-103142857D02*
X121949461Y-103190476D01*
X121949461Y-103190476D02*
X122044700Y-103285714D01*
X122044700Y-103285714D02*
X122092319Y-103380952D01*
X122092319Y-103380952D02*
X122092319Y-103571428D01*
X121187557Y-102761904D02*
X121139938Y-102714285D01*
X121139938Y-102714285D02*
X121092319Y-102619047D01*
X121092319Y-102619047D02*
X121092319Y-102380952D01*
X121092319Y-102380952D02*
X121139938Y-102285714D01*
X121139938Y-102285714D02*
X121187557Y-102238095D01*
X121187557Y-102238095D02*
X121282795Y-102190476D01*
X121282795Y-102190476D02*
X121378033Y-102190476D01*
X121378033Y-102190476D02*
X121520890Y-102238095D01*
X121520890Y-102238095D02*
X122092319Y-102809523D01*
X122092319Y-102809523D02*
X122092319Y-102190476D01*
X129454819Y-100761904D02*
X130264342Y-100761904D01*
X130264342Y-100761904D02*
X130359580Y-100714285D01*
X130359580Y-100714285D02*
X130407200Y-100666666D01*
X130407200Y-100666666D02*
X130454819Y-100571428D01*
X130454819Y-100571428D02*
X130454819Y-100380952D01*
X130454819Y-100380952D02*
X130407200Y-100285714D01*
X130407200Y-100285714D02*
X130359580Y-100238095D01*
X130359580Y-100238095D02*
X130264342Y-100190476D01*
X130264342Y-100190476D02*
X129454819Y-100190476D01*
X130454819Y-99190476D02*
X130454819Y-99761904D01*
X130454819Y-99476190D02*
X129454819Y-99476190D01*
X129454819Y-99476190D02*
X129597676Y-99571428D01*
X129597676Y-99571428D02*
X129692914Y-99666666D01*
X129692914Y-99666666D02*
X129740533Y-99761904D01*
X115639131Y-85843998D02*
X115612194Y-85763185D01*
X115612194Y-85763185D02*
X115531381Y-85682373D01*
X115531381Y-85682373D02*
X115423632Y-85628498D01*
X115423632Y-85628498D02*
X115315882Y-85628498D01*
X115315882Y-85628498D02*
X115235070Y-85655436D01*
X115235070Y-85655436D02*
X115100383Y-85736248D01*
X115100383Y-85736248D02*
X115019571Y-85817060D01*
X115019571Y-85817060D02*
X114938758Y-85951747D01*
X114938758Y-85951747D02*
X114911821Y-86032560D01*
X114911821Y-86032560D02*
X114911821Y-86140309D01*
X114911821Y-86140309D02*
X114965696Y-86248059D01*
X114965696Y-86248059D02*
X115019571Y-86301934D01*
X115019571Y-86301934D02*
X115127320Y-86355808D01*
X115127320Y-86355808D02*
X115181195Y-86355808D01*
X115181195Y-86355808D02*
X115369757Y-86167247D01*
X115369757Y-86167247D02*
X115262007Y-86059497D01*
X115369757Y-86652120D02*
X115935442Y-86086434D01*
X115935442Y-86086434D02*
X116150942Y-86301934D01*
X116150942Y-86301934D02*
X116177879Y-86382746D01*
X116177879Y-86382746D02*
X116177879Y-86436621D01*
X116177879Y-86436621D02*
X116150942Y-86517433D01*
X116150942Y-86517433D02*
X116070129Y-86598245D01*
X116070129Y-86598245D02*
X115989317Y-86625182D01*
X115989317Y-86625182D02*
X115935442Y-86625182D01*
X115935442Y-86625182D02*
X115854630Y-86598245D01*
X115854630Y-86598245D02*
X115639131Y-86382746D01*
X116231754Y-87514117D02*
X115908505Y-87190868D01*
X116070129Y-87352492D02*
X116635815Y-86786807D01*
X116635815Y-86786807D02*
X116501128Y-86813744D01*
X116501128Y-86813744D02*
X116393378Y-86813744D01*
X116393378Y-86813744D02*
X116312566Y-86786807D01*
X116959064Y-87217805D02*
X117012939Y-87217805D01*
X117012939Y-87217805D02*
X117093751Y-87244743D01*
X117093751Y-87244743D02*
X117228438Y-87379430D01*
X117228438Y-87379430D02*
X117255375Y-87460242D01*
X117255375Y-87460242D02*
X117255375Y-87514117D01*
X117255375Y-87514117D02*
X117228438Y-87594929D01*
X117228438Y-87594929D02*
X117174563Y-87648804D01*
X117174563Y-87648804D02*
X117066813Y-87702679D01*
X117066813Y-87702679D02*
X116420316Y-87702679D01*
X116420316Y-87702679D02*
X116770502Y-88052865D01*
X148901568Y-112086435D02*
X148874631Y-112005623D01*
X148874631Y-112005623D02*
X148793819Y-111924811D01*
X148793819Y-111924811D02*
X148686069Y-111870936D01*
X148686069Y-111870936D02*
X148578319Y-111870936D01*
X148578319Y-111870936D02*
X148497507Y-111897873D01*
X148497507Y-111897873D02*
X148362820Y-111978685D01*
X148362820Y-111978685D02*
X148282008Y-112059498D01*
X148282008Y-112059498D02*
X148201196Y-112194185D01*
X148201196Y-112194185D02*
X148174258Y-112274997D01*
X148174258Y-112274997D02*
X148174258Y-112382746D01*
X148174258Y-112382746D02*
X148228133Y-112490496D01*
X148228133Y-112490496D02*
X148282008Y-112544371D01*
X148282008Y-112544371D02*
X148389758Y-112598246D01*
X148389758Y-112598246D02*
X148443632Y-112598246D01*
X148443632Y-112598246D02*
X148632194Y-112409684D01*
X148632194Y-112409684D02*
X148524445Y-112301934D01*
X148632194Y-112894557D02*
X149197880Y-112328872D01*
X149197880Y-112328872D02*
X148955443Y-113217806D01*
X148955443Y-113217806D02*
X149521128Y-112652120D01*
X149224817Y-113487180D02*
X149790502Y-112921494D01*
X149790502Y-112921494D02*
X149925189Y-113056181D01*
X149925189Y-113056181D02*
X149979064Y-113163931D01*
X149979064Y-113163931D02*
X149979064Y-113271680D01*
X149979064Y-113271680D02*
X149952127Y-113352493D01*
X149952127Y-113352493D02*
X149871314Y-113487180D01*
X149871314Y-113487180D02*
X149790502Y-113567992D01*
X149790502Y-113567992D02*
X149655815Y-113648804D01*
X149655815Y-113648804D02*
X149575003Y-113675741D01*
X149575003Y-113675741D02*
X149467253Y-113675741D01*
X149467253Y-113675741D02*
X149359504Y-113621867D01*
X149359504Y-113621867D02*
X149224817Y-113487180D01*
X115639131Y-112097998D02*
X115612194Y-112017185D01*
X115612194Y-112017185D02*
X115531381Y-111936373D01*
X115531381Y-111936373D02*
X115423632Y-111882498D01*
X115423632Y-111882498D02*
X115315882Y-111882498D01*
X115315882Y-111882498D02*
X115235070Y-111909436D01*
X115235070Y-111909436D02*
X115100383Y-111990248D01*
X115100383Y-111990248D02*
X115019571Y-112071060D01*
X115019571Y-112071060D02*
X114938758Y-112205747D01*
X114938758Y-112205747D02*
X114911821Y-112286560D01*
X114911821Y-112286560D02*
X114911821Y-112394309D01*
X114911821Y-112394309D02*
X114965696Y-112502059D01*
X114965696Y-112502059D02*
X115019571Y-112555934D01*
X115019571Y-112555934D02*
X115127320Y-112609808D01*
X115127320Y-112609808D02*
X115181195Y-112609808D01*
X115181195Y-112609808D02*
X115369757Y-112421247D01*
X115369757Y-112421247D02*
X115262007Y-112313497D01*
X115369757Y-112906120D02*
X115935442Y-112340434D01*
X115935442Y-112340434D02*
X116150942Y-112555934D01*
X116150942Y-112555934D02*
X116177879Y-112636746D01*
X116177879Y-112636746D02*
X116177879Y-112690621D01*
X116177879Y-112690621D02*
X116150942Y-112771433D01*
X116150942Y-112771433D02*
X116070129Y-112852245D01*
X116070129Y-112852245D02*
X115989317Y-112879182D01*
X115989317Y-112879182D02*
X115935442Y-112879182D01*
X115935442Y-112879182D02*
X115854630Y-112852245D01*
X115854630Y-112852245D02*
X115639131Y-112636746D01*
X116231754Y-113768117D02*
X115908505Y-113444868D01*
X116070129Y-113606492D02*
X116635815Y-113040807D01*
X116635815Y-113040807D02*
X116501128Y-113067744D01*
X116501128Y-113067744D02*
X116393378Y-113067744D01*
X116393378Y-113067744D02*
X116312566Y-113040807D01*
X116501128Y-114037491D02*
X116608878Y-114145240D01*
X116608878Y-114145240D02*
X116689690Y-114172178D01*
X116689690Y-114172178D02*
X116743565Y-114172178D01*
X116743565Y-114172178D02*
X116878252Y-114145240D01*
X116878252Y-114145240D02*
X117012939Y-114064428D01*
X117012939Y-114064428D02*
X117228438Y-113848929D01*
X117228438Y-113848929D02*
X117255375Y-113768117D01*
X117255375Y-113768117D02*
X117255375Y-113714242D01*
X117255375Y-113714242D02*
X117228438Y-113633430D01*
X117228438Y-113633430D02*
X117120688Y-113525680D01*
X117120688Y-113525680D02*
X117039876Y-113498743D01*
X117039876Y-113498743D02*
X116986001Y-113498743D01*
X116986001Y-113498743D02*
X116905189Y-113525680D01*
X116905189Y-113525680D02*
X116770502Y-113660367D01*
X116770502Y-113660367D02*
X116743565Y-113741179D01*
X116743565Y-113741179D02*
X116743565Y-113795054D01*
X116743565Y-113795054D02*
X116770502Y-113875866D01*
X116770502Y-113875866D02*
X116878252Y-113983616D01*
X116878252Y-113983616D02*
X116959064Y-114010553D01*
X116959064Y-114010553D02*
X117012939Y-114010553D01*
X117012939Y-114010553D02*
X117093751Y-113983616D01*
X120719131Y-85989998D02*
X120692194Y-85909185D01*
X120692194Y-85909185D02*
X120611381Y-85828373D01*
X120611381Y-85828373D02*
X120503632Y-85774498D01*
X120503632Y-85774498D02*
X120395882Y-85774498D01*
X120395882Y-85774498D02*
X120315070Y-85801436D01*
X120315070Y-85801436D02*
X120180383Y-85882248D01*
X120180383Y-85882248D02*
X120099571Y-85963060D01*
X120099571Y-85963060D02*
X120018758Y-86097747D01*
X120018758Y-86097747D02*
X119991821Y-86178560D01*
X119991821Y-86178560D02*
X119991821Y-86286309D01*
X119991821Y-86286309D02*
X120045696Y-86394059D01*
X120045696Y-86394059D02*
X120099571Y-86447934D01*
X120099571Y-86447934D02*
X120207320Y-86501808D01*
X120207320Y-86501808D02*
X120261195Y-86501808D01*
X120261195Y-86501808D02*
X120449757Y-86313247D01*
X120449757Y-86313247D02*
X120342007Y-86205497D01*
X120449757Y-86798120D02*
X121015442Y-86232434D01*
X121015442Y-86232434D02*
X121230942Y-86447934D01*
X121230942Y-86447934D02*
X121257879Y-86528746D01*
X121257879Y-86528746D02*
X121257879Y-86582621D01*
X121257879Y-86582621D02*
X121230942Y-86663433D01*
X121230942Y-86663433D02*
X121150129Y-86744245D01*
X121150129Y-86744245D02*
X121069317Y-86771182D01*
X121069317Y-86771182D02*
X121015442Y-86771182D01*
X121015442Y-86771182D02*
X120934630Y-86744245D01*
X120934630Y-86744245D02*
X120719131Y-86528746D01*
X121311754Y-87660117D02*
X120988505Y-87336868D01*
X121150129Y-87498492D02*
X121715815Y-86932807D01*
X121715815Y-86932807D02*
X121581128Y-86959744D01*
X121581128Y-86959744D02*
X121473378Y-86959744D01*
X121473378Y-86959744D02*
X121392566Y-86932807D01*
X122227626Y-87444618D02*
X122281500Y-87498492D01*
X122281500Y-87498492D02*
X122308438Y-87579305D01*
X122308438Y-87579305D02*
X122308438Y-87633179D01*
X122308438Y-87633179D02*
X122281500Y-87713992D01*
X122281500Y-87713992D02*
X122200688Y-87848679D01*
X122200688Y-87848679D02*
X122066001Y-87983366D01*
X122066001Y-87983366D02*
X121931314Y-88064178D01*
X121931314Y-88064178D02*
X121850502Y-88091115D01*
X121850502Y-88091115D02*
X121796627Y-88091115D01*
X121796627Y-88091115D02*
X121715815Y-88064178D01*
X121715815Y-88064178D02*
X121661940Y-88010303D01*
X121661940Y-88010303D02*
X121635003Y-87929491D01*
X121635003Y-87929491D02*
X121635003Y-87875616D01*
X121635003Y-87875616D02*
X121661940Y-87794804D01*
X121661940Y-87794804D02*
X121742752Y-87660117D01*
X121742752Y-87660117D02*
X121877439Y-87525430D01*
X121877439Y-87525430D02*
X122012126Y-87444618D01*
X122012126Y-87444618D02*
X122092939Y-87417680D01*
X122092939Y-87417680D02*
X122146813Y-87417680D01*
X122146813Y-87417680D02*
X122227626Y-87444618D01*
X108019131Y-85943998D02*
X107992194Y-85863185D01*
X107992194Y-85863185D02*
X107911381Y-85782373D01*
X107911381Y-85782373D02*
X107803632Y-85728498D01*
X107803632Y-85728498D02*
X107695882Y-85728498D01*
X107695882Y-85728498D02*
X107615070Y-85755436D01*
X107615070Y-85755436D02*
X107480383Y-85836248D01*
X107480383Y-85836248D02*
X107399571Y-85917060D01*
X107399571Y-85917060D02*
X107318758Y-86051747D01*
X107318758Y-86051747D02*
X107291821Y-86132560D01*
X107291821Y-86132560D02*
X107291821Y-86240309D01*
X107291821Y-86240309D02*
X107345696Y-86348059D01*
X107345696Y-86348059D02*
X107399571Y-86401934D01*
X107399571Y-86401934D02*
X107507320Y-86455808D01*
X107507320Y-86455808D02*
X107561195Y-86455808D01*
X107561195Y-86455808D02*
X107749757Y-86267247D01*
X107749757Y-86267247D02*
X107642007Y-86159497D01*
X107749757Y-86752120D02*
X108315442Y-86186434D01*
X108315442Y-86186434D02*
X108530942Y-86401934D01*
X108530942Y-86401934D02*
X108557879Y-86482746D01*
X108557879Y-86482746D02*
X108557879Y-86536621D01*
X108557879Y-86536621D02*
X108530942Y-86617433D01*
X108530942Y-86617433D02*
X108450129Y-86698245D01*
X108450129Y-86698245D02*
X108369317Y-86725182D01*
X108369317Y-86725182D02*
X108315442Y-86725182D01*
X108315442Y-86725182D02*
X108234630Y-86698245D01*
X108234630Y-86698245D02*
X108019131Y-86482746D01*
X108611754Y-87614117D02*
X108288505Y-87290868D01*
X108450129Y-87452492D02*
X109015815Y-86886807D01*
X109015815Y-86886807D02*
X108881128Y-86913744D01*
X108881128Y-86913744D02*
X108773378Y-86913744D01*
X108773378Y-86913744D02*
X108692566Y-86886807D01*
X109473751Y-87721866D02*
X109096627Y-88098990D01*
X109554563Y-87371680D02*
X109015815Y-87641054D01*
X109015815Y-87641054D02*
X109366001Y-87991240D01*
X125799131Y-112097998D02*
X125772194Y-112017185D01*
X125772194Y-112017185D02*
X125691381Y-111936373D01*
X125691381Y-111936373D02*
X125583632Y-111882498D01*
X125583632Y-111882498D02*
X125475882Y-111882498D01*
X125475882Y-111882498D02*
X125395070Y-111909436D01*
X125395070Y-111909436D02*
X125260383Y-111990248D01*
X125260383Y-111990248D02*
X125179571Y-112071060D01*
X125179571Y-112071060D02*
X125098758Y-112205747D01*
X125098758Y-112205747D02*
X125071821Y-112286560D01*
X125071821Y-112286560D02*
X125071821Y-112394309D01*
X125071821Y-112394309D02*
X125125696Y-112502059D01*
X125125696Y-112502059D02*
X125179571Y-112555934D01*
X125179571Y-112555934D02*
X125287320Y-112609808D01*
X125287320Y-112609808D02*
X125341195Y-112609808D01*
X125341195Y-112609808D02*
X125529757Y-112421247D01*
X125529757Y-112421247D02*
X125422007Y-112313497D01*
X125529757Y-112906120D02*
X126095442Y-112340434D01*
X126095442Y-112340434D02*
X126310942Y-112555934D01*
X126310942Y-112555934D02*
X126337879Y-112636746D01*
X126337879Y-112636746D02*
X126337879Y-112690621D01*
X126337879Y-112690621D02*
X126310942Y-112771433D01*
X126310942Y-112771433D02*
X126230129Y-112852245D01*
X126230129Y-112852245D02*
X126149317Y-112879182D01*
X126149317Y-112879182D02*
X126095442Y-112879182D01*
X126095442Y-112879182D02*
X126014630Y-112852245D01*
X126014630Y-112852245D02*
X125799131Y-112636746D01*
X126580316Y-112933057D02*
X126634190Y-112933057D01*
X126634190Y-112933057D02*
X126715003Y-112959995D01*
X126715003Y-112959995D02*
X126849690Y-113094682D01*
X126849690Y-113094682D02*
X126876627Y-113175494D01*
X126876627Y-113175494D02*
X126876627Y-113229369D01*
X126876627Y-113229369D02*
X126849690Y-113310181D01*
X126849690Y-113310181D02*
X126795815Y-113364056D01*
X126795815Y-113364056D02*
X126688065Y-113417930D01*
X126688065Y-113417930D02*
X126041568Y-113417930D01*
X126041568Y-113417930D02*
X126391754Y-113768117D01*
X127119064Y-113471805D02*
X127172939Y-113471805D01*
X127172939Y-113471805D02*
X127253751Y-113498743D01*
X127253751Y-113498743D02*
X127388438Y-113633430D01*
X127388438Y-113633430D02*
X127415375Y-113714242D01*
X127415375Y-113714242D02*
X127415375Y-113768117D01*
X127415375Y-113768117D02*
X127388438Y-113848929D01*
X127388438Y-113848929D02*
X127334563Y-113902804D01*
X127334563Y-113902804D02*
X127226813Y-113956679D01*
X127226813Y-113956679D02*
X126580316Y-113956679D01*
X126580316Y-113956679D02*
X126930502Y-114306865D01*
X123501568Y-112086435D02*
X123474631Y-112005623D01*
X123474631Y-112005623D02*
X123393819Y-111924811D01*
X123393819Y-111924811D02*
X123286069Y-111870936D01*
X123286069Y-111870936D02*
X123178319Y-111870936D01*
X123178319Y-111870936D02*
X123097507Y-111897873D01*
X123097507Y-111897873D02*
X122962820Y-111978685D01*
X122962820Y-111978685D02*
X122882008Y-112059498D01*
X122882008Y-112059498D02*
X122801196Y-112194185D01*
X122801196Y-112194185D02*
X122774258Y-112274997D01*
X122774258Y-112274997D02*
X122774258Y-112382746D01*
X122774258Y-112382746D02*
X122828133Y-112490496D01*
X122828133Y-112490496D02*
X122882008Y-112544371D01*
X122882008Y-112544371D02*
X122989758Y-112598246D01*
X122989758Y-112598246D02*
X123043632Y-112598246D01*
X123043632Y-112598246D02*
X123232194Y-112409684D01*
X123232194Y-112409684D02*
X123124445Y-112301934D01*
X123232194Y-112894557D02*
X123797880Y-112328872D01*
X123797880Y-112328872D02*
X123555443Y-113217806D01*
X123555443Y-113217806D02*
X124121128Y-112652120D01*
X123824817Y-113487180D02*
X124390502Y-112921494D01*
X124390502Y-112921494D02*
X124525189Y-113056181D01*
X124525189Y-113056181D02*
X124579064Y-113163931D01*
X124579064Y-113163931D02*
X124579064Y-113271680D01*
X124579064Y-113271680D02*
X124552127Y-113352493D01*
X124552127Y-113352493D02*
X124471314Y-113487180D01*
X124471314Y-113487180D02*
X124390502Y-113567992D01*
X124390502Y-113567992D02*
X124255815Y-113648804D01*
X124255815Y-113648804D02*
X124175003Y-113675741D01*
X124175003Y-113675741D02*
X124067253Y-113675741D01*
X124067253Y-113675741D02*
X123959504Y-113621867D01*
X123959504Y-113621867D02*
X123824817Y-113487180D01*
X151478505Y-86413372D02*
X151451568Y-86332560D01*
X151451568Y-86332560D02*
X151370756Y-86251748D01*
X151370756Y-86251748D02*
X151263006Y-86197873D01*
X151263006Y-86197873D02*
X151155257Y-86197873D01*
X151155257Y-86197873D02*
X151074444Y-86224810D01*
X151074444Y-86224810D02*
X150939757Y-86305623D01*
X150939757Y-86305623D02*
X150858945Y-86386435D01*
X150858945Y-86386435D02*
X150778133Y-86521122D01*
X150778133Y-86521122D02*
X150751196Y-86601934D01*
X150751196Y-86601934D02*
X150751196Y-86709684D01*
X150751196Y-86709684D02*
X150805070Y-86817433D01*
X150805070Y-86817433D02*
X150858945Y-86871308D01*
X150858945Y-86871308D02*
X150966695Y-86925183D01*
X150966695Y-86925183D02*
X151020570Y-86925183D01*
X151020570Y-86925183D02*
X151209131Y-86736621D01*
X151209131Y-86736621D02*
X151101382Y-86628871D01*
X151209131Y-87221494D02*
X151774817Y-86655809D01*
X151774817Y-86655809D02*
X151990316Y-86871308D01*
X151990316Y-86871308D02*
X152017253Y-86952120D01*
X152017253Y-86952120D02*
X152017253Y-87005995D01*
X152017253Y-87005995D02*
X151990316Y-87086807D01*
X151990316Y-87086807D02*
X151909504Y-87167619D01*
X151909504Y-87167619D02*
X151828692Y-87194557D01*
X151828692Y-87194557D02*
X151774817Y-87194557D01*
X151774817Y-87194557D02*
X151694005Y-87167619D01*
X151694005Y-87167619D02*
X151478505Y-86952120D01*
X152071128Y-88083491D02*
X151747879Y-87760242D01*
X151909504Y-87921867D02*
X152475189Y-87356181D01*
X152475189Y-87356181D02*
X152340502Y-87383119D01*
X152340502Y-87383119D02*
X152232753Y-87383119D01*
X152232753Y-87383119D02*
X152151940Y-87356181D01*
X153472414Y-111953406D02*
X153095290Y-112707653D01*
X153095290Y-112707653D02*
X153849537Y-112330529D01*
X153957287Y-112977027D02*
X154011161Y-113084776D01*
X154011161Y-113084776D02*
X154011161Y-113138651D01*
X154011161Y-113138651D02*
X153984224Y-113219463D01*
X153984224Y-113219463D02*
X153903412Y-113300276D01*
X153903412Y-113300276D02*
X153822600Y-113327213D01*
X153822600Y-113327213D02*
X153768725Y-113327213D01*
X153768725Y-113327213D02*
X153687913Y-113300276D01*
X153687913Y-113300276D02*
X153472413Y-113084776D01*
X153472413Y-113084776D02*
X154038099Y-112519091D01*
X154038099Y-112519091D02*
X154226661Y-112707653D01*
X154226661Y-112707653D02*
X154253598Y-112788465D01*
X154253598Y-112788465D02*
X154253598Y-112842340D01*
X154253598Y-112842340D02*
X154226661Y-112923152D01*
X154226661Y-112923152D02*
X154172786Y-112977027D01*
X154172786Y-112977027D02*
X154091974Y-113003964D01*
X154091974Y-113003964D02*
X154038099Y-113003964D01*
X154038099Y-113003964D02*
X153957287Y-112977027D01*
X153957287Y-112977027D02*
X153768725Y-112788465D01*
X154603784Y-113084776D02*
X154145848Y-113542712D01*
X154145848Y-113542712D02*
X154118911Y-113623524D01*
X154118911Y-113623524D02*
X154118911Y-113677399D01*
X154118911Y-113677399D02*
X154145848Y-113758211D01*
X154145848Y-113758211D02*
X154253598Y-113865961D01*
X154253598Y-113865961D02*
X154334410Y-113892898D01*
X154334410Y-113892898D02*
X154388285Y-113892898D01*
X154388285Y-113892898D02*
X154469097Y-113865961D01*
X154469097Y-113865961D02*
X154927033Y-113408025D01*
X154630722Y-114189210D02*
X154684596Y-114296959D01*
X154684596Y-114296959D02*
X154819283Y-114431646D01*
X154819283Y-114431646D02*
X154900096Y-114458584D01*
X154900096Y-114458584D02*
X154953970Y-114458584D01*
X154953970Y-114458584D02*
X155034783Y-114431646D01*
X155034783Y-114431646D02*
X155088657Y-114377771D01*
X155088657Y-114377771D02*
X155115595Y-114296959D01*
X155115595Y-114296959D02*
X155115595Y-114243084D01*
X155115595Y-114243084D02*
X155088657Y-114162272D01*
X155088657Y-114162272D02*
X155007845Y-114027585D01*
X155007845Y-114027585D02*
X154980908Y-113946773D01*
X154980908Y-113946773D02*
X154980908Y-113892898D01*
X154980908Y-113892898D02*
X155007845Y-113812086D01*
X155007845Y-113812086D02*
X155061720Y-113758211D01*
X155061720Y-113758211D02*
X155142532Y-113731274D01*
X155142532Y-113731274D02*
X155196407Y-113731274D01*
X155196407Y-113731274D02*
X155277219Y-113758211D01*
X155277219Y-113758211D02*
X155411906Y-113892898D01*
X155411906Y-113892898D02*
X155465781Y-114000648D01*
X130879131Y-112097998D02*
X130852194Y-112017185D01*
X130852194Y-112017185D02*
X130771381Y-111936373D01*
X130771381Y-111936373D02*
X130663632Y-111882498D01*
X130663632Y-111882498D02*
X130555882Y-111882498D01*
X130555882Y-111882498D02*
X130475070Y-111909436D01*
X130475070Y-111909436D02*
X130340383Y-111990248D01*
X130340383Y-111990248D02*
X130259571Y-112071060D01*
X130259571Y-112071060D02*
X130178758Y-112205747D01*
X130178758Y-112205747D02*
X130151821Y-112286560D01*
X130151821Y-112286560D02*
X130151821Y-112394309D01*
X130151821Y-112394309D02*
X130205696Y-112502059D01*
X130205696Y-112502059D02*
X130259571Y-112555934D01*
X130259571Y-112555934D02*
X130367320Y-112609808D01*
X130367320Y-112609808D02*
X130421195Y-112609808D01*
X130421195Y-112609808D02*
X130609757Y-112421247D01*
X130609757Y-112421247D02*
X130502007Y-112313497D01*
X130609757Y-112906120D02*
X131175442Y-112340434D01*
X131175442Y-112340434D02*
X131390942Y-112555934D01*
X131390942Y-112555934D02*
X131417879Y-112636746D01*
X131417879Y-112636746D02*
X131417879Y-112690621D01*
X131417879Y-112690621D02*
X131390942Y-112771433D01*
X131390942Y-112771433D02*
X131310129Y-112852245D01*
X131310129Y-112852245D02*
X131229317Y-112879182D01*
X131229317Y-112879182D02*
X131175442Y-112879182D01*
X131175442Y-112879182D02*
X131094630Y-112852245D01*
X131094630Y-112852245D02*
X130879131Y-112636746D01*
X131660316Y-112933057D02*
X131714190Y-112933057D01*
X131714190Y-112933057D02*
X131795003Y-112959995D01*
X131795003Y-112959995D02*
X131929690Y-113094682D01*
X131929690Y-113094682D02*
X131956627Y-113175494D01*
X131956627Y-113175494D02*
X131956627Y-113229369D01*
X131956627Y-113229369D02*
X131929690Y-113310181D01*
X131929690Y-113310181D02*
X131875815Y-113364056D01*
X131875815Y-113364056D02*
X131768065Y-113417930D01*
X131768065Y-113417930D02*
X131121568Y-113417930D01*
X131121568Y-113417930D02*
X131471754Y-113768117D01*
X132522313Y-113687305D02*
X132414563Y-113579555D01*
X132414563Y-113579555D02*
X132333751Y-113552618D01*
X132333751Y-113552618D02*
X132279876Y-113552618D01*
X132279876Y-113552618D02*
X132145189Y-113579555D01*
X132145189Y-113579555D02*
X132010502Y-113660367D01*
X132010502Y-113660367D02*
X131795003Y-113875866D01*
X131795003Y-113875866D02*
X131768065Y-113956679D01*
X131768065Y-113956679D02*
X131768065Y-114010553D01*
X131768065Y-114010553D02*
X131795003Y-114091366D01*
X131795003Y-114091366D02*
X131902752Y-114199115D01*
X131902752Y-114199115D02*
X131983565Y-114226053D01*
X131983565Y-114226053D02*
X132037439Y-114226053D01*
X132037439Y-114226053D02*
X132118252Y-114199115D01*
X132118252Y-114199115D02*
X132252939Y-114064428D01*
X132252939Y-114064428D02*
X132279876Y-113983616D01*
X132279876Y-113983616D02*
X132279876Y-113929741D01*
X132279876Y-113929741D02*
X132252939Y-113848929D01*
X132252939Y-113848929D02*
X132145189Y-113741179D01*
X132145189Y-113741179D02*
X132064377Y-113714242D01*
X132064377Y-113714242D02*
X132010502Y-113714242D01*
X132010502Y-113714242D02*
X131929690Y-113741179D01*
X110801568Y-112086435D02*
X110774631Y-112005623D01*
X110774631Y-112005623D02*
X110693819Y-111924811D01*
X110693819Y-111924811D02*
X110586069Y-111870936D01*
X110586069Y-111870936D02*
X110478319Y-111870936D01*
X110478319Y-111870936D02*
X110397507Y-111897873D01*
X110397507Y-111897873D02*
X110262820Y-111978685D01*
X110262820Y-111978685D02*
X110182008Y-112059498D01*
X110182008Y-112059498D02*
X110101196Y-112194185D01*
X110101196Y-112194185D02*
X110074258Y-112274997D01*
X110074258Y-112274997D02*
X110074258Y-112382746D01*
X110074258Y-112382746D02*
X110128133Y-112490496D01*
X110128133Y-112490496D02*
X110182008Y-112544371D01*
X110182008Y-112544371D02*
X110289758Y-112598246D01*
X110289758Y-112598246D02*
X110343632Y-112598246D01*
X110343632Y-112598246D02*
X110532194Y-112409684D01*
X110532194Y-112409684D02*
X110424445Y-112301934D01*
X110532194Y-112894557D02*
X111097880Y-112328872D01*
X111097880Y-112328872D02*
X110855443Y-113217806D01*
X110855443Y-113217806D02*
X111421128Y-112652120D01*
X111124817Y-113487180D02*
X111690502Y-112921494D01*
X111690502Y-112921494D02*
X111825189Y-113056181D01*
X111825189Y-113056181D02*
X111879064Y-113163931D01*
X111879064Y-113163931D02*
X111879064Y-113271680D01*
X111879064Y-113271680D02*
X111852127Y-113352493D01*
X111852127Y-113352493D02*
X111771314Y-113487180D01*
X111771314Y-113487180D02*
X111690502Y-113567992D01*
X111690502Y-113567992D02*
X111555815Y-113648804D01*
X111555815Y-113648804D02*
X111475003Y-113675741D01*
X111475003Y-113675741D02*
X111367253Y-113675741D01*
X111367253Y-113675741D02*
X111259504Y-113621867D01*
X111259504Y-113621867D02*
X111124817Y-113487180D01*
X140465950Y-112155064D02*
X140735324Y-112424438D01*
X140250450Y-112262813D02*
X141004698Y-111885690D01*
X141004698Y-111885690D02*
X140627574Y-112639937D01*
X140816136Y-112828499D02*
X141381821Y-112262813D01*
X141381821Y-112262813D02*
X141516508Y-112397500D01*
X141516508Y-112397500D02*
X141570383Y-112505250D01*
X141570383Y-112505250D02*
X141570383Y-112612999D01*
X141570383Y-112612999D02*
X141543446Y-112693812D01*
X141543446Y-112693812D02*
X141462633Y-112828499D01*
X141462633Y-112828499D02*
X141381821Y-112909311D01*
X141381821Y-112909311D02*
X141247134Y-112990123D01*
X141247134Y-112990123D02*
X141166322Y-113017060D01*
X141166322Y-113017060D02*
X141058572Y-113017060D01*
X141058572Y-113017060D02*
X140950823Y-112963186D01*
X140950823Y-112963186D02*
X140816136Y-112828499D01*
X141758945Y-113663558D02*
X141705070Y-113663558D01*
X141705070Y-113663558D02*
X141597320Y-113609683D01*
X141597320Y-113609683D02*
X141543446Y-113555808D01*
X141543446Y-113555808D02*
X141489571Y-113448059D01*
X141489571Y-113448059D02*
X141489571Y-113340309D01*
X141489571Y-113340309D02*
X141516508Y-113259497D01*
X141516508Y-113259497D02*
X141597320Y-113124810D01*
X141597320Y-113124810D02*
X141678133Y-113043998D01*
X141678133Y-113043998D02*
X141812820Y-112963186D01*
X141812820Y-112963186D02*
X141893632Y-112936248D01*
X141893632Y-112936248D02*
X142001381Y-112936248D01*
X142001381Y-112936248D02*
X142109131Y-112990123D01*
X142109131Y-112990123D02*
X142163006Y-113043998D01*
X142163006Y-113043998D02*
X142216881Y-113151747D01*
X142216881Y-113151747D02*
X142216881Y-113205622D01*
X141758945Y-113879057D02*
X142189943Y-114310056D01*
X142863378Y-113744370D02*
X142486255Y-114498618D01*
X142486255Y-114498618D02*
X143240502Y-114121494D01*
X143186627Y-115198990D02*
X143267439Y-114741054D01*
X142863378Y-114875741D02*
X143429064Y-114310056D01*
X143429064Y-114310056D02*
X143644563Y-114525555D01*
X143644563Y-114525555D02*
X143671500Y-114606367D01*
X143671500Y-114606367D02*
X143671500Y-114660242D01*
X143671500Y-114660242D02*
X143644563Y-114741054D01*
X143644563Y-114741054D02*
X143563751Y-114821866D01*
X143563751Y-114821866D02*
X143482938Y-114848804D01*
X143482938Y-114848804D02*
X143429064Y-114848804D01*
X143429064Y-114848804D02*
X143348251Y-114821866D01*
X143348251Y-114821866D02*
X143132752Y-114606367D01*
X143725375Y-115145115D02*
X143913937Y-115333677D01*
X143698438Y-115710800D02*
X143429064Y-115441426D01*
X143429064Y-115441426D02*
X143994749Y-114875741D01*
X143994749Y-114875741D02*
X144264123Y-115145115D01*
X144425748Y-115845488D02*
X144237186Y-115656926D01*
X143940874Y-115953237D02*
X144506560Y-115387552D01*
X144506560Y-115387552D02*
X144775934Y-115656926D01*
X133409131Y-112097998D02*
X133382194Y-112017185D01*
X133382194Y-112017185D02*
X133301381Y-111936373D01*
X133301381Y-111936373D02*
X133193632Y-111882498D01*
X133193632Y-111882498D02*
X133085882Y-111882498D01*
X133085882Y-111882498D02*
X133005070Y-111909436D01*
X133005070Y-111909436D02*
X132870383Y-111990248D01*
X132870383Y-111990248D02*
X132789571Y-112071060D01*
X132789571Y-112071060D02*
X132708758Y-112205747D01*
X132708758Y-112205747D02*
X132681821Y-112286560D01*
X132681821Y-112286560D02*
X132681821Y-112394309D01*
X132681821Y-112394309D02*
X132735696Y-112502059D01*
X132735696Y-112502059D02*
X132789571Y-112555934D01*
X132789571Y-112555934D02*
X132897320Y-112609808D01*
X132897320Y-112609808D02*
X132951195Y-112609808D01*
X132951195Y-112609808D02*
X133139757Y-112421247D01*
X133139757Y-112421247D02*
X133032007Y-112313497D01*
X133139757Y-112906120D02*
X133705442Y-112340434D01*
X133705442Y-112340434D02*
X133920942Y-112555934D01*
X133920942Y-112555934D02*
X133947879Y-112636746D01*
X133947879Y-112636746D02*
X133947879Y-112690621D01*
X133947879Y-112690621D02*
X133920942Y-112771433D01*
X133920942Y-112771433D02*
X133840129Y-112852245D01*
X133840129Y-112852245D02*
X133759317Y-112879182D01*
X133759317Y-112879182D02*
X133705442Y-112879182D01*
X133705442Y-112879182D02*
X133624630Y-112852245D01*
X133624630Y-112852245D02*
X133409131Y-112636746D01*
X134190316Y-112933057D02*
X134244190Y-112933057D01*
X134244190Y-112933057D02*
X134325003Y-112959995D01*
X134325003Y-112959995D02*
X134459690Y-113094682D01*
X134459690Y-113094682D02*
X134486627Y-113175494D01*
X134486627Y-113175494D02*
X134486627Y-113229369D01*
X134486627Y-113229369D02*
X134459690Y-113310181D01*
X134459690Y-113310181D02*
X134405815Y-113364056D01*
X134405815Y-113364056D02*
X134298065Y-113417930D01*
X134298065Y-113417930D02*
X133651568Y-113417930D01*
X133651568Y-113417930D02*
X134001754Y-113768117D01*
X134756001Y-113390993D02*
X135133125Y-113768117D01*
X135133125Y-113768117D02*
X134325003Y-114091366D01*
X150929757Y-111920749D02*
X150552633Y-112674996D01*
X150552633Y-112674996D02*
X151306881Y-112297873D01*
X150929757Y-112998245D02*
X150983632Y-113105995D01*
X150983632Y-113105995D02*
X151118319Y-113240682D01*
X151118319Y-113240682D02*
X151199131Y-113267619D01*
X151199131Y-113267619D02*
X151253006Y-113267619D01*
X151253006Y-113267619D02*
X151333818Y-113240682D01*
X151333818Y-113240682D02*
X151387693Y-113186807D01*
X151387693Y-113186807D02*
X151414630Y-113105995D01*
X151414630Y-113105995D02*
X151414630Y-113052120D01*
X151414630Y-113052120D02*
X151387693Y-112971308D01*
X151387693Y-112971308D02*
X151306881Y-112836621D01*
X151306881Y-112836621D02*
X151279943Y-112755808D01*
X151279943Y-112755808D02*
X151279943Y-112701934D01*
X151279943Y-112701934D02*
X151306881Y-112621121D01*
X151306881Y-112621121D02*
X151360755Y-112567247D01*
X151360755Y-112567247D02*
X151441568Y-112540309D01*
X151441568Y-112540309D02*
X151495442Y-112540309D01*
X151495442Y-112540309D02*
X151576255Y-112567247D01*
X151576255Y-112567247D02*
X151710942Y-112701934D01*
X151710942Y-112701934D02*
X151764816Y-112809683D01*
X151845629Y-113429244D02*
X151576255Y-113698618D01*
X151953378Y-112944370D02*
X151845629Y-113429244D01*
X151845629Y-113429244D02*
X152330502Y-113321494D01*
X151953378Y-114021866D02*
X152007253Y-114129616D01*
X152007253Y-114129616D02*
X152141940Y-114264303D01*
X152141940Y-114264303D02*
X152222752Y-114291240D01*
X152222752Y-114291240D02*
X152276627Y-114291240D01*
X152276627Y-114291240D02*
X152357439Y-114264303D01*
X152357439Y-114264303D02*
X152411314Y-114210428D01*
X152411314Y-114210428D02*
X152438251Y-114129616D01*
X152438251Y-114129616D02*
X152438251Y-114075741D01*
X152438251Y-114075741D02*
X152411314Y-113994929D01*
X152411314Y-113994929D02*
X152330502Y-113860242D01*
X152330502Y-113860242D02*
X152303564Y-113779430D01*
X152303564Y-113779430D02*
X152303564Y-113725555D01*
X152303564Y-113725555D02*
X152330502Y-113644743D01*
X152330502Y-113644743D02*
X152384377Y-113590868D01*
X152384377Y-113590868D02*
X152465189Y-113563930D01*
X152465189Y-113563930D02*
X152519064Y-113563930D01*
X152519064Y-113563930D02*
X152599876Y-113590868D01*
X152599876Y-113590868D02*
X152734563Y-113725555D01*
X152734563Y-113725555D02*
X152788438Y-113833304D01*
X105479131Y-85989998D02*
X105452194Y-85909185D01*
X105452194Y-85909185D02*
X105371381Y-85828373D01*
X105371381Y-85828373D02*
X105263632Y-85774498D01*
X105263632Y-85774498D02*
X105155882Y-85774498D01*
X105155882Y-85774498D02*
X105075070Y-85801436D01*
X105075070Y-85801436D02*
X104940383Y-85882248D01*
X104940383Y-85882248D02*
X104859571Y-85963060D01*
X104859571Y-85963060D02*
X104778758Y-86097747D01*
X104778758Y-86097747D02*
X104751821Y-86178560D01*
X104751821Y-86178560D02*
X104751821Y-86286309D01*
X104751821Y-86286309D02*
X104805696Y-86394059D01*
X104805696Y-86394059D02*
X104859571Y-86447934D01*
X104859571Y-86447934D02*
X104967320Y-86501808D01*
X104967320Y-86501808D02*
X105021195Y-86501808D01*
X105021195Y-86501808D02*
X105209757Y-86313247D01*
X105209757Y-86313247D02*
X105102007Y-86205497D01*
X105209757Y-86798120D02*
X105775442Y-86232434D01*
X105775442Y-86232434D02*
X105990942Y-86447934D01*
X105990942Y-86447934D02*
X106017879Y-86528746D01*
X106017879Y-86528746D02*
X106017879Y-86582621D01*
X106017879Y-86582621D02*
X105990942Y-86663433D01*
X105990942Y-86663433D02*
X105910129Y-86744245D01*
X105910129Y-86744245D02*
X105829317Y-86771182D01*
X105829317Y-86771182D02*
X105775442Y-86771182D01*
X105775442Y-86771182D02*
X105694630Y-86744245D01*
X105694630Y-86744245D02*
X105479131Y-86528746D01*
X106071754Y-87660117D02*
X105748505Y-87336868D01*
X105910129Y-87498492D02*
X106475815Y-86932807D01*
X106475815Y-86932807D02*
X106341128Y-86959744D01*
X106341128Y-86959744D02*
X106233378Y-86959744D01*
X106233378Y-86959744D02*
X106152566Y-86932807D01*
X107149250Y-87606242D02*
X106879876Y-87336868D01*
X106879876Y-87336868D02*
X106583565Y-87579305D01*
X106583565Y-87579305D02*
X106637439Y-87579305D01*
X106637439Y-87579305D02*
X106718252Y-87606242D01*
X106718252Y-87606242D02*
X106852939Y-87740929D01*
X106852939Y-87740929D02*
X106879876Y-87821741D01*
X106879876Y-87821741D02*
X106879876Y-87875616D01*
X106879876Y-87875616D02*
X106852939Y-87956428D01*
X106852939Y-87956428D02*
X106718252Y-88091115D01*
X106718252Y-88091115D02*
X106637439Y-88118053D01*
X106637439Y-88118053D02*
X106583565Y-88118053D01*
X106583565Y-88118053D02*
X106502752Y-88091115D01*
X106502752Y-88091115D02*
X106368065Y-87956428D01*
X106368065Y-87956428D02*
X106341128Y-87875616D01*
X106341128Y-87875616D02*
X106341128Y-87821741D01*
X126068505Y-86513372D02*
X126041568Y-86432560D01*
X126041568Y-86432560D02*
X125960756Y-86351748D01*
X125960756Y-86351748D02*
X125853006Y-86297873D01*
X125853006Y-86297873D02*
X125745257Y-86297873D01*
X125745257Y-86297873D02*
X125664444Y-86324810D01*
X125664444Y-86324810D02*
X125529757Y-86405623D01*
X125529757Y-86405623D02*
X125448945Y-86486435D01*
X125448945Y-86486435D02*
X125368133Y-86621122D01*
X125368133Y-86621122D02*
X125341196Y-86701934D01*
X125341196Y-86701934D02*
X125341196Y-86809684D01*
X125341196Y-86809684D02*
X125395070Y-86917433D01*
X125395070Y-86917433D02*
X125448945Y-86971308D01*
X125448945Y-86971308D02*
X125556695Y-87025183D01*
X125556695Y-87025183D02*
X125610570Y-87025183D01*
X125610570Y-87025183D02*
X125799131Y-86836621D01*
X125799131Y-86836621D02*
X125691382Y-86728871D01*
X125799131Y-87321494D02*
X126364817Y-86755809D01*
X126364817Y-86755809D02*
X126580316Y-86971308D01*
X126580316Y-86971308D02*
X126607253Y-87052120D01*
X126607253Y-87052120D02*
X126607253Y-87105995D01*
X126607253Y-87105995D02*
X126580316Y-87186807D01*
X126580316Y-87186807D02*
X126499504Y-87267619D01*
X126499504Y-87267619D02*
X126418692Y-87294557D01*
X126418692Y-87294557D02*
X126364817Y-87294557D01*
X126364817Y-87294557D02*
X126284005Y-87267619D01*
X126284005Y-87267619D02*
X126068505Y-87052120D01*
X126391754Y-87914117D02*
X126499504Y-88021867D01*
X126499504Y-88021867D02*
X126580316Y-88048804D01*
X126580316Y-88048804D02*
X126634191Y-88048804D01*
X126634191Y-88048804D02*
X126768878Y-88021867D01*
X126768878Y-88021867D02*
X126903565Y-87941054D01*
X126903565Y-87941054D02*
X127119064Y-87725555D01*
X127119064Y-87725555D02*
X127146001Y-87644743D01*
X127146001Y-87644743D02*
X127146001Y-87590868D01*
X127146001Y-87590868D02*
X127119064Y-87510056D01*
X127119064Y-87510056D02*
X127011314Y-87402306D01*
X127011314Y-87402306D02*
X126930502Y-87375369D01*
X126930502Y-87375369D02*
X126876627Y-87375369D01*
X126876627Y-87375369D02*
X126795815Y-87402306D01*
X126795815Y-87402306D02*
X126661128Y-87536993D01*
X126661128Y-87536993D02*
X126634191Y-87617806D01*
X126634191Y-87617806D02*
X126634191Y-87671680D01*
X126634191Y-87671680D02*
X126661128Y-87752493D01*
X126661128Y-87752493D02*
X126768878Y-87860242D01*
X126768878Y-87860242D02*
X126849690Y-87887180D01*
X126849690Y-87887180D02*
X126903565Y-87887180D01*
X126903565Y-87887180D02*
X126984377Y-87860242D01*
X128608505Y-86513372D02*
X128581568Y-86432560D01*
X128581568Y-86432560D02*
X128500756Y-86351748D01*
X128500756Y-86351748D02*
X128393006Y-86297873D01*
X128393006Y-86297873D02*
X128285257Y-86297873D01*
X128285257Y-86297873D02*
X128204444Y-86324810D01*
X128204444Y-86324810D02*
X128069757Y-86405623D01*
X128069757Y-86405623D02*
X127988945Y-86486435D01*
X127988945Y-86486435D02*
X127908133Y-86621122D01*
X127908133Y-86621122D02*
X127881196Y-86701934D01*
X127881196Y-86701934D02*
X127881196Y-86809684D01*
X127881196Y-86809684D02*
X127935070Y-86917433D01*
X127935070Y-86917433D02*
X127988945Y-86971308D01*
X127988945Y-86971308D02*
X128096695Y-87025183D01*
X128096695Y-87025183D02*
X128150570Y-87025183D01*
X128150570Y-87025183D02*
X128339131Y-86836621D01*
X128339131Y-86836621D02*
X128231382Y-86728871D01*
X128339131Y-87321494D02*
X128904817Y-86755809D01*
X128904817Y-86755809D02*
X129120316Y-86971308D01*
X129120316Y-86971308D02*
X129147253Y-87052120D01*
X129147253Y-87052120D02*
X129147253Y-87105995D01*
X129147253Y-87105995D02*
X129120316Y-87186807D01*
X129120316Y-87186807D02*
X129039504Y-87267619D01*
X129039504Y-87267619D02*
X128958692Y-87294557D01*
X128958692Y-87294557D02*
X128904817Y-87294557D01*
X128904817Y-87294557D02*
X128824005Y-87267619D01*
X128824005Y-87267619D02*
X128608505Y-87052120D01*
X129308878Y-87644743D02*
X129281940Y-87563931D01*
X129281940Y-87563931D02*
X129281940Y-87510056D01*
X129281940Y-87510056D02*
X129308878Y-87429244D01*
X129308878Y-87429244D02*
X129335815Y-87402306D01*
X129335815Y-87402306D02*
X129416627Y-87375369D01*
X129416627Y-87375369D02*
X129470502Y-87375369D01*
X129470502Y-87375369D02*
X129551314Y-87402306D01*
X129551314Y-87402306D02*
X129659064Y-87510056D01*
X129659064Y-87510056D02*
X129686001Y-87590868D01*
X129686001Y-87590868D02*
X129686001Y-87644743D01*
X129686001Y-87644743D02*
X129659064Y-87725555D01*
X129659064Y-87725555D02*
X129632127Y-87752493D01*
X129632127Y-87752493D02*
X129551314Y-87779430D01*
X129551314Y-87779430D02*
X129497440Y-87779430D01*
X129497440Y-87779430D02*
X129416627Y-87752493D01*
X129416627Y-87752493D02*
X129308878Y-87644743D01*
X129308878Y-87644743D02*
X129228066Y-87617806D01*
X129228066Y-87617806D02*
X129174191Y-87617806D01*
X129174191Y-87617806D02*
X129093379Y-87644743D01*
X129093379Y-87644743D02*
X128985629Y-87752493D01*
X128985629Y-87752493D02*
X128958692Y-87833305D01*
X128958692Y-87833305D02*
X128958692Y-87887180D01*
X128958692Y-87887180D02*
X128985629Y-87967992D01*
X128985629Y-87967992D02*
X129093379Y-88075741D01*
X129093379Y-88075741D02*
X129174191Y-88102679D01*
X129174191Y-88102679D02*
X129228066Y-88102679D01*
X129228066Y-88102679D02*
X129308878Y-88075741D01*
X129308878Y-88075741D02*
X129416627Y-87967992D01*
X129416627Y-87967992D02*
X129443565Y-87887180D01*
X129443565Y-87887180D02*
X129443565Y-87833305D01*
X129443565Y-87833305D02*
X129416627Y-87752493D01*
X148901568Y-86486435D02*
X148874631Y-86405623D01*
X148874631Y-86405623D02*
X148793819Y-86324811D01*
X148793819Y-86324811D02*
X148686069Y-86270936D01*
X148686069Y-86270936D02*
X148578319Y-86270936D01*
X148578319Y-86270936D02*
X148497507Y-86297873D01*
X148497507Y-86297873D02*
X148362820Y-86378685D01*
X148362820Y-86378685D02*
X148282008Y-86459498D01*
X148282008Y-86459498D02*
X148201196Y-86594185D01*
X148201196Y-86594185D02*
X148174258Y-86674997D01*
X148174258Y-86674997D02*
X148174258Y-86782746D01*
X148174258Y-86782746D02*
X148228133Y-86890496D01*
X148228133Y-86890496D02*
X148282008Y-86944371D01*
X148282008Y-86944371D02*
X148389758Y-86998246D01*
X148389758Y-86998246D02*
X148443632Y-86998246D01*
X148443632Y-86998246D02*
X148632194Y-86809684D01*
X148632194Y-86809684D02*
X148524445Y-86701934D01*
X148632194Y-87294557D02*
X149197880Y-86728872D01*
X149197880Y-86728872D02*
X148955443Y-87617806D01*
X148955443Y-87617806D02*
X149521128Y-87052120D01*
X149224817Y-87887180D02*
X149790502Y-87321494D01*
X149790502Y-87321494D02*
X149925189Y-87456181D01*
X149925189Y-87456181D02*
X149979064Y-87563931D01*
X149979064Y-87563931D02*
X149979064Y-87671680D01*
X149979064Y-87671680D02*
X149952127Y-87752493D01*
X149952127Y-87752493D02*
X149871314Y-87887180D01*
X149871314Y-87887180D02*
X149790502Y-87967992D01*
X149790502Y-87967992D02*
X149655815Y-88048804D01*
X149655815Y-88048804D02*
X149575003Y-88075741D01*
X149575003Y-88075741D02*
X149467253Y-88075741D01*
X149467253Y-88075741D02*
X149359504Y-88021867D01*
X149359504Y-88021867D02*
X149224817Y-87887180D01*
X138768505Y-86513372D02*
X138741568Y-86432560D01*
X138741568Y-86432560D02*
X138660756Y-86351748D01*
X138660756Y-86351748D02*
X138553006Y-86297873D01*
X138553006Y-86297873D02*
X138445257Y-86297873D01*
X138445257Y-86297873D02*
X138364444Y-86324810D01*
X138364444Y-86324810D02*
X138229757Y-86405623D01*
X138229757Y-86405623D02*
X138148945Y-86486435D01*
X138148945Y-86486435D02*
X138068133Y-86621122D01*
X138068133Y-86621122D02*
X138041196Y-86701934D01*
X138041196Y-86701934D02*
X138041196Y-86809684D01*
X138041196Y-86809684D02*
X138095070Y-86917433D01*
X138095070Y-86917433D02*
X138148945Y-86971308D01*
X138148945Y-86971308D02*
X138256695Y-87025183D01*
X138256695Y-87025183D02*
X138310570Y-87025183D01*
X138310570Y-87025183D02*
X138499131Y-86836621D01*
X138499131Y-86836621D02*
X138391382Y-86728871D01*
X138499131Y-87321494D02*
X139064817Y-86755809D01*
X139064817Y-86755809D02*
X139280316Y-86971308D01*
X139280316Y-86971308D02*
X139307253Y-87052120D01*
X139307253Y-87052120D02*
X139307253Y-87105995D01*
X139307253Y-87105995D02*
X139280316Y-87186807D01*
X139280316Y-87186807D02*
X139199504Y-87267619D01*
X139199504Y-87267619D02*
X139118692Y-87294557D01*
X139118692Y-87294557D02*
X139064817Y-87294557D01*
X139064817Y-87294557D02*
X138984005Y-87267619D01*
X138984005Y-87267619D02*
X138768505Y-87052120D01*
X139899876Y-87590868D02*
X139630502Y-87321494D01*
X139630502Y-87321494D02*
X139334191Y-87563931D01*
X139334191Y-87563931D02*
X139388066Y-87563931D01*
X139388066Y-87563931D02*
X139468878Y-87590868D01*
X139468878Y-87590868D02*
X139603565Y-87725555D01*
X139603565Y-87725555D02*
X139630502Y-87806367D01*
X139630502Y-87806367D02*
X139630502Y-87860242D01*
X139630502Y-87860242D02*
X139603565Y-87941054D01*
X139603565Y-87941054D02*
X139468878Y-88075741D01*
X139468878Y-88075741D02*
X139388066Y-88102679D01*
X139388066Y-88102679D02*
X139334191Y-88102679D01*
X139334191Y-88102679D02*
X139253379Y-88075741D01*
X139253379Y-88075741D02*
X139118692Y-87941054D01*
X139118692Y-87941054D02*
X139091754Y-87860242D01*
X139091754Y-87860242D02*
X139091754Y-87806367D01*
X143848505Y-86513372D02*
X143821568Y-86432560D01*
X143821568Y-86432560D02*
X143740756Y-86351748D01*
X143740756Y-86351748D02*
X143633006Y-86297873D01*
X143633006Y-86297873D02*
X143525257Y-86297873D01*
X143525257Y-86297873D02*
X143444444Y-86324810D01*
X143444444Y-86324810D02*
X143309757Y-86405623D01*
X143309757Y-86405623D02*
X143228945Y-86486435D01*
X143228945Y-86486435D02*
X143148133Y-86621122D01*
X143148133Y-86621122D02*
X143121196Y-86701934D01*
X143121196Y-86701934D02*
X143121196Y-86809684D01*
X143121196Y-86809684D02*
X143175070Y-86917433D01*
X143175070Y-86917433D02*
X143228945Y-86971308D01*
X143228945Y-86971308D02*
X143336695Y-87025183D01*
X143336695Y-87025183D02*
X143390570Y-87025183D01*
X143390570Y-87025183D02*
X143579131Y-86836621D01*
X143579131Y-86836621D02*
X143471382Y-86728871D01*
X143579131Y-87321494D02*
X144144817Y-86755809D01*
X144144817Y-86755809D02*
X144360316Y-86971308D01*
X144360316Y-86971308D02*
X144387253Y-87052120D01*
X144387253Y-87052120D02*
X144387253Y-87105995D01*
X144387253Y-87105995D02*
X144360316Y-87186807D01*
X144360316Y-87186807D02*
X144279504Y-87267619D01*
X144279504Y-87267619D02*
X144198692Y-87294557D01*
X144198692Y-87294557D02*
X144144817Y-87294557D01*
X144144817Y-87294557D02*
X144064005Y-87267619D01*
X144064005Y-87267619D02*
X143848505Y-87052120D01*
X144656627Y-87267619D02*
X145006814Y-87617806D01*
X145006814Y-87617806D02*
X144602753Y-87644743D01*
X144602753Y-87644743D02*
X144683565Y-87725555D01*
X144683565Y-87725555D02*
X144710502Y-87806367D01*
X144710502Y-87806367D02*
X144710502Y-87860242D01*
X144710502Y-87860242D02*
X144683565Y-87941054D01*
X144683565Y-87941054D02*
X144548878Y-88075741D01*
X144548878Y-88075741D02*
X144468066Y-88102679D01*
X144468066Y-88102679D02*
X144414191Y-88102679D01*
X144414191Y-88102679D02*
X144333379Y-88075741D01*
X144333379Y-88075741D02*
X144171754Y-87914117D01*
X144171754Y-87914117D02*
X144144817Y-87833305D01*
X144144817Y-87833305D02*
X144144817Y-87779430D01*
X146388505Y-86413372D02*
X146361568Y-86332560D01*
X146361568Y-86332560D02*
X146280756Y-86251748D01*
X146280756Y-86251748D02*
X146173006Y-86197873D01*
X146173006Y-86197873D02*
X146065257Y-86197873D01*
X146065257Y-86197873D02*
X145984444Y-86224810D01*
X145984444Y-86224810D02*
X145849757Y-86305623D01*
X145849757Y-86305623D02*
X145768945Y-86386435D01*
X145768945Y-86386435D02*
X145688133Y-86521122D01*
X145688133Y-86521122D02*
X145661196Y-86601934D01*
X145661196Y-86601934D02*
X145661196Y-86709684D01*
X145661196Y-86709684D02*
X145715070Y-86817433D01*
X145715070Y-86817433D02*
X145768945Y-86871308D01*
X145768945Y-86871308D02*
X145876695Y-86925183D01*
X145876695Y-86925183D02*
X145930570Y-86925183D01*
X145930570Y-86925183D02*
X146119131Y-86736621D01*
X146119131Y-86736621D02*
X146011382Y-86628871D01*
X146119131Y-87221494D02*
X146684817Y-86655809D01*
X146684817Y-86655809D02*
X146900316Y-86871308D01*
X146900316Y-86871308D02*
X146927253Y-86952120D01*
X146927253Y-86952120D02*
X146927253Y-87005995D01*
X146927253Y-87005995D02*
X146900316Y-87086807D01*
X146900316Y-87086807D02*
X146819504Y-87167619D01*
X146819504Y-87167619D02*
X146738692Y-87194557D01*
X146738692Y-87194557D02*
X146684817Y-87194557D01*
X146684817Y-87194557D02*
X146604005Y-87167619D01*
X146604005Y-87167619D02*
X146388505Y-86952120D01*
X147169690Y-87248432D02*
X147223565Y-87248432D01*
X147223565Y-87248432D02*
X147304377Y-87275369D01*
X147304377Y-87275369D02*
X147439064Y-87410056D01*
X147439064Y-87410056D02*
X147466001Y-87490868D01*
X147466001Y-87490868D02*
X147466001Y-87544743D01*
X147466001Y-87544743D02*
X147439064Y-87625555D01*
X147439064Y-87625555D02*
X147385189Y-87679430D01*
X147385189Y-87679430D02*
X147277440Y-87733305D01*
X147277440Y-87733305D02*
X146630942Y-87733305D01*
X146630942Y-87733305D02*
X146981128Y-88083491D01*
X113099131Y-112097998D02*
X113072194Y-112017185D01*
X113072194Y-112017185D02*
X112991381Y-111936373D01*
X112991381Y-111936373D02*
X112883632Y-111882498D01*
X112883632Y-111882498D02*
X112775882Y-111882498D01*
X112775882Y-111882498D02*
X112695070Y-111909436D01*
X112695070Y-111909436D02*
X112560383Y-111990248D01*
X112560383Y-111990248D02*
X112479571Y-112071060D01*
X112479571Y-112071060D02*
X112398758Y-112205747D01*
X112398758Y-112205747D02*
X112371821Y-112286560D01*
X112371821Y-112286560D02*
X112371821Y-112394309D01*
X112371821Y-112394309D02*
X112425696Y-112502059D01*
X112425696Y-112502059D02*
X112479571Y-112555934D01*
X112479571Y-112555934D02*
X112587320Y-112609808D01*
X112587320Y-112609808D02*
X112641195Y-112609808D01*
X112641195Y-112609808D02*
X112829757Y-112421247D01*
X112829757Y-112421247D02*
X112722007Y-112313497D01*
X112829757Y-112906120D02*
X113395442Y-112340434D01*
X113395442Y-112340434D02*
X113610942Y-112555934D01*
X113610942Y-112555934D02*
X113637879Y-112636746D01*
X113637879Y-112636746D02*
X113637879Y-112690621D01*
X113637879Y-112690621D02*
X113610942Y-112771433D01*
X113610942Y-112771433D02*
X113530129Y-112852245D01*
X113530129Y-112852245D02*
X113449317Y-112879182D01*
X113449317Y-112879182D02*
X113395442Y-112879182D01*
X113395442Y-112879182D02*
X113314630Y-112852245D01*
X113314630Y-112852245D02*
X113099131Y-112636746D01*
X113691754Y-113768117D02*
X113368505Y-113444868D01*
X113530129Y-113606492D02*
X114095815Y-113040807D01*
X114095815Y-113040807D02*
X113961128Y-113067744D01*
X113961128Y-113067744D02*
X113853378Y-113067744D01*
X113853378Y-113067744D02*
X113772566Y-113040807D01*
X114338252Y-113768117D02*
X114311314Y-113687305D01*
X114311314Y-113687305D02*
X114311314Y-113633430D01*
X114311314Y-113633430D02*
X114338252Y-113552618D01*
X114338252Y-113552618D02*
X114365189Y-113525680D01*
X114365189Y-113525680D02*
X114446001Y-113498743D01*
X114446001Y-113498743D02*
X114499876Y-113498743D01*
X114499876Y-113498743D02*
X114580688Y-113525680D01*
X114580688Y-113525680D02*
X114688438Y-113633430D01*
X114688438Y-113633430D02*
X114715375Y-113714242D01*
X114715375Y-113714242D02*
X114715375Y-113768117D01*
X114715375Y-113768117D02*
X114688438Y-113848929D01*
X114688438Y-113848929D02*
X114661500Y-113875866D01*
X114661500Y-113875866D02*
X114580688Y-113902804D01*
X114580688Y-113902804D02*
X114526813Y-113902804D01*
X114526813Y-113902804D02*
X114446001Y-113875866D01*
X114446001Y-113875866D02*
X114338252Y-113768117D01*
X114338252Y-113768117D02*
X114257439Y-113741179D01*
X114257439Y-113741179D02*
X114203565Y-113741179D01*
X114203565Y-113741179D02*
X114122752Y-113768117D01*
X114122752Y-113768117D02*
X114015003Y-113875866D01*
X114015003Y-113875866D02*
X113988065Y-113956679D01*
X113988065Y-113956679D02*
X113988065Y-114010553D01*
X113988065Y-114010553D02*
X114015003Y-114091366D01*
X114015003Y-114091366D02*
X114122752Y-114199115D01*
X114122752Y-114199115D02*
X114203565Y-114226053D01*
X114203565Y-114226053D02*
X114257439Y-114226053D01*
X114257439Y-114226053D02*
X114338252Y-114199115D01*
X114338252Y-114199115D02*
X114446001Y-114091366D01*
X114446001Y-114091366D02*
X114472939Y-114010553D01*
X114472939Y-114010553D02*
X114472939Y-113956679D01*
X114472939Y-113956679D02*
X114446001Y-113875866D01*
X104124200Y-107295238D02*
X104162295Y-107180952D01*
X104162295Y-107180952D02*
X104162295Y-106990476D01*
X104162295Y-106990476D02*
X104124200Y-106914285D01*
X104124200Y-106914285D02*
X104086104Y-106876190D01*
X104086104Y-106876190D02*
X104009914Y-106838095D01*
X104009914Y-106838095D02*
X103933723Y-106838095D01*
X103933723Y-106838095D02*
X103857533Y-106876190D01*
X103857533Y-106876190D02*
X103819438Y-106914285D01*
X103819438Y-106914285D02*
X103781342Y-106990476D01*
X103781342Y-106990476D02*
X103743247Y-107142857D01*
X103743247Y-107142857D02*
X103705152Y-107219047D01*
X103705152Y-107219047D02*
X103667057Y-107257142D01*
X103667057Y-107257142D02*
X103590866Y-107295238D01*
X103590866Y-107295238D02*
X103514676Y-107295238D01*
X103514676Y-107295238D02*
X103438485Y-107257142D01*
X103438485Y-107257142D02*
X103400390Y-107219047D01*
X103400390Y-107219047D02*
X103362295Y-107142857D01*
X103362295Y-107142857D02*
X103362295Y-106952380D01*
X103362295Y-106952380D02*
X103400390Y-106838095D01*
X103362295Y-106571428D02*
X104162295Y-106380952D01*
X104162295Y-106380952D02*
X103590866Y-106228571D01*
X103590866Y-106228571D02*
X104162295Y-106076190D01*
X104162295Y-106076190D02*
X103362295Y-105885714D01*
X104162295Y-105580951D02*
X103362295Y-105580951D01*
X103362295Y-105580951D02*
X103362295Y-105390475D01*
X103362295Y-105390475D02*
X103400390Y-105276189D01*
X103400390Y-105276189D02*
X103476580Y-105199999D01*
X103476580Y-105199999D02*
X103552771Y-105161904D01*
X103552771Y-105161904D02*
X103705152Y-105123808D01*
X103705152Y-105123808D02*
X103819438Y-105123808D01*
X103819438Y-105123808D02*
X103971819Y-105161904D01*
X103971819Y-105161904D02*
X104048009Y-105199999D01*
X104048009Y-105199999D02*
X104124200Y-105276189D01*
X104124200Y-105276189D02*
X104162295Y-105390475D01*
X104162295Y-105390475D02*
X104162295Y-105580951D01*
X104162295Y-104780951D02*
X103362295Y-104780951D01*
X103362295Y-104247618D02*
X103362295Y-104095237D01*
X103362295Y-104095237D02*
X103400390Y-104019047D01*
X103400390Y-104019047D02*
X103476580Y-103942856D01*
X103476580Y-103942856D02*
X103628961Y-103904761D01*
X103628961Y-103904761D02*
X103895628Y-103904761D01*
X103895628Y-103904761D02*
X104048009Y-103942856D01*
X104048009Y-103942856D02*
X104124200Y-104019047D01*
X104124200Y-104019047D02*
X104162295Y-104095237D01*
X104162295Y-104095237D02*
X104162295Y-104247618D01*
X104162295Y-104247618D02*
X104124200Y-104323809D01*
X104124200Y-104323809D02*
X104048009Y-104399999D01*
X104048009Y-104399999D02*
X103895628Y-104438095D01*
X103895628Y-104438095D02*
X103628961Y-104438095D01*
X103628961Y-104438095D02*
X103476580Y-104399999D01*
X103476580Y-104399999D02*
X103400390Y-104323809D01*
X103400390Y-104323809D02*
X103362295Y-104247618D01*
X120709131Y-112097998D02*
X120682194Y-112017185D01*
X120682194Y-112017185D02*
X120601381Y-111936373D01*
X120601381Y-111936373D02*
X120493632Y-111882498D01*
X120493632Y-111882498D02*
X120385882Y-111882498D01*
X120385882Y-111882498D02*
X120305070Y-111909436D01*
X120305070Y-111909436D02*
X120170383Y-111990248D01*
X120170383Y-111990248D02*
X120089571Y-112071060D01*
X120089571Y-112071060D02*
X120008758Y-112205747D01*
X120008758Y-112205747D02*
X119981821Y-112286560D01*
X119981821Y-112286560D02*
X119981821Y-112394309D01*
X119981821Y-112394309D02*
X120035696Y-112502059D01*
X120035696Y-112502059D02*
X120089571Y-112555934D01*
X120089571Y-112555934D02*
X120197320Y-112609808D01*
X120197320Y-112609808D02*
X120251195Y-112609808D01*
X120251195Y-112609808D02*
X120439757Y-112421247D01*
X120439757Y-112421247D02*
X120332007Y-112313497D01*
X120439757Y-112906120D02*
X121005442Y-112340434D01*
X121005442Y-112340434D02*
X121220942Y-112555934D01*
X121220942Y-112555934D02*
X121247879Y-112636746D01*
X121247879Y-112636746D02*
X121247879Y-112690621D01*
X121247879Y-112690621D02*
X121220942Y-112771433D01*
X121220942Y-112771433D02*
X121140129Y-112852245D01*
X121140129Y-112852245D02*
X121059317Y-112879182D01*
X121059317Y-112879182D02*
X121005442Y-112879182D01*
X121005442Y-112879182D02*
X120924630Y-112852245D01*
X120924630Y-112852245D02*
X120709131Y-112636746D01*
X121490316Y-112933057D02*
X121544190Y-112933057D01*
X121544190Y-112933057D02*
X121625003Y-112959995D01*
X121625003Y-112959995D02*
X121759690Y-113094682D01*
X121759690Y-113094682D02*
X121786627Y-113175494D01*
X121786627Y-113175494D02*
X121786627Y-113229369D01*
X121786627Y-113229369D02*
X121759690Y-113310181D01*
X121759690Y-113310181D02*
X121705815Y-113364056D01*
X121705815Y-113364056D02*
X121598065Y-113417930D01*
X121598065Y-113417930D02*
X120951568Y-113417930D01*
X120951568Y-113417930D02*
X121301754Y-113768117D01*
X121840502Y-114306865D02*
X121517253Y-113983616D01*
X121678878Y-114145240D02*
X122244563Y-113579555D01*
X122244563Y-113579555D02*
X122109876Y-113606492D01*
X122109876Y-113606492D02*
X122002126Y-113606492D01*
X122002126Y-113606492D02*
X121921314Y-113579555D01*
X141308505Y-86513372D02*
X141281568Y-86432560D01*
X141281568Y-86432560D02*
X141200756Y-86351748D01*
X141200756Y-86351748D02*
X141093006Y-86297873D01*
X141093006Y-86297873D02*
X140985257Y-86297873D01*
X140985257Y-86297873D02*
X140904444Y-86324810D01*
X140904444Y-86324810D02*
X140769757Y-86405623D01*
X140769757Y-86405623D02*
X140688945Y-86486435D01*
X140688945Y-86486435D02*
X140608133Y-86621122D01*
X140608133Y-86621122D02*
X140581196Y-86701934D01*
X140581196Y-86701934D02*
X140581196Y-86809684D01*
X140581196Y-86809684D02*
X140635070Y-86917433D01*
X140635070Y-86917433D02*
X140688945Y-86971308D01*
X140688945Y-86971308D02*
X140796695Y-87025183D01*
X140796695Y-87025183D02*
X140850570Y-87025183D01*
X140850570Y-87025183D02*
X141039131Y-86836621D01*
X141039131Y-86836621D02*
X140931382Y-86728871D01*
X141039131Y-87321494D02*
X141604817Y-86755809D01*
X141604817Y-86755809D02*
X141820316Y-86971308D01*
X141820316Y-86971308D02*
X141847253Y-87052120D01*
X141847253Y-87052120D02*
X141847253Y-87105995D01*
X141847253Y-87105995D02*
X141820316Y-87186807D01*
X141820316Y-87186807D02*
X141739504Y-87267619D01*
X141739504Y-87267619D02*
X141658692Y-87294557D01*
X141658692Y-87294557D02*
X141604817Y-87294557D01*
X141604817Y-87294557D02*
X141524005Y-87267619D01*
X141524005Y-87267619D02*
X141308505Y-87052120D01*
X142224377Y-87752493D02*
X141847253Y-88129616D01*
X142305189Y-87402306D02*
X141766441Y-87671680D01*
X141766441Y-87671680D02*
X142116627Y-88021867D01*
X118179131Y-85843998D02*
X118152194Y-85763185D01*
X118152194Y-85763185D02*
X118071381Y-85682373D01*
X118071381Y-85682373D02*
X117963632Y-85628498D01*
X117963632Y-85628498D02*
X117855882Y-85628498D01*
X117855882Y-85628498D02*
X117775070Y-85655436D01*
X117775070Y-85655436D02*
X117640383Y-85736248D01*
X117640383Y-85736248D02*
X117559571Y-85817060D01*
X117559571Y-85817060D02*
X117478758Y-85951747D01*
X117478758Y-85951747D02*
X117451821Y-86032560D01*
X117451821Y-86032560D02*
X117451821Y-86140309D01*
X117451821Y-86140309D02*
X117505696Y-86248059D01*
X117505696Y-86248059D02*
X117559571Y-86301934D01*
X117559571Y-86301934D02*
X117667320Y-86355808D01*
X117667320Y-86355808D02*
X117721195Y-86355808D01*
X117721195Y-86355808D02*
X117909757Y-86167247D01*
X117909757Y-86167247D02*
X117802007Y-86059497D01*
X117909757Y-86652120D02*
X118475442Y-86086434D01*
X118475442Y-86086434D02*
X118690942Y-86301934D01*
X118690942Y-86301934D02*
X118717879Y-86382746D01*
X118717879Y-86382746D02*
X118717879Y-86436621D01*
X118717879Y-86436621D02*
X118690942Y-86517433D01*
X118690942Y-86517433D02*
X118610129Y-86598245D01*
X118610129Y-86598245D02*
X118529317Y-86625182D01*
X118529317Y-86625182D02*
X118475442Y-86625182D01*
X118475442Y-86625182D02*
X118394630Y-86598245D01*
X118394630Y-86598245D02*
X118179131Y-86382746D01*
X118771754Y-87514117D02*
X118448505Y-87190868D01*
X118610129Y-87352492D02*
X119175815Y-86786807D01*
X119175815Y-86786807D02*
X119041128Y-86813744D01*
X119041128Y-86813744D02*
X118933378Y-86813744D01*
X118933378Y-86813744D02*
X118852566Y-86786807D01*
X119310502Y-88052865D02*
X118987253Y-87729616D01*
X119148878Y-87891240D02*
X119714563Y-87325555D01*
X119714563Y-87325555D02*
X119579876Y-87352492D01*
X119579876Y-87352492D02*
X119472126Y-87352492D01*
X119472126Y-87352492D02*
X119391314Y-87325555D01*
X135258759Y-112151873D02*
X135528133Y-112421247D01*
X135043260Y-112259623D02*
X135797507Y-111882499D01*
X135797507Y-111882499D02*
X135420384Y-112636746D01*
X136444005Y-112582871D02*
X136417067Y-112502059D01*
X136417067Y-112502059D02*
X136336255Y-112421247D01*
X136336255Y-112421247D02*
X136228505Y-112367372D01*
X136228505Y-112367372D02*
X136120756Y-112367372D01*
X136120756Y-112367372D02*
X136039944Y-112394310D01*
X136039944Y-112394310D02*
X135905257Y-112475122D01*
X135905257Y-112475122D02*
X135824444Y-112555934D01*
X135824444Y-112555934D02*
X135743632Y-112690621D01*
X135743632Y-112690621D02*
X135716695Y-112771433D01*
X135716695Y-112771433D02*
X135716695Y-112879183D01*
X135716695Y-112879183D02*
X135770570Y-112986932D01*
X135770570Y-112986932D02*
X135824444Y-113040807D01*
X135824444Y-113040807D02*
X135932194Y-113094682D01*
X135932194Y-113094682D02*
X135986069Y-113094682D01*
X135986069Y-113094682D02*
X136174631Y-112906120D01*
X136174631Y-112906120D02*
X136066881Y-112798371D01*
X136174631Y-113390993D02*
X136740316Y-112825308D01*
X136740316Y-112825308D02*
X136497879Y-113714242D01*
X136497879Y-113714242D02*
X137063565Y-113148557D01*
X136767253Y-113983616D02*
X137332939Y-113417931D01*
X137332939Y-113417931D02*
X137467626Y-113552618D01*
X137467626Y-113552618D02*
X137521501Y-113660367D01*
X137521501Y-113660367D02*
X137521501Y-113768117D01*
X137521501Y-113768117D02*
X137494563Y-113848929D01*
X137494563Y-113848929D02*
X137413751Y-113983616D01*
X137413751Y-113983616D02*
X137332939Y-114064428D01*
X137332939Y-114064428D02*
X137198252Y-114145241D01*
X137198252Y-114145241D02*
X137117439Y-114172178D01*
X137117439Y-114172178D02*
X137009690Y-114172178D01*
X137009690Y-114172178D02*
X136901940Y-114118303D01*
X136901940Y-114118303D02*
X136767253Y-113983616D01*
X118179131Y-112097998D02*
X118152194Y-112017185D01*
X118152194Y-112017185D02*
X118071381Y-111936373D01*
X118071381Y-111936373D02*
X117963632Y-111882498D01*
X117963632Y-111882498D02*
X117855882Y-111882498D01*
X117855882Y-111882498D02*
X117775070Y-111909436D01*
X117775070Y-111909436D02*
X117640383Y-111990248D01*
X117640383Y-111990248D02*
X117559571Y-112071060D01*
X117559571Y-112071060D02*
X117478758Y-112205747D01*
X117478758Y-112205747D02*
X117451821Y-112286560D01*
X117451821Y-112286560D02*
X117451821Y-112394309D01*
X117451821Y-112394309D02*
X117505696Y-112502059D01*
X117505696Y-112502059D02*
X117559571Y-112555934D01*
X117559571Y-112555934D02*
X117667320Y-112609808D01*
X117667320Y-112609808D02*
X117721195Y-112609808D01*
X117721195Y-112609808D02*
X117909757Y-112421247D01*
X117909757Y-112421247D02*
X117802007Y-112313497D01*
X117909757Y-112906120D02*
X118475442Y-112340434D01*
X118475442Y-112340434D02*
X118690942Y-112555934D01*
X118690942Y-112555934D02*
X118717879Y-112636746D01*
X118717879Y-112636746D02*
X118717879Y-112690621D01*
X118717879Y-112690621D02*
X118690942Y-112771433D01*
X118690942Y-112771433D02*
X118610129Y-112852245D01*
X118610129Y-112852245D02*
X118529317Y-112879182D01*
X118529317Y-112879182D02*
X118475442Y-112879182D01*
X118475442Y-112879182D02*
X118394630Y-112852245D01*
X118394630Y-112852245D02*
X118179131Y-112636746D01*
X118960316Y-112933057D02*
X119014190Y-112933057D01*
X119014190Y-112933057D02*
X119095003Y-112959995D01*
X119095003Y-112959995D02*
X119229690Y-113094682D01*
X119229690Y-113094682D02*
X119256627Y-113175494D01*
X119256627Y-113175494D02*
X119256627Y-113229369D01*
X119256627Y-113229369D02*
X119229690Y-113310181D01*
X119229690Y-113310181D02*
X119175815Y-113364056D01*
X119175815Y-113364056D02*
X119068065Y-113417930D01*
X119068065Y-113417930D02*
X118421568Y-113417930D01*
X118421568Y-113417930D02*
X118771754Y-113768117D01*
X119687626Y-113552618D02*
X119741500Y-113606492D01*
X119741500Y-113606492D02*
X119768438Y-113687305D01*
X119768438Y-113687305D02*
X119768438Y-113741179D01*
X119768438Y-113741179D02*
X119741500Y-113821992D01*
X119741500Y-113821992D02*
X119660688Y-113956679D01*
X119660688Y-113956679D02*
X119526001Y-114091366D01*
X119526001Y-114091366D02*
X119391314Y-114172178D01*
X119391314Y-114172178D02*
X119310502Y-114199115D01*
X119310502Y-114199115D02*
X119256627Y-114199115D01*
X119256627Y-114199115D02*
X119175815Y-114172178D01*
X119175815Y-114172178D02*
X119121940Y-114118303D01*
X119121940Y-114118303D02*
X119095003Y-114037491D01*
X119095003Y-114037491D02*
X119095003Y-113983616D01*
X119095003Y-113983616D02*
X119121940Y-113902804D01*
X119121940Y-113902804D02*
X119202752Y-113768117D01*
X119202752Y-113768117D02*
X119337439Y-113633430D01*
X119337439Y-113633430D02*
X119472126Y-113552618D01*
X119472126Y-113552618D02*
X119552939Y-113525680D01*
X119552939Y-113525680D02*
X119606813Y-113525680D01*
X119606813Y-113525680D02*
X119687626Y-113552618D01*
X105479131Y-112097998D02*
X105452194Y-112017185D01*
X105452194Y-112017185D02*
X105371381Y-111936373D01*
X105371381Y-111936373D02*
X105263632Y-111882498D01*
X105263632Y-111882498D02*
X105155882Y-111882498D01*
X105155882Y-111882498D02*
X105075070Y-111909436D01*
X105075070Y-111909436D02*
X104940383Y-111990248D01*
X104940383Y-111990248D02*
X104859571Y-112071060D01*
X104859571Y-112071060D02*
X104778758Y-112205747D01*
X104778758Y-112205747D02*
X104751821Y-112286560D01*
X104751821Y-112286560D02*
X104751821Y-112394309D01*
X104751821Y-112394309D02*
X104805696Y-112502059D01*
X104805696Y-112502059D02*
X104859571Y-112555934D01*
X104859571Y-112555934D02*
X104967320Y-112609808D01*
X104967320Y-112609808D02*
X105021195Y-112609808D01*
X105021195Y-112609808D02*
X105209757Y-112421247D01*
X105209757Y-112421247D02*
X105102007Y-112313497D01*
X105209757Y-112906120D02*
X105775442Y-112340434D01*
X105775442Y-112340434D02*
X105990942Y-112555934D01*
X105990942Y-112555934D02*
X106017879Y-112636746D01*
X106017879Y-112636746D02*
X106017879Y-112690621D01*
X106017879Y-112690621D02*
X105990942Y-112771433D01*
X105990942Y-112771433D02*
X105910129Y-112852245D01*
X105910129Y-112852245D02*
X105829317Y-112879182D01*
X105829317Y-112879182D02*
X105775442Y-112879182D01*
X105775442Y-112879182D02*
X105694630Y-112852245D01*
X105694630Y-112852245D02*
X105479131Y-112636746D01*
X106071754Y-113768117D02*
X105748505Y-113444868D01*
X105910129Y-113606492D02*
X106475815Y-113040807D01*
X106475815Y-113040807D02*
X106341128Y-113067744D01*
X106341128Y-113067744D02*
X106233378Y-113067744D01*
X106233378Y-113067744D02*
X106152566Y-113040807D01*
X107122313Y-113687305D02*
X107014563Y-113579555D01*
X107014563Y-113579555D02*
X106933751Y-113552618D01*
X106933751Y-113552618D02*
X106879876Y-113552618D01*
X106879876Y-113552618D02*
X106745189Y-113579555D01*
X106745189Y-113579555D02*
X106610502Y-113660367D01*
X106610502Y-113660367D02*
X106395003Y-113875866D01*
X106395003Y-113875866D02*
X106368065Y-113956679D01*
X106368065Y-113956679D02*
X106368065Y-114010553D01*
X106368065Y-114010553D02*
X106395003Y-114091366D01*
X106395003Y-114091366D02*
X106502752Y-114199115D01*
X106502752Y-114199115D02*
X106583565Y-114226053D01*
X106583565Y-114226053D02*
X106637439Y-114226053D01*
X106637439Y-114226053D02*
X106718252Y-114199115D01*
X106718252Y-114199115D02*
X106852939Y-114064428D01*
X106852939Y-114064428D02*
X106879876Y-113983616D01*
X106879876Y-113983616D02*
X106879876Y-113929741D01*
X106879876Y-113929741D02*
X106852939Y-113848929D01*
X106852939Y-113848929D02*
X106745189Y-113741179D01*
X106745189Y-113741179D02*
X106664377Y-113714242D01*
X106664377Y-113714242D02*
X106610502Y-113714242D01*
X106610502Y-113714242D02*
X106529690Y-113741179D01*
X143509131Y-111890123D02*
X143859317Y-112240309D01*
X143859317Y-112240309D02*
X143455256Y-112267247D01*
X143455256Y-112267247D02*
X143536068Y-112348059D01*
X143536068Y-112348059D02*
X143563006Y-112428871D01*
X143563006Y-112428871D02*
X143563006Y-112482746D01*
X143563006Y-112482746D02*
X143536068Y-112563558D01*
X143536068Y-112563558D02*
X143401381Y-112698245D01*
X143401381Y-112698245D02*
X143320569Y-112725182D01*
X143320569Y-112725182D02*
X143266694Y-112725182D01*
X143266694Y-112725182D02*
X143185882Y-112698245D01*
X143185882Y-112698245D02*
X143024258Y-112536621D01*
X143024258Y-112536621D02*
X142997320Y-112455808D01*
X142997320Y-112455808D02*
X142997320Y-112401934D01*
X144020942Y-112401934D02*
X143643818Y-113156181D01*
X143643818Y-113156181D02*
X144398065Y-112779057D01*
X144532752Y-112913744D02*
X144882938Y-113263930D01*
X144882938Y-113263930D02*
X144478877Y-113290868D01*
X144478877Y-113290868D02*
X144559690Y-113371680D01*
X144559690Y-113371680D02*
X144586627Y-113452492D01*
X144586627Y-113452492D02*
X144586627Y-113506367D01*
X144586627Y-113506367D02*
X144559690Y-113587179D01*
X144559690Y-113587179D02*
X144425003Y-113721866D01*
X144425003Y-113721866D02*
X144344190Y-113748804D01*
X144344190Y-113748804D02*
X144290316Y-113748804D01*
X144290316Y-113748804D02*
X144209503Y-113721866D01*
X144209503Y-113721866D02*
X144047879Y-113560242D01*
X144047879Y-113560242D02*
X144020942Y-113479430D01*
X144020942Y-113479430D02*
X144020942Y-113425555D01*
X123501568Y-86486435D02*
X123474631Y-86405623D01*
X123474631Y-86405623D02*
X123393819Y-86324811D01*
X123393819Y-86324811D02*
X123286069Y-86270936D01*
X123286069Y-86270936D02*
X123178319Y-86270936D01*
X123178319Y-86270936D02*
X123097507Y-86297873D01*
X123097507Y-86297873D02*
X122962820Y-86378685D01*
X122962820Y-86378685D02*
X122882008Y-86459498D01*
X122882008Y-86459498D02*
X122801196Y-86594185D01*
X122801196Y-86594185D02*
X122774258Y-86674997D01*
X122774258Y-86674997D02*
X122774258Y-86782746D01*
X122774258Y-86782746D02*
X122828133Y-86890496D01*
X122828133Y-86890496D02*
X122882008Y-86944371D01*
X122882008Y-86944371D02*
X122989758Y-86998246D01*
X122989758Y-86998246D02*
X123043632Y-86998246D01*
X123043632Y-86998246D02*
X123232194Y-86809684D01*
X123232194Y-86809684D02*
X123124445Y-86701934D01*
X123232194Y-87294557D02*
X123797880Y-86728872D01*
X123797880Y-86728872D02*
X123555443Y-87617806D01*
X123555443Y-87617806D02*
X124121128Y-87052120D01*
X123824817Y-87887180D02*
X124390502Y-87321494D01*
X124390502Y-87321494D02*
X124525189Y-87456181D01*
X124525189Y-87456181D02*
X124579064Y-87563931D01*
X124579064Y-87563931D02*
X124579064Y-87671680D01*
X124579064Y-87671680D02*
X124552127Y-87752493D01*
X124552127Y-87752493D02*
X124471314Y-87887180D01*
X124471314Y-87887180D02*
X124390502Y-87967992D01*
X124390502Y-87967992D02*
X124255815Y-88048804D01*
X124255815Y-88048804D02*
X124175003Y-88075741D01*
X124175003Y-88075741D02*
X124067253Y-88075741D01*
X124067253Y-88075741D02*
X123959504Y-88021867D01*
X123959504Y-88021867D02*
X123824817Y-87887180D01*
X146041415Y-111922407D02*
X146391601Y-112272593D01*
X146391601Y-112272593D02*
X145987540Y-112299531D01*
X145987540Y-112299531D02*
X146068353Y-112380343D01*
X146068353Y-112380343D02*
X146095290Y-112461155D01*
X146095290Y-112461155D02*
X146095290Y-112515030D01*
X146095290Y-112515030D02*
X146068353Y-112595842D01*
X146068353Y-112595842D02*
X145933666Y-112730529D01*
X145933666Y-112730529D02*
X145852853Y-112757467D01*
X145852853Y-112757467D02*
X145798979Y-112757467D01*
X145798979Y-112757467D02*
X145718166Y-112730529D01*
X145718166Y-112730529D02*
X145556542Y-112568905D01*
X145556542Y-112568905D02*
X145529605Y-112488093D01*
X145529605Y-112488093D02*
X145529605Y-112434218D01*
X146553226Y-112434218D02*
X146176102Y-113188465D01*
X146176102Y-113188465D02*
X146930350Y-112811342D01*
X147065036Y-112946028D02*
X147415223Y-113296215D01*
X147415223Y-113296215D02*
X147011162Y-113323152D01*
X147011162Y-113323152D02*
X147091974Y-113403964D01*
X147091974Y-113403964D02*
X147118911Y-113484776D01*
X147118911Y-113484776D02*
X147118911Y-113538651D01*
X147118911Y-113538651D02*
X147091974Y-113619464D01*
X147091974Y-113619464D02*
X146957287Y-113754151D01*
X146957287Y-113754151D02*
X146876475Y-113781088D01*
X146876475Y-113781088D02*
X146822600Y-113781088D01*
X146822600Y-113781088D02*
X146741788Y-113754151D01*
X146741788Y-113754151D02*
X146580163Y-113592526D01*
X146580163Y-113592526D02*
X146553226Y-113511714D01*
X146553226Y-113511714D02*
X146553226Y-113457839D01*
X146903412Y-114023525D02*
X147334411Y-114454523D01*
X147819284Y-114239024D02*
X148007846Y-114427586D01*
X147792347Y-114804709D02*
X147522973Y-114535335D01*
X147522973Y-114535335D02*
X148088658Y-113969650D01*
X148088658Y-113969650D02*
X148358032Y-114239024D01*
X148034784Y-115047146D02*
X148600469Y-114481461D01*
X148600469Y-114481461D02*
X148358032Y-115370395D01*
X148358032Y-115370395D02*
X148923718Y-114804710D01*
X110801568Y-86486435D02*
X110774631Y-86405623D01*
X110774631Y-86405623D02*
X110693819Y-86324811D01*
X110693819Y-86324811D02*
X110586069Y-86270936D01*
X110586069Y-86270936D02*
X110478319Y-86270936D01*
X110478319Y-86270936D02*
X110397507Y-86297873D01*
X110397507Y-86297873D02*
X110262820Y-86378685D01*
X110262820Y-86378685D02*
X110182008Y-86459498D01*
X110182008Y-86459498D02*
X110101196Y-86594185D01*
X110101196Y-86594185D02*
X110074258Y-86674997D01*
X110074258Y-86674997D02*
X110074258Y-86782746D01*
X110074258Y-86782746D02*
X110128133Y-86890496D01*
X110128133Y-86890496D02*
X110182008Y-86944371D01*
X110182008Y-86944371D02*
X110289758Y-86998246D01*
X110289758Y-86998246D02*
X110343632Y-86998246D01*
X110343632Y-86998246D02*
X110532194Y-86809684D01*
X110532194Y-86809684D02*
X110424445Y-86701934D01*
X110532194Y-87294557D02*
X111097880Y-86728872D01*
X111097880Y-86728872D02*
X110855443Y-87617806D01*
X110855443Y-87617806D02*
X111421128Y-87052120D01*
X111124817Y-87887180D02*
X111690502Y-87321494D01*
X111690502Y-87321494D02*
X111825189Y-87456181D01*
X111825189Y-87456181D02*
X111879064Y-87563931D01*
X111879064Y-87563931D02*
X111879064Y-87671680D01*
X111879064Y-87671680D02*
X111852127Y-87752493D01*
X111852127Y-87752493D02*
X111771314Y-87887180D01*
X111771314Y-87887180D02*
X111690502Y-87967992D01*
X111690502Y-87967992D02*
X111555815Y-88048804D01*
X111555815Y-88048804D02*
X111475003Y-88075741D01*
X111475003Y-88075741D02*
X111367253Y-88075741D01*
X111367253Y-88075741D02*
X111259504Y-88021867D01*
X111259504Y-88021867D02*
X111124817Y-87887180D01*
X104124200Y-96109524D02*
X104162295Y-95995238D01*
X104162295Y-95995238D02*
X104162295Y-95804762D01*
X104162295Y-95804762D02*
X104124200Y-95728571D01*
X104124200Y-95728571D02*
X104086104Y-95690476D01*
X104086104Y-95690476D02*
X104009914Y-95652381D01*
X104009914Y-95652381D02*
X103933723Y-95652381D01*
X103933723Y-95652381D02*
X103857533Y-95690476D01*
X103857533Y-95690476D02*
X103819438Y-95728571D01*
X103819438Y-95728571D02*
X103781342Y-95804762D01*
X103781342Y-95804762D02*
X103743247Y-95957143D01*
X103743247Y-95957143D02*
X103705152Y-96033333D01*
X103705152Y-96033333D02*
X103667057Y-96071428D01*
X103667057Y-96071428D02*
X103590866Y-96109524D01*
X103590866Y-96109524D02*
X103514676Y-96109524D01*
X103514676Y-96109524D02*
X103438485Y-96071428D01*
X103438485Y-96071428D02*
X103400390Y-96033333D01*
X103400390Y-96033333D02*
X103362295Y-95957143D01*
X103362295Y-95957143D02*
X103362295Y-95766666D01*
X103362295Y-95766666D02*
X103400390Y-95652381D01*
X103362295Y-95385714D02*
X104162295Y-95195238D01*
X104162295Y-95195238D02*
X103590866Y-95042857D01*
X103590866Y-95042857D02*
X104162295Y-94890476D01*
X104162295Y-94890476D02*
X103362295Y-94700000D01*
X104086104Y-93938094D02*
X104124200Y-93976190D01*
X104124200Y-93976190D02*
X104162295Y-94090475D01*
X104162295Y-94090475D02*
X104162295Y-94166666D01*
X104162295Y-94166666D02*
X104124200Y-94280952D01*
X104124200Y-94280952D02*
X104048009Y-94357142D01*
X104048009Y-94357142D02*
X103971819Y-94395237D01*
X103971819Y-94395237D02*
X103819438Y-94433333D01*
X103819438Y-94433333D02*
X103705152Y-94433333D01*
X103705152Y-94433333D02*
X103552771Y-94395237D01*
X103552771Y-94395237D02*
X103476580Y-94357142D01*
X103476580Y-94357142D02*
X103400390Y-94280952D01*
X103400390Y-94280952D02*
X103362295Y-94166666D01*
X103362295Y-94166666D02*
X103362295Y-94090475D01*
X103362295Y-94090475D02*
X103400390Y-93976190D01*
X103400390Y-93976190D02*
X103438485Y-93938094D01*
X104162295Y-93214285D02*
X104162295Y-93595237D01*
X104162295Y-93595237D02*
X103362295Y-93595237D01*
X104162295Y-92947618D02*
X103362295Y-92947618D01*
X104162295Y-92490475D02*
X103705152Y-92833333D01*
X103362295Y-92490475D02*
X103819438Y-92947618D01*
X128056289Y-112838651D02*
X128137101Y-112380716D01*
X127733040Y-112515403D02*
X128298725Y-111949717D01*
X128298725Y-111949717D02*
X128514224Y-112165216D01*
X128514224Y-112165216D02*
X128541162Y-112246029D01*
X128541162Y-112246029D02*
X128541162Y-112299903D01*
X128541162Y-112299903D02*
X128514224Y-112380716D01*
X128514224Y-112380716D02*
X128433412Y-112461528D01*
X128433412Y-112461528D02*
X128352600Y-112488465D01*
X128352600Y-112488465D02*
X128298725Y-112488465D01*
X128298725Y-112488465D02*
X128217913Y-112461528D01*
X128217913Y-112461528D02*
X128002414Y-112246029D01*
X128864411Y-112515403D02*
X128406475Y-112973338D01*
X128406475Y-112973338D02*
X128379537Y-113054151D01*
X128379537Y-113054151D02*
X128379537Y-113108025D01*
X128379537Y-113108025D02*
X128406475Y-113188838D01*
X128406475Y-113188838D02*
X128514224Y-113296587D01*
X128514224Y-113296587D02*
X128595037Y-113323525D01*
X128595037Y-113323525D02*
X128648911Y-113323525D01*
X128648911Y-113323525D02*
X128729724Y-113296587D01*
X128729724Y-113296587D02*
X129187659Y-112838651D01*
X128891348Y-113673711D02*
X129457033Y-113108025D01*
X129457033Y-113108025D02*
X129214597Y-113996959D01*
X129214597Y-113996959D02*
X129780282Y-113431274D01*
X131178505Y-86613372D02*
X131151568Y-86532560D01*
X131151568Y-86532560D02*
X131070756Y-86451748D01*
X131070756Y-86451748D02*
X130963006Y-86397873D01*
X130963006Y-86397873D02*
X130855257Y-86397873D01*
X130855257Y-86397873D02*
X130774444Y-86424810D01*
X130774444Y-86424810D02*
X130639757Y-86505623D01*
X130639757Y-86505623D02*
X130558945Y-86586435D01*
X130558945Y-86586435D02*
X130478133Y-86721122D01*
X130478133Y-86721122D02*
X130451196Y-86801934D01*
X130451196Y-86801934D02*
X130451196Y-86909684D01*
X130451196Y-86909684D02*
X130505070Y-87017433D01*
X130505070Y-87017433D02*
X130558945Y-87071308D01*
X130558945Y-87071308D02*
X130666695Y-87125183D01*
X130666695Y-87125183D02*
X130720570Y-87125183D01*
X130720570Y-87125183D02*
X130909131Y-86936621D01*
X130909131Y-86936621D02*
X130801382Y-86828871D01*
X130909131Y-87421494D02*
X131474817Y-86855809D01*
X131474817Y-86855809D02*
X131690316Y-87071308D01*
X131690316Y-87071308D02*
X131717253Y-87152120D01*
X131717253Y-87152120D02*
X131717253Y-87205995D01*
X131717253Y-87205995D02*
X131690316Y-87286807D01*
X131690316Y-87286807D02*
X131609504Y-87367619D01*
X131609504Y-87367619D02*
X131528692Y-87394557D01*
X131528692Y-87394557D02*
X131474817Y-87394557D01*
X131474817Y-87394557D02*
X131394005Y-87367619D01*
X131394005Y-87367619D02*
X131178505Y-87152120D01*
X131986627Y-87367619D02*
X132363751Y-87744743D01*
X132363751Y-87744743D02*
X131555629Y-88067992D01*
X113099131Y-85989998D02*
X113072194Y-85909185D01*
X113072194Y-85909185D02*
X112991381Y-85828373D01*
X112991381Y-85828373D02*
X112883632Y-85774498D01*
X112883632Y-85774498D02*
X112775882Y-85774498D01*
X112775882Y-85774498D02*
X112695070Y-85801436D01*
X112695070Y-85801436D02*
X112560383Y-85882248D01*
X112560383Y-85882248D02*
X112479571Y-85963060D01*
X112479571Y-85963060D02*
X112398758Y-86097747D01*
X112398758Y-86097747D02*
X112371821Y-86178560D01*
X112371821Y-86178560D02*
X112371821Y-86286309D01*
X112371821Y-86286309D02*
X112425696Y-86394059D01*
X112425696Y-86394059D02*
X112479571Y-86447934D01*
X112479571Y-86447934D02*
X112587320Y-86501808D01*
X112587320Y-86501808D02*
X112641195Y-86501808D01*
X112641195Y-86501808D02*
X112829757Y-86313247D01*
X112829757Y-86313247D02*
X112722007Y-86205497D01*
X112829757Y-86798120D02*
X113395442Y-86232434D01*
X113395442Y-86232434D02*
X113610942Y-86447934D01*
X113610942Y-86447934D02*
X113637879Y-86528746D01*
X113637879Y-86528746D02*
X113637879Y-86582621D01*
X113637879Y-86582621D02*
X113610942Y-86663433D01*
X113610942Y-86663433D02*
X113530129Y-86744245D01*
X113530129Y-86744245D02*
X113449317Y-86771182D01*
X113449317Y-86771182D02*
X113395442Y-86771182D01*
X113395442Y-86771182D02*
X113314630Y-86744245D01*
X113314630Y-86744245D02*
X113099131Y-86528746D01*
X113691754Y-87660117D02*
X113368505Y-87336868D01*
X113530129Y-87498492D02*
X114095815Y-86932807D01*
X114095815Y-86932807D02*
X113961128Y-86959744D01*
X113961128Y-86959744D02*
X113853378Y-86959744D01*
X113853378Y-86959744D02*
X113772566Y-86932807D01*
X114446001Y-87282993D02*
X114796187Y-87633179D01*
X114796187Y-87633179D02*
X114392126Y-87660117D01*
X114392126Y-87660117D02*
X114472939Y-87740929D01*
X114472939Y-87740929D02*
X114499876Y-87821741D01*
X114499876Y-87821741D02*
X114499876Y-87875616D01*
X114499876Y-87875616D02*
X114472939Y-87956428D01*
X114472939Y-87956428D02*
X114338252Y-88091115D01*
X114338252Y-88091115D02*
X114257439Y-88118053D01*
X114257439Y-88118053D02*
X114203565Y-88118053D01*
X114203565Y-88118053D02*
X114122752Y-88091115D01*
X114122752Y-88091115D02*
X113961128Y-87929491D01*
X113961128Y-87929491D02*
X113934191Y-87848679D01*
X113934191Y-87848679D02*
X113934191Y-87794804D01*
X154008505Y-86513372D02*
X153981568Y-86432560D01*
X153981568Y-86432560D02*
X153900756Y-86351748D01*
X153900756Y-86351748D02*
X153793006Y-86297873D01*
X153793006Y-86297873D02*
X153685257Y-86297873D01*
X153685257Y-86297873D02*
X153604444Y-86324810D01*
X153604444Y-86324810D02*
X153469757Y-86405623D01*
X153469757Y-86405623D02*
X153388945Y-86486435D01*
X153388945Y-86486435D02*
X153308133Y-86621122D01*
X153308133Y-86621122D02*
X153281196Y-86701934D01*
X153281196Y-86701934D02*
X153281196Y-86809684D01*
X153281196Y-86809684D02*
X153335070Y-86917433D01*
X153335070Y-86917433D02*
X153388945Y-86971308D01*
X153388945Y-86971308D02*
X153496695Y-87025183D01*
X153496695Y-87025183D02*
X153550570Y-87025183D01*
X153550570Y-87025183D02*
X153739131Y-86836621D01*
X153739131Y-86836621D02*
X153631382Y-86728871D01*
X153739131Y-87321494D02*
X154304817Y-86755809D01*
X154304817Y-86755809D02*
X154520316Y-86971308D01*
X154520316Y-86971308D02*
X154547253Y-87052120D01*
X154547253Y-87052120D02*
X154547253Y-87105995D01*
X154547253Y-87105995D02*
X154520316Y-87186807D01*
X154520316Y-87186807D02*
X154439504Y-87267619D01*
X154439504Y-87267619D02*
X154358692Y-87294557D01*
X154358692Y-87294557D02*
X154304817Y-87294557D01*
X154304817Y-87294557D02*
X154224005Y-87267619D01*
X154224005Y-87267619D02*
X154008505Y-87052120D01*
X154978252Y-87429244D02*
X155032127Y-87483119D01*
X155032127Y-87483119D02*
X155059064Y-87563931D01*
X155059064Y-87563931D02*
X155059064Y-87617806D01*
X155059064Y-87617806D02*
X155032127Y-87698618D01*
X155032127Y-87698618D02*
X154951314Y-87833305D01*
X154951314Y-87833305D02*
X154816627Y-87967992D01*
X154816627Y-87967992D02*
X154681940Y-88048804D01*
X154681940Y-88048804D02*
X154601128Y-88075741D01*
X154601128Y-88075741D02*
X154547253Y-88075741D01*
X154547253Y-88075741D02*
X154466441Y-88048804D01*
X154466441Y-88048804D02*
X154412566Y-87994929D01*
X154412566Y-87994929D02*
X154385629Y-87914117D01*
X154385629Y-87914117D02*
X154385629Y-87860242D01*
X154385629Y-87860242D02*
X154412566Y-87779430D01*
X154412566Y-87779430D02*
X154493379Y-87644743D01*
X154493379Y-87644743D02*
X154628066Y-87510056D01*
X154628066Y-87510056D02*
X154762753Y-87429244D01*
X154762753Y-87429244D02*
X154843565Y-87402306D01*
X154843565Y-87402306D02*
X154897440Y-87402306D01*
X154897440Y-87402306D02*
X154978252Y-87429244D01*
X136201568Y-86486435D02*
X136174631Y-86405623D01*
X136174631Y-86405623D02*
X136093819Y-86324811D01*
X136093819Y-86324811D02*
X135986069Y-86270936D01*
X135986069Y-86270936D02*
X135878319Y-86270936D01*
X135878319Y-86270936D02*
X135797507Y-86297873D01*
X135797507Y-86297873D02*
X135662820Y-86378685D01*
X135662820Y-86378685D02*
X135582008Y-86459498D01*
X135582008Y-86459498D02*
X135501196Y-86594185D01*
X135501196Y-86594185D02*
X135474258Y-86674997D01*
X135474258Y-86674997D02*
X135474258Y-86782746D01*
X135474258Y-86782746D02*
X135528133Y-86890496D01*
X135528133Y-86890496D02*
X135582008Y-86944371D01*
X135582008Y-86944371D02*
X135689758Y-86998246D01*
X135689758Y-86998246D02*
X135743632Y-86998246D01*
X135743632Y-86998246D02*
X135932194Y-86809684D01*
X135932194Y-86809684D02*
X135824445Y-86701934D01*
X135932194Y-87294557D02*
X136497880Y-86728872D01*
X136497880Y-86728872D02*
X136255443Y-87617806D01*
X136255443Y-87617806D02*
X136821128Y-87052120D01*
X136524817Y-87887180D02*
X137090502Y-87321494D01*
X137090502Y-87321494D02*
X137225189Y-87456181D01*
X137225189Y-87456181D02*
X137279064Y-87563931D01*
X137279064Y-87563931D02*
X137279064Y-87671680D01*
X137279064Y-87671680D02*
X137252127Y-87752493D01*
X137252127Y-87752493D02*
X137171314Y-87887180D01*
X137171314Y-87887180D02*
X137090502Y-87967992D01*
X137090502Y-87967992D02*
X136955815Y-88048804D01*
X136955815Y-88048804D02*
X136875003Y-88075741D01*
X136875003Y-88075741D02*
X136767253Y-88075741D01*
X136767253Y-88075741D02*
X136659504Y-88021867D01*
X136659504Y-88021867D02*
X136524817Y-87887180D01*
X108019131Y-112097998D02*
X107992194Y-112017185D01*
X107992194Y-112017185D02*
X107911381Y-111936373D01*
X107911381Y-111936373D02*
X107803632Y-111882498D01*
X107803632Y-111882498D02*
X107695882Y-111882498D01*
X107695882Y-111882498D02*
X107615070Y-111909436D01*
X107615070Y-111909436D02*
X107480383Y-111990248D01*
X107480383Y-111990248D02*
X107399571Y-112071060D01*
X107399571Y-112071060D02*
X107318758Y-112205747D01*
X107318758Y-112205747D02*
X107291821Y-112286560D01*
X107291821Y-112286560D02*
X107291821Y-112394309D01*
X107291821Y-112394309D02*
X107345696Y-112502059D01*
X107345696Y-112502059D02*
X107399571Y-112555934D01*
X107399571Y-112555934D02*
X107507320Y-112609808D01*
X107507320Y-112609808D02*
X107561195Y-112609808D01*
X107561195Y-112609808D02*
X107749757Y-112421247D01*
X107749757Y-112421247D02*
X107642007Y-112313497D01*
X107749757Y-112906120D02*
X108315442Y-112340434D01*
X108315442Y-112340434D02*
X108530942Y-112555934D01*
X108530942Y-112555934D02*
X108557879Y-112636746D01*
X108557879Y-112636746D02*
X108557879Y-112690621D01*
X108557879Y-112690621D02*
X108530942Y-112771433D01*
X108530942Y-112771433D02*
X108450129Y-112852245D01*
X108450129Y-112852245D02*
X108369317Y-112879182D01*
X108369317Y-112879182D02*
X108315442Y-112879182D01*
X108315442Y-112879182D02*
X108234630Y-112852245D01*
X108234630Y-112852245D02*
X108019131Y-112636746D01*
X108611754Y-113768117D02*
X108288505Y-113444868D01*
X108450129Y-113606492D02*
X109015815Y-113040807D01*
X109015815Y-113040807D02*
X108881128Y-113067744D01*
X108881128Y-113067744D02*
X108773378Y-113067744D01*
X108773378Y-113067744D02*
X108692566Y-113040807D01*
X109366001Y-113390993D02*
X109743125Y-113768117D01*
X109743125Y-113768117D02*
X108935003Y-114091366D01*
X133688505Y-86513372D02*
X133661568Y-86432560D01*
X133661568Y-86432560D02*
X133580756Y-86351748D01*
X133580756Y-86351748D02*
X133473006Y-86297873D01*
X133473006Y-86297873D02*
X133365257Y-86297873D01*
X133365257Y-86297873D02*
X133284444Y-86324810D01*
X133284444Y-86324810D02*
X133149757Y-86405623D01*
X133149757Y-86405623D02*
X133068945Y-86486435D01*
X133068945Y-86486435D02*
X132988133Y-86621122D01*
X132988133Y-86621122D02*
X132961196Y-86701934D01*
X132961196Y-86701934D02*
X132961196Y-86809684D01*
X132961196Y-86809684D02*
X133015070Y-86917433D01*
X133015070Y-86917433D02*
X133068945Y-86971308D01*
X133068945Y-86971308D02*
X133176695Y-87025183D01*
X133176695Y-87025183D02*
X133230570Y-87025183D01*
X133230570Y-87025183D02*
X133419131Y-86836621D01*
X133419131Y-86836621D02*
X133311382Y-86728871D01*
X133419131Y-87321494D02*
X133984817Y-86755809D01*
X133984817Y-86755809D02*
X134200316Y-86971308D01*
X134200316Y-86971308D02*
X134227253Y-87052120D01*
X134227253Y-87052120D02*
X134227253Y-87105995D01*
X134227253Y-87105995D02*
X134200316Y-87186807D01*
X134200316Y-87186807D02*
X134119504Y-87267619D01*
X134119504Y-87267619D02*
X134038692Y-87294557D01*
X134038692Y-87294557D02*
X133984817Y-87294557D01*
X133984817Y-87294557D02*
X133904005Y-87267619D01*
X133904005Y-87267619D02*
X133688505Y-87052120D01*
X134792939Y-87563931D02*
X134685189Y-87456181D01*
X134685189Y-87456181D02*
X134604377Y-87429244D01*
X134604377Y-87429244D02*
X134550502Y-87429244D01*
X134550502Y-87429244D02*
X134415815Y-87456181D01*
X134415815Y-87456181D02*
X134281128Y-87536993D01*
X134281128Y-87536993D02*
X134065629Y-87752493D01*
X134065629Y-87752493D02*
X134038692Y-87833305D01*
X134038692Y-87833305D02*
X134038692Y-87887180D01*
X134038692Y-87887180D02*
X134065629Y-87967992D01*
X134065629Y-87967992D02*
X134173379Y-88075741D01*
X134173379Y-88075741D02*
X134254191Y-88102679D01*
X134254191Y-88102679D02*
X134308066Y-88102679D01*
X134308066Y-88102679D02*
X134388878Y-88075741D01*
X134388878Y-88075741D02*
X134523565Y-87941054D01*
X134523565Y-87941054D02*
X134550502Y-87860242D01*
X134550502Y-87860242D02*
X134550502Y-87806367D01*
X134550502Y-87806367D02*
X134523565Y-87725555D01*
X134523565Y-87725555D02*
X134415815Y-87617806D01*
X134415815Y-87617806D02*
X134335003Y-87590868D01*
X134335003Y-87590868D02*
X134281128Y-87590868D01*
X134281128Y-87590868D02*
X134200316Y-87617806D01*
X138753131Y-112097998D02*
X138726194Y-112017185D01*
X138726194Y-112017185D02*
X138645381Y-111936373D01*
X138645381Y-111936373D02*
X138537632Y-111882498D01*
X138537632Y-111882498D02*
X138429882Y-111882498D01*
X138429882Y-111882498D02*
X138349070Y-111909436D01*
X138349070Y-111909436D02*
X138214383Y-111990248D01*
X138214383Y-111990248D02*
X138133571Y-112071060D01*
X138133571Y-112071060D02*
X138052758Y-112205747D01*
X138052758Y-112205747D02*
X138025821Y-112286560D01*
X138025821Y-112286560D02*
X138025821Y-112394309D01*
X138025821Y-112394309D02*
X138079696Y-112502059D01*
X138079696Y-112502059D02*
X138133571Y-112555934D01*
X138133571Y-112555934D02*
X138241320Y-112609808D01*
X138241320Y-112609808D02*
X138295195Y-112609808D01*
X138295195Y-112609808D02*
X138483757Y-112421247D01*
X138483757Y-112421247D02*
X138376007Y-112313497D01*
X138483757Y-112906120D02*
X139049442Y-112340434D01*
X139049442Y-112340434D02*
X139264942Y-112555934D01*
X139264942Y-112555934D02*
X139291879Y-112636746D01*
X139291879Y-112636746D02*
X139291879Y-112690621D01*
X139291879Y-112690621D02*
X139264942Y-112771433D01*
X139264942Y-112771433D02*
X139184129Y-112852245D01*
X139184129Y-112852245D02*
X139103317Y-112879182D01*
X139103317Y-112879182D02*
X139049442Y-112879182D01*
X139049442Y-112879182D02*
X138968630Y-112852245D01*
X138968630Y-112852245D02*
X138753131Y-112636746D01*
X139534316Y-112933057D02*
X139588190Y-112933057D01*
X139588190Y-112933057D02*
X139669003Y-112959995D01*
X139669003Y-112959995D02*
X139803690Y-113094682D01*
X139803690Y-113094682D02*
X139830627Y-113175494D01*
X139830627Y-113175494D02*
X139830627Y-113229369D01*
X139830627Y-113229369D02*
X139803690Y-113310181D01*
X139803690Y-113310181D02*
X139749815Y-113364056D01*
X139749815Y-113364056D02*
X139642065Y-113417930D01*
X139642065Y-113417930D02*
X138995568Y-113417930D01*
X138995568Y-113417930D02*
X139345754Y-113768117D01*
X139992252Y-113768117D02*
X139965314Y-113687305D01*
X139965314Y-113687305D02*
X139965314Y-113633430D01*
X139965314Y-113633430D02*
X139992252Y-113552618D01*
X139992252Y-113552618D02*
X140019189Y-113525680D01*
X140019189Y-113525680D02*
X140100001Y-113498743D01*
X140100001Y-113498743D02*
X140153876Y-113498743D01*
X140153876Y-113498743D02*
X140234688Y-113525680D01*
X140234688Y-113525680D02*
X140342438Y-113633430D01*
X140342438Y-113633430D02*
X140369375Y-113714242D01*
X140369375Y-113714242D02*
X140369375Y-113768117D01*
X140369375Y-113768117D02*
X140342438Y-113848929D01*
X140342438Y-113848929D02*
X140315500Y-113875866D01*
X140315500Y-113875866D02*
X140234688Y-113902804D01*
X140234688Y-113902804D02*
X140180813Y-113902804D01*
X140180813Y-113902804D02*
X140100001Y-113875866D01*
X140100001Y-113875866D02*
X139992252Y-113768117D01*
X139992252Y-113768117D02*
X139911439Y-113741179D01*
X139911439Y-113741179D02*
X139857565Y-113741179D01*
X139857565Y-113741179D02*
X139776752Y-113768117D01*
X139776752Y-113768117D02*
X139669003Y-113875866D01*
X139669003Y-113875866D02*
X139642065Y-113956679D01*
X139642065Y-113956679D02*
X139642065Y-114010553D01*
X139642065Y-114010553D02*
X139669003Y-114091366D01*
X139669003Y-114091366D02*
X139776752Y-114199115D01*
X139776752Y-114199115D02*
X139857565Y-114226053D01*
X139857565Y-114226053D02*
X139911439Y-114226053D01*
X139911439Y-114226053D02*
X139992252Y-114199115D01*
X139992252Y-114199115D02*
X140100001Y-114091366D01*
X140100001Y-114091366D02*
X140126939Y-114010553D01*
X140126939Y-114010553D02*
X140126939Y-113956679D01*
X140126939Y-113956679D02*
X140100001Y-113875866D01*
X115833333Y-99274819D02*
X115500000Y-98798628D01*
X115261905Y-99274819D02*
X115261905Y-98274819D01*
X115261905Y-98274819D02*
X115642857Y-98274819D01*
X115642857Y-98274819D02*
X115738095Y-98322438D01*
X115738095Y-98322438D02*
X115785714Y-98370057D01*
X115785714Y-98370057D02*
X115833333Y-98465295D01*
X115833333Y-98465295D02*
X115833333Y-98608152D01*
X115833333Y-98608152D02*
X115785714Y-98703390D01*
X115785714Y-98703390D02*
X115738095Y-98751009D01*
X115738095Y-98751009D02*
X115642857Y-98798628D01*
X115642857Y-98798628D02*
X115261905Y-98798628D01*
X116166667Y-98274819D02*
X116785714Y-98274819D01*
X116785714Y-98274819D02*
X116452381Y-98655771D01*
X116452381Y-98655771D02*
X116595238Y-98655771D01*
X116595238Y-98655771D02*
X116690476Y-98703390D01*
X116690476Y-98703390D02*
X116738095Y-98751009D01*
X116738095Y-98751009D02*
X116785714Y-98846247D01*
X116785714Y-98846247D02*
X116785714Y-99084342D01*
X116785714Y-99084342D02*
X116738095Y-99179580D01*
X116738095Y-99179580D02*
X116690476Y-99227200D01*
X116690476Y-99227200D02*
X116595238Y-99274819D01*
X116595238Y-99274819D02*
X116309524Y-99274819D01*
X116309524Y-99274819D02*
X116214286Y-99227200D01*
X116214286Y-99227200D02*
X116166667Y-99179580D01*
X142604819Y-97716666D02*
X142128628Y-98049999D01*
X142604819Y-98288094D02*
X141604819Y-98288094D01*
X141604819Y-98288094D02*
X141604819Y-97907142D01*
X141604819Y-97907142D02*
X141652438Y-97811904D01*
X141652438Y-97811904D02*
X141700057Y-97764285D01*
X141700057Y-97764285D02*
X141795295Y-97716666D01*
X141795295Y-97716666D02*
X141938152Y-97716666D01*
X141938152Y-97716666D02*
X142033390Y-97764285D01*
X142033390Y-97764285D02*
X142081009Y-97811904D01*
X142081009Y-97811904D02*
X142128628Y-97907142D01*
X142128628Y-97907142D02*
X142128628Y-98288094D01*
X142604819Y-96764285D02*
X142604819Y-97335713D01*
X142604819Y-97049999D02*
X141604819Y-97049999D01*
X141604819Y-97049999D02*
X141747676Y-97145237D01*
X141747676Y-97145237D02*
X141842914Y-97240475D01*
X141842914Y-97240475D02*
X141890533Y-97335713D01*
X121833333Y-99274819D02*
X121500000Y-98798628D01*
X121261905Y-99274819D02*
X121261905Y-98274819D01*
X121261905Y-98274819D02*
X121642857Y-98274819D01*
X121642857Y-98274819D02*
X121738095Y-98322438D01*
X121738095Y-98322438D02*
X121785714Y-98370057D01*
X121785714Y-98370057D02*
X121833333Y-98465295D01*
X121833333Y-98465295D02*
X121833333Y-98608152D01*
X121833333Y-98608152D02*
X121785714Y-98703390D01*
X121785714Y-98703390D02*
X121738095Y-98751009D01*
X121738095Y-98751009D02*
X121642857Y-98798628D01*
X121642857Y-98798628D02*
X121261905Y-98798628D01*
X122214286Y-98370057D02*
X122261905Y-98322438D01*
X122261905Y-98322438D02*
X122357143Y-98274819D01*
X122357143Y-98274819D02*
X122595238Y-98274819D01*
X122595238Y-98274819D02*
X122690476Y-98322438D01*
X122690476Y-98322438D02*
X122738095Y-98370057D01*
X122738095Y-98370057D02*
X122785714Y-98465295D01*
X122785714Y-98465295D02*
X122785714Y-98560533D01*
X122785714Y-98560533D02*
X122738095Y-98703390D01*
X122738095Y-98703390D02*
X122166667Y-99274819D01*
X122166667Y-99274819D02*
X122785714Y-99274819D01*
X136904761Y-100250057D02*
X136809523Y-100202438D01*
X136809523Y-100202438D02*
X136714285Y-100107200D01*
X136714285Y-100107200D02*
X136571428Y-99964342D01*
X136571428Y-99964342D02*
X136476190Y-99916723D01*
X136476190Y-99916723D02*
X136380952Y-99916723D01*
X136428571Y-100154819D02*
X136333333Y-100107200D01*
X136333333Y-100107200D02*
X136238095Y-100011961D01*
X136238095Y-100011961D02*
X136190476Y-99821485D01*
X136190476Y-99821485D02*
X136190476Y-99488152D01*
X136190476Y-99488152D02*
X136238095Y-99297676D01*
X136238095Y-99297676D02*
X136333333Y-99202438D01*
X136333333Y-99202438D02*
X136428571Y-99154819D01*
X136428571Y-99154819D02*
X136619047Y-99154819D01*
X136619047Y-99154819D02*
X136714285Y-99202438D01*
X136714285Y-99202438D02*
X136809523Y-99297676D01*
X136809523Y-99297676D02*
X136857142Y-99488152D01*
X136857142Y-99488152D02*
X136857142Y-99821485D01*
X136857142Y-99821485D02*
X136809523Y-100011961D01*
X136809523Y-100011961D02*
X136714285Y-100107200D01*
X136714285Y-100107200D02*
X136619047Y-100154819D01*
X136619047Y-100154819D02*
X136428571Y-100154819D01*
X137809523Y-100154819D02*
X137238095Y-100154819D01*
X137523809Y-100154819D02*
X137523809Y-99154819D01*
X137523809Y-99154819D02*
X137428571Y-99297676D01*
X137428571Y-99297676D02*
X137333333Y-99392914D01*
X137333333Y-99392914D02*
X137238095Y-99440533D01*
D11*
%TO.C,Q2*%
X117307500Y-103760000D02*
X117307500Y-102300000D01*
X117307500Y-103760000D02*
X118237500Y-103760000D01*
X120467500Y-102960000D02*
X120467500Y-102160000D01*
X120467500Y-102960000D02*
X120467500Y-103760000D01*
X120467500Y-103760000D02*
X119537500Y-103760000D01*
X120827500Y-101900000D02*
X120497500Y-101660000D01*
X120827500Y-101420000D01*
X120827500Y-101900000D01*
G36*
X120827500Y-101900000D02*
G01*
X120497500Y-101660000D01*
X120827500Y-101420000D01*
X120827500Y-101900000D01*
G37*
%TO.C,U1*%
X104500000Y-96300000D02*
X104500000Y-89500000D01*
X104500000Y-98500000D02*
X104500000Y-98900000D01*
X104500000Y-101100000D02*
X104500000Y-101500000D01*
X104500000Y-110500000D02*
X104500000Y-103700000D01*
X107300000Y-89500000D02*
X106900000Y-89500000D01*
X107300000Y-110500000D02*
X106900000Y-110500000D01*
X109900000Y-89500000D02*
X109500000Y-89500000D01*
X109900000Y-110500000D02*
X109500000Y-110500000D01*
X112400000Y-89500000D02*
X112000000Y-89500000D01*
X112400000Y-110500000D02*
X112000000Y-110500000D01*
X114900000Y-89500000D02*
X114500000Y-89500000D01*
X114900000Y-110500000D02*
X114500000Y-110500000D01*
X117500000Y-89500000D02*
X117100000Y-89500000D01*
X117500000Y-110500000D02*
X117100000Y-110500000D01*
X120000000Y-89500000D02*
X119600000Y-89500000D01*
X120000000Y-110500000D02*
X119600000Y-110500000D01*
X122600000Y-89500000D02*
X122200000Y-89500000D01*
X122600000Y-110500000D02*
X122200000Y-110500000D01*
X125100000Y-89500000D02*
X124700000Y-89500000D01*
X125100000Y-110500000D02*
X124700000Y-110500000D01*
X127700000Y-89500000D02*
X127300000Y-89500000D01*
X127700000Y-110500000D02*
X127300000Y-110500000D01*
X130200000Y-89500000D02*
X129800000Y-89500000D01*
X130200000Y-110500000D02*
X129800000Y-110500000D01*
X132700000Y-89500000D02*
X132300000Y-89500000D01*
X132700000Y-110500000D02*
X132300000Y-110500000D01*
X135300000Y-89500000D02*
X134900000Y-89500000D01*
X135300000Y-110500000D02*
X134900000Y-110500000D01*
X137800000Y-89500000D02*
X137400000Y-89500000D01*
X137800000Y-110500000D02*
X137400000Y-110500000D01*
X140400000Y-89500000D02*
X140000000Y-89500000D01*
X140400000Y-110500000D02*
X140000000Y-110500000D01*
X142900000Y-89500000D02*
X142500000Y-89500000D01*
X142900000Y-110500000D02*
X142500000Y-110500000D01*
X145400000Y-89500000D02*
X145000000Y-89500000D01*
X145400000Y-110500000D02*
X145000000Y-110500000D01*
X148000000Y-89500000D02*
X147600000Y-89500000D01*
X148000000Y-110500000D02*
X147600000Y-110500000D01*
X150500000Y-89500000D02*
X150100000Y-89500000D01*
X150500000Y-110500000D02*
X150100000Y-110500000D01*
X152833000Y-89500000D02*
X152833000Y-92507000D01*
X152833000Y-92507000D02*
X155500000Y-92507000D01*
X153100000Y-89500000D02*
X152700000Y-89500000D01*
X153100000Y-110500000D02*
X152700000Y-110500000D01*
X155500000Y-89500000D02*
X155200000Y-89500000D01*
X155500000Y-89500000D02*
X155500000Y-110500000D01*
X155500000Y-110500000D02*
X155200000Y-110500000D01*
%TO.C,R3*%
X116727064Y-96090000D02*
X115272936Y-96090000D01*
X116727064Y-97910000D02*
X115272936Y-97910000D01*
%TO.C,R1*%
X143060000Y-98277064D02*
X143060000Y-96822936D01*
X144880000Y-98277064D02*
X144880000Y-96822936D01*
%TO.C,R2*%
X122727064Y-96090000D02*
X121272936Y-96090000D01*
X122727064Y-97910000D02*
X121272936Y-97910000D01*
%TO.C,Q1*%
X136240000Y-95370000D02*
X136240000Y-96300000D01*
X136240000Y-95370000D02*
X137700000Y-95370000D01*
X136240000Y-98530000D02*
X136240000Y-97600000D01*
X137040000Y-98530000D02*
X136240000Y-98530000D01*
X137040000Y-98530000D02*
X137840000Y-98530000D01*
X138580000Y-98890000D02*
X138100000Y-98890000D01*
X138340000Y-98560000D01*
X138580000Y-98890000D01*
G36*
X138580000Y-98890000D02*
G01*
X138100000Y-98890000D01*
X138340000Y-98560000D01*
X138580000Y-98890000D01*
G37*
D12*
%TO.C,SW1*%
X108875800Y-80814102D02*
X108875800Y-83164699D01*
X109387640Y-85113601D02*
X114192292Y-85113601D01*
X114612360Y-78865201D02*
X109387640Y-78865201D01*
X115124200Y-83157361D02*
X115124200Y-80814102D01*
%TD*%
M02*
