%TF.GenerationSoftware,KiCad,Pcbnew,8.0.4*%
%TF.CreationDate,2025-01-24T17:00:10-06:00*%
%TF.ProjectId,potentiostat control,706f7465-6e74-4696-9f73-74617420636f,0.1*%
%TF.SameCoordinates,Original*%
%TF.FileFunction,Soldermask,Bot*%
%TF.FilePolarity,Negative*%
%FSLAX46Y46*%
G04 Gerber Fmt 4.6, Leading zero omitted, Abs format (unit mm)*
G04 Created by KiCad (PCBNEW 8.0.4) date 2025-01-24 17:00:10*
%MOMM*%
%LPD*%
G01*
G04 APERTURE LIST*
G04 Aperture macros list*
%AMRoundRect*
0 Rectangle with rounded corners*
0 $1 Rounding radius*
0 $2 $3 $4 $5 $6 $7 $8 $9 X,Y pos of 4 corners*
0 Add a 4 corners polygon primitive as box body*
4,1,4,$2,$3,$4,$5,$6,$7,$8,$9,$2,$3,0*
0 Add four circle primitives for the rounded corners*
1,1,$1+$1,$2,$3*
1,1,$1+$1,$4,$5*
1,1,$1+$1,$6,$7*
1,1,$1+$1,$8,$9*
0 Add four rect primitives between the rounded corners*
20,1,$1+$1,$2,$3,$4,$5,0*
20,1,$1+$1,$4,$5,$6,$7,0*
20,1,$1+$1,$6,$7,$8,$9,0*
20,1,$1+$1,$8,$9,$2,$3,0*%
G04 Aperture macros list end*
%ADD10C,2.000000*%
%ADD11O,1.800000X1.800000*%
%ADD12O,1.500000X1.500000*%
%ADD13O,1.700000X1.700000*%
%ADD14R,1.700000X1.700000*%
%ADD15R,1.498600X1.498600*%
%ADD16C,1.498600*%
%ADD17RoundRect,0.102000X0.862500X-0.862500X0.862500X0.862500X-0.862500X0.862500X-0.862500X-0.862500X0*%
%ADD18C,1.929000*%
%ADD19C,4.470000*%
G04 APERTURE END LIST*
D10*
%TO.C,REF\u002A\u002A*%
X150000000Y-120000000D03*
%TD*%
D11*
%TO.C,U1*%
X154000000Y-97275000D03*
D12*
X150970000Y-97575000D03*
X150970000Y-102425000D03*
D11*
X154000000Y-102725000D03*
D13*
X154130000Y-91110000D03*
X151590000Y-91110000D03*
D14*
X149050000Y-91110000D03*
D13*
X146510000Y-91110000D03*
X143970000Y-91110000D03*
X141430000Y-91110000D03*
X138890000Y-91110000D03*
D14*
X136350000Y-91110000D03*
D13*
X133810000Y-91110000D03*
X131270000Y-91110000D03*
X128730000Y-91110000D03*
X126190000Y-91110000D03*
D14*
X123650000Y-91110000D03*
D13*
X121110000Y-91110000D03*
X118570000Y-91110000D03*
X116030000Y-91110000D03*
X113490000Y-91110000D03*
D14*
X110950000Y-91110000D03*
D13*
X108410000Y-91110000D03*
X105870000Y-91110000D03*
X105870000Y-108890000D03*
X108410000Y-108890000D03*
D14*
X110950000Y-108890000D03*
D13*
X113490000Y-108890000D03*
X116030000Y-108890000D03*
X118570000Y-108890000D03*
X121110000Y-108890000D03*
D14*
X123650000Y-108890000D03*
D13*
X126190000Y-108890000D03*
X128730000Y-108890000D03*
X131270000Y-108890000D03*
X133810000Y-108890000D03*
D14*
X136350000Y-108890000D03*
D13*
X138890000Y-108890000D03*
X141430000Y-108890000D03*
X143970000Y-108890000D03*
X146510000Y-108890000D03*
D14*
X149050000Y-108890000D03*
D13*
X151590000Y-108890000D03*
X154130000Y-108890000D03*
X106100000Y-97460000D03*
D14*
X106100000Y-100000000D03*
D13*
X106100000Y-102540000D03*
%TD*%
D10*
%TO.C,REF\u002A\u002A*%
X100000000Y-120000000D03*
%TD*%
%TO.C,REF\u002A\u002A*%
X150000000Y-80000000D03*
%TD*%
%TO.C,REF\u002A\u002A*%
X100000000Y-80000000D03*
%TD*%
D15*
%TO.C,SW1*%
X115250001Y-84239401D03*
D16*
X108750000Y-84239401D03*
X115250001Y-79739400D03*
X108750000Y-79739400D03*
%TD*%
D17*
%TO.C,J1*%
X99000000Y-104580000D03*
D18*
X99000000Y-102290000D03*
X99000000Y-100000000D03*
X99000000Y-97710000D03*
X99000000Y-95420000D03*
X96460000Y-105725000D03*
X96460000Y-103435000D03*
X96460000Y-101145000D03*
X96460000Y-98855000D03*
X96460000Y-96565000D03*
X93920000Y-104580000D03*
X93920000Y-102290000D03*
X93920000Y-100000000D03*
X93920000Y-97710000D03*
X93920000Y-95420000D03*
D19*
X96460000Y-112745000D03*
X96460000Y-87755000D03*
%TD*%
M02*
