M48
; DRILL file {KiCad 8.0.4} date 2025-01-24T17:00:16-0600
; FORMAT={-:-/ absolute / inch / decimal}
; #@! TF.CreationDate,2025-01-24T17:00:16-06:00
; #@! TF.GenerationSoftware,Kicad,Pcbnew,8.0.4
; #@! TF.FileFunction,Plated,1,2,PTH
FMAT,2
INCH
; #@! TA.AperFunction,Plated,PTH,ViaDrill
T1C0.0118
; #@! TA.AperFunction,Plated,PTH,ComponentDrill
T2C0.0390
; #@! TA.AperFunction,Plated,PTH,ComponentDrill
T3C0.0402
; #@! TA.AperFunction,Plated,PTH,ComponentDrill
T4C0.0453
; #@! TA.AperFunction,Plated,PTH,ComponentDrill
T5C0.1280
%
G90
G05
T1
X3.5787Y-4.1909
X3.6024Y-4.2126
X3.937Y-4.3307
X4.115Y-3.6087
X4.1339Y-4.2126
X4.1474Y-3.6874
X4.171Y-3.711
X4.2519Y-3.8253
X4.5669Y-3.8189
X4.6752Y-4.0276
X4.8031Y-3.8189
X5.2445Y-4.1969
X5.3937Y-3.8189
T2
X4.2815Y-3.1393
X4.2815Y-3.3165
X4.5374Y-3.1393
X4.5374Y-3.3165
T3
X4.1681Y-3.587
X4.1681Y-4.287
X4.1772Y-3.837
X4.1772Y-3.937
X4.1772Y-4.037
X4.2681Y-3.587
X4.2681Y-4.287
X4.3681Y-3.587
X4.3681Y-4.287
X4.4681Y-3.587
X4.4681Y-4.287
X4.5681Y-3.587
X4.5681Y-4.287
X4.6681Y-3.587
X4.6681Y-4.287
X4.7681Y-3.587
X4.7681Y-4.287
X4.8681Y-3.587
X4.8681Y-4.287
X4.9681Y-3.587
X4.9681Y-4.287
X5.0681Y-3.587
X5.0681Y-4.287
X5.1681Y-3.587
X5.1681Y-4.287
X5.2681Y-3.587
X5.2681Y-4.287
X5.3681Y-3.587
X5.3681Y-4.287
X5.4681Y-3.587
X5.4681Y-4.287
X5.5681Y-3.587
X5.5681Y-4.287
X5.6681Y-3.587
X5.6681Y-4.287
X5.7681Y-3.587
X5.7681Y-4.287
X5.8681Y-3.587
X5.8681Y-4.287
X5.9681Y-3.587
X5.9681Y-4.287
X6.0681Y-3.587
X6.0681Y-4.287
T4
X3.6976Y-3.7567
X3.6976Y-3.8469
X3.6976Y-3.937
X3.6976Y-4.0272
X3.6976Y-4.1173
X3.7976Y-3.8018
X3.7976Y-3.8919
X3.7976Y-3.9821
X3.7976Y-4.0722
X3.7976Y-4.1624
X3.8976Y-3.7567
X3.8976Y-3.8469
X3.8976Y-3.937
X3.8976Y-4.0272
X3.8976Y-4.1173
T5
X3.7976Y-3.4549
X3.7976Y-4.4388
M30
