%TF.GenerationSoftware,KiCad,Pcbnew,8.0.4*%
%TF.CreationDate,2025-01-16T17:17:22-06:00*%
%TF.ProjectId,KiCad-Pi-Pico,4b694361-642d-4506-992d-5069636f2e6b,1.0*%
%TF.SameCoordinates,Original*%
%TF.FileFunction,Soldermask,Bot*%
%TF.FilePolarity,Negative*%
%FSLAX46Y46*%
G04 Gerber Fmt 4.6, Leading zero omitted, Abs format (unit mm)*
G04 Created by KiCad (PCBNEW 8.0.4) date 2025-01-16 17:17:22*
%MOMM*%
%LPD*%
G01*
G04 APERTURE LIST*
G04 Aperture macros list*
%AMRoundRect*
0 Rectangle with rounded corners*
0 $1 Rounding radius*
0 $2 $3 $4 $5 $6 $7 $8 $9 X,Y pos of 4 corners*
0 Add a 4 corners polygon primitive as box body*
4,1,4,$2,$3,$4,$5,$6,$7,$8,$9,$2,$3,0*
0 Add four circle primitives for the rounded corners*
1,1,$1+$1,$2,$3*
1,1,$1+$1,$4,$5*
1,1,$1+$1,$6,$7*
1,1,$1+$1,$8,$9*
0 Add four rect primitives between the rounded corners*
20,1,$1+$1,$2,$3,$4,$5,0*
20,1,$1+$1,$4,$5,$6,$7,0*
20,1,$1+$1,$6,$7,$8,$9,0*
20,1,$1+$1,$8,$9,$2,$3,0*%
G04 Aperture macros list end*
%ADD10RoundRect,0.102000X0.750000X0.750000X-0.750000X0.750000X-0.750000X-0.750000X0.750000X-0.750000X0*%
%ADD11C,1.704000*%
%ADD12O,1.800000X1.800000*%
%ADD13O,1.500000X1.500000*%
%ADD14O,1.700000X1.700000*%
%ADD15R,1.700000X1.700000*%
%ADD16RoundRect,0.250000X0.470000X-0.470000X0.470000X0.470000X-0.470000X0.470000X-0.470000X-0.470000X0*%
%ADD17C,1.440000*%
%ADD18R,1.498600X1.498600*%
%ADD19C,1.498600*%
%ADD20R,1.016000X1.524000*%
%ADD21O,1.016000X1.524000*%
%ADD22C,2.000000*%
%ADD23C,4.000000*%
%ADD24R,1.600000X1.600000*%
%ADD25C,1.600000*%
G04 APERTURE END LIST*
D10*
%TO.C,U4*%
X149687500Y-124420000D03*
D11*
X147147500Y-124420000D03*
X142067500Y-124420000D03*
X136987500Y-124420000D03*
%TD*%
D12*
%TO.C,U1*%
X174000000Y-97275000D03*
D13*
X170970000Y-97575000D03*
X170970000Y-102425000D03*
D12*
X174000000Y-102725000D03*
D14*
X174130000Y-91110000D03*
X171590000Y-91110000D03*
D15*
X169050000Y-91110000D03*
D14*
X166510000Y-91110000D03*
X163970000Y-91110000D03*
X161430000Y-91110000D03*
X158890000Y-91110000D03*
D15*
X156350000Y-91110000D03*
D14*
X153810000Y-91110000D03*
X151270000Y-91110000D03*
X148730000Y-91110000D03*
X146190000Y-91110000D03*
D15*
X143650000Y-91110000D03*
D14*
X141110000Y-91110000D03*
X138570000Y-91110000D03*
X136030000Y-91110000D03*
X133490000Y-91110000D03*
D15*
X130950000Y-91110000D03*
D14*
X128410000Y-91110000D03*
X125870000Y-91110000D03*
X125870000Y-108890000D03*
X128410000Y-108890000D03*
D15*
X130950000Y-108890000D03*
D14*
X133490000Y-108890000D03*
X136030000Y-108890000D03*
X138570000Y-108890000D03*
X141110000Y-108890000D03*
D15*
X143650000Y-108890000D03*
D14*
X146190000Y-108890000D03*
X148730000Y-108890000D03*
X151270000Y-108890000D03*
X153810000Y-108890000D03*
D15*
X156350000Y-108890000D03*
D14*
X158890000Y-108890000D03*
X161430000Y-108890000D03*
X163970000Y-108890000D03*
X166510000Y-108890000D03*
D15*
X169050000Y-108890000D03*
D14*
X171590000Y-108890000D03*
X174130000Y-108890000D03*
X126100000Y-97460000D03*
D15*
X126100000Y-100000000D03*
D14*
X126100000Y-102540000D03*
%TD*%
D16*
%TO.C,RV1*%
X157460000Y-122500000D03*
D17*
X160000000Y-122500000D03*
X162540000Y-122500000D03*
%TD*%
D18*
%TO.C,SW1*%
X169249999Y-120260599D03*
D19*
X175750000Y-120260599D03*
X169249999Y-124760600D03*
X175750000Y-124760600D03*
%TD*%
D20*
%TO.C,U5*%
X127500000Y-122500000D03*
D21*
X126230000Y-122500000D03*
X124960000Y-122500000D03*
%TD*%
D22*
%TO.C,REF\u002A\u002A*%
X110000000Y-73000000D03*
%TD*%
%TO.C,REF\u002A\u002A*%
X177000000Y-116000000D03*
%TD*%
D16*
%TO.C,RV2*%
X112460000Y-99897500D03*
D17*
X115000000Y-99897500D03*
X117540000Y-99897500D03*
%TD*%
D22*
%TO.C,REF\u002A\u002A*%
X177000000Y-84000000D03*
%TD*%
D18*
%TO.C,SW2*%
X109249999Y-107760599D03*
D19*
X115750000Y-107760599D03*
X109249999Y-112260600D03*
X115750000Y-112260600D03*
%TD*%
D22*
%TO.C,REF\u002A\u002A*%
X110000000Y-127000000D03*
%TD*%
D23*
%TO.C,J1*%
X102705331Y-123555000D03*
X102705331Y-76455000D03*
D24*
X103005331Y-116625000D03*
D25*
X103005331Y-113855000D03*
X103005331Y-111085000D03*
X103005331Y-108315000D03*
X103005331Y-105545000D03*
X103005331Y-102775000D03*
X103005331Y-100005000D03*
X103005331Y-97235000D03*
X103005331Y-94465000D03*
X103005331Y-91695000D03*
X103005331Y-88925000D03*
X103005331Y-86155000D03*
X103005331Y-83385000D03*
X100165331Y-115240000D03*
X100165331Y-112470000D03*
X100165331Y-109700000D03*
X100165331Y-106930000D03*
X100165331Y-104160000D03*
X100165331Y-101390000D03*
X100165331Y-98620000D03*
X100165331Y-95850000D03*
X100165331Y-93080000D03*
X100165331Y-90310000D03*
X100165331Y-87540000D03*
X100165331Y-84770000D03*
%TD*%
M02*
