%TF.GenerationSoftware,KiCad,Pcbnew,8.0.4*%
%TF.CreationDate,2025-01-16T17:17:22-06:00*%
%TF.ProjectId,KiCad-Pi-Pico,4b694361-642d-4506-992d-5069636f2e6b,1.0*%
%TF.SameCoordinates,Original*%
%TF.FileFunction,Other,User*%
%FSLAX46Y46*%
G04 Gerber Fmt 4.6, Leading zero omitted, Abs format (unit mm)*
G04 Created by KiCad (PCBNEW 8.0.4) date 2025-01-16 17:17:22*
%MOMM*%
%LPD*%
G01*
G04 APERTURE LIST*
%ADD10C,0.050000*%
%ADD11C,0.120000*%
%ADD12C,0.152400*%
G04 APERTURE END LIST*
D10*
%TO.C,U2*%
X112250000Y-116145000D02*
X117750000Y-116145000D01*
X112250000Y-123855000D02*
X112250000Y-116145000D01*
X117750000Y-116145000D02*
X117750000Y-123855000D01*
X117750000Y-123855000D02*
X112250000Y-123855000D01*
%TO.C,U4*%
X132137500Y-118650000D02*
X152237500Y-118650000D01*
X132137500Y-126350000D02*
X132137500Y-118650000D01*
X152237500Y-118650000D02*
X152237500Y-126350000D01*
X152237500Y-126350000D02*
X132137500Y-126350000D01*
%TO.C,R4*%
X167075000Y-79680000D02*
X171975000Y-79680000D01*
X167075000Y-81920000D02*
X167075000Y-79680000D01*
X171975000Y-79680000D02*
X171975000Y-81920000D01*
X171975000Y-81920000D02*
X167075000Y-81920000D01*
%TO.C,R5*%
X156525000Y-79680000D02*
X161425000Y-79680000D01*
X156525000Y-81920000D02*
X156525000Y-79680000D01*
X161425000Y-79680000D02*
X161425000Y-81920000D01*
X161425000Y-81920000D02*
X156525000Y-81920000D01*
%TO.C,R7*%
X145130000Y-101250000D02*
X147370000Y-101250000D01*
X145130000Y-106150000D02*
X145130000Y-101250000D01*
X147370000Y-101250000D02*
X147370000Y-106150000D01*
X147370000Y-106150000D02*
X145130000Y-106150000D01*
%TO.C,R10*%
X123550000Y-115130000D02*
X128450000Y-115130000D01*
X123550000Y-117370000D02*
X123550000Y-115130000D01*
X128450000Y-115130000D02*
X128450000Y-117370000D01*
X128450000Y-117370000D02*
X123550000Y-117370000D01*
D11*
%TO.C,U1*%
X124000000Y-89000000D02*
X176000000Y-89000000D01*
X124000000Y-111000000D02*
X124000000Y-89000000D01*
X176000000Y-89000000D02*
X176000000Y-111000000D01*
X176000000Y-111000000D02*
X124000000Y-111000000D01*
D10*
%TO.C,R1*%
X172905000Y-73350000D02*
X175145000Y-73350000D01*
X172905000Y-78250000D02*
X172905000Y-73350000D01*
X175145000Y-73350000D02*
X175145000Y-78250000D01*
X175145000Y-78250000D02*
X172905000Y-78250000D01*
%TO.C,R8*%
X135625000Y-79680000D02*
X140525000Y-79680000D01*
X135625000Y-81920000D02*
X135625000Y-79680000D01*
X140525000Y-79680000D02*
X140525000Y-81920000D01*
X140525000Y-81920000D02*
X135625000Y-81920000D01*
%TO.C,RV1*%
X154980000Y-119810000D02*
X165020000Y-119810000D01*
X165020000Y-125140000D01*
X154980000Y-125140000D01*
X154980000Y-119810000D01*
%TO.C,R14*%
X162880000Y-93300000D02*
X165120000Y-93300000D01*
X162880000Y-98200000D02*
X162880000Y-93300000D01*
X165120000Y-93300000D02*
X165120000Y-98200000D01*
X165120000Y-98200000D02*
X162880000Y-98200000D01*
D12*
%TO.C,SW1*%
X168246700Y-119248800D02*
X176753300Y-119248800D01*
X168246700Y-125751200D02*
X168246700Y-119248800D01*
X176753300Y-119248800D02*
X176753300Y-125751200D01*
X176753300Y-125751200D02*
X168246700Y-125751200D01*
D10*
%TO.C,R9*%
X141355000Y-73350000D02*
X143595000Y-73350000D01*
X141355000Y-78250000D02*
X141355000Y-73350000D01*
X143595000Y-73350000D02*
X143595000Y-78250000D01*
X143595000Y-78250000D02*
X141355000Y-78250000D01*
%TO.C,R11*%
X135130000Y-93300000D02*
X137370000Y-93300000D01*
X135130000Y-98200000D02*
X135130000Y-93300000D01*
X137370000Y-93300000D02*
X137370000Y-98200000D01*
X137370000Y-98200000D02*
X135130000Y-98200000D01*
%TO.C,R2*%
X162405000Y-73350000D02*
X164645000Y-73350000D01*
X162405000Y-78250000D02*
X162405000Y-73350000D01*
X164645000Y-73350000D02*
X164645000Y-78250000D01*
X164645000Y-78250000D02*
X162405000Y-78250000D01*
D12*
%TO.C,U5*%
X121848500Y-119388500D02*
X130611500Y-119388500D01*
X121848500Y-126881500D02*
X121848500Y-119388500D01*
X130611500Y-119388500D02*
X130611500Y-126881500D01*
X130611500Y-126881500D02*
X121848500Y-126881500D01*
D10*
%TO.C,REF\u002A\u002A*%
X112250000Y-73000000D02*
G75*
G02*
X107750000Y-73000000I-2250000J0D01*
G01*
X107750000Y-73000000D02*
G75*
G02*
X112250000Y-73000000I2250000J0D01*
G01*
%TO.C,R13*%
X145130000Y-93350000D02*
X147370000Y-93350000D01*
X145130000Y-98250000D02*
X145130000Y-93350000D01*
X147370000Y-93350000D02*
X147370000Y-98250000D01*
X147370000Y-98250000D02*
X145130000Y-98250000D01*
%TO.C,Q4*%
X135555000Y-74100000D02*
X135555000Y-77500000D01*
X135555000Y-77500000D02*
X139395000Y-77500000D01*
X139395000Y-74100000D02*
X135555000Y-74100000D01*
X139395000Y-77500000D02*
X139395000Y-74100000D01*
%TO.C,Q3*%
X146105000Y-74100000D02*
X146105000Y-77500000D01*
X146105000Y-77500000D02*
X149945000Y-77500000D01*
X149945000Y-74100000D02*
X146105000Y-74100000D01*
X149945000Y-77500000D02*
X149945000Y-74100000D01*
%TO.C,REF\u002A\u002A*%
X179250000Y-116000000D02*
G75*
G02*
X174750000Y-116000000I-2250000J0D01*
G01*
X174750000Y-116000000D02*
G75*
G02*
X179250000Y-116000000I2250000J0D01*
G01*
%TO.C,R3*%
X151905000Y-73350000D02*
X154145000Y-73350000D01*
X151905000Y-78250000D02*
X151905000Y-73350000D01*
X154145000Y-73350000D02*
X154145000Y-78250000D01*
X154145000Y-78250000D02*
X151905000Y-78250000D01*
%TO.C,Q1*%
X167105000Y-74100000D02*
X167105000Y-77500000D01*
X167105000Y-77500000D02*
X170945000Y-77500000D01*
X170945000Y-74100000D02*
X167105000Y-74100000D01*
X170945000Y-77500000D02*
X170945000Y-74100000D01*
%TO.C,RV2*%
X109980000Y-97207500D02*
X120020000Y-97207500D01*
X120020000Y-102537500D01*
X109980000Y-102537500D01*
X109980000Y-97207500D01*
%TO.C,REF\u002A\u002A*%
X179250000Y-84000000D02*
G75*
G02*
X174750000Y-84000000I-2250000J0D01*
G01*
X174750000Y-84000000D02*
G75*
G02*
X179250000Y-84000000I2250000J0D01*
G01*
%TO.C,R6*%
X146025000Y-79680000D02*
X150925000Y-79680000D01*
X146025000Y-81920000D02*
X146025000Y-79680000D01*
X150925000Y-79680000D02*
X150925000Y-81920000D01*
X150925000Y-81920000D02*
X146025000Y-81920000D01*
%TO.C,Q2*%
X156605000Y-74100000D02*
X156605000Y-77500000D01*
X156605000Y-77500000D02*
X160445000Y-77500000D01*
X160445000Y-74100000D02*
X156605000Y-74100000D01*
X160445000Y-77500000D02*
X160445000Y-74100000D01*
D12*
%TO.C,SW2*%
X108246700Y-106748800D02*
X116753300Y-106748800D01*
X108246700Y-113251200D02*
X108246700Y-106748800D01*
X116753300Y-106748800D02*
X116753300Y-113251200D01*
X116753300Y-113251200D02*
X108246700Y-113251200D01*
D10*
%TO.C,R12*%
X140130000Y-93350000D02*
X142370000Y-93350000D01*
X140130000Y-98250000D02*
X140130000Y-93350000D01*
X142370000Y-93350000D02*
X142370000Y-98250000D01*
X142370000Y-98250000D02*
X140130000Y-98250000D01*
%TO.C,REF\u002A\u002A*%
X112250000Y-127000000D02*
G75*
G02*
X107750000Y-127000000I-2250000J0D01*
G01*
X107750000Y-127000000D02*
G75*
G02*
X112250000Y-127000000I2250000J0D01*
G01*
%TD*%
M02*
