M48
; DRILL file {KiCad 8.0.4} date 2025-01-16T17:17:26-0600
; FORMAT={-:-/ absolute / inch / decimal}
; #@! TF.CreationDate,2025-01-16T17:17:26-06:00
; #@! TF.GenerationSoftware,Kicad,Pcbnew,8.0.4
; #@! TF.FileFunction,Plated,1,2,PTH
FMAT,2
INCH
; #@! TA.AperFunction,Plated,PTH,ViaDrill
T1C0.0118
; #@! TA.AperFunction,Plated,PTH,ComponentDrill
T2C0.0315
; #@! TA.AperFunction,Plated,PTH,ComponentDrill
T3C0.0320
; #@! TA.AperFunction,Plated,PTH,ComponentDrill
T4C0.0390
; #@! TA.AperFunction,Plated,PTH,ComponentDrill
T5C0.0394
; #@! TA.AperFunction,Plated,PTH,ComponentDrill
T6C0.0402
; #@! TA.AperFunction,Plated,PTH,ComponentDrill
T7C0.1260
%
G90
G05
T1
X3.8766Y-3.8494
X3.9162Y-3.1811
X3.937Y-3.2047
X4.1339Y-3.3366
X4.1339Y-4.0354
X4.438Y-4.7835
X4.4409Y-4.685
X4.4618Y-4.7087
X4.4892Y-4.6654
X4.5148Y-4.6837
X4.5404Y-4.6654
X4.5659Y-4.7736
X4.5786Y-4.6941
X4.5915Y-4.6654
X4.5915Y-4.7539
X4.6147Y-4.7326
X4.6152Y-4.7749
X4.9606Y-4.5768
X5.3396Y-3.2283
X5.551Y-4.1829
X5.579Y-4.1439
X5.6012Y-4.1661
X5.6023Y-4.1985
X5.6093Y-3.2283
X5.6094Y-2.9843
X5.6791Y-3.7067
X5.7844Y-3.0827
X6.0244Y-2.9803
X6.0246Y-3.252
X6.1978Y-3.0827
X6.438Y-3.2283
X6.4382Y-2.9843
X6.6132Y-3.0827
X6.8516Y-2.9843
T2
X4.4276Y-3.933
X4.5276Y-3.933
X4.6276Y-3.933
X5.3932Y-4.8984
X5.5932Y-4.8984
X5.7932Y-4.8984
X5.8932Y-4.8984
X6.1992Y-4.8228
X6.2992Y-4.8228
X6.3992Y-4.8228
T3
X4.9197Y-4.8228
X4.9697Y-4.8228
X5.0197Y-4.8228
T4
X4.3012Y-4.2425
X4.3012Y-4.4197
X4.5571Y-4.2425
X4.5571Y-4.4197
X6.6634Y-4.7347
X6.6634Y-4.9118
X6.9193Y-4.7347
X6.9193Y-4.9118
T5
X3.9435Y-3.3374
X3.9435Y-3.4465
X3.9435Y-3.5555
X3.9435Y-3.6646
X3.9435Y-3.7736
X3.9435Y-3.8827
X3.9435Y-3.9917
X3.9435Y-4.1008
X3.9435Y-4.2098
X3.9435Y-4.3189
X3.9435Y-4.428
X3.9435Y-4.537
X4.0553Y-3.2829
X4.0553Y-3.3919
X4.0553Y-3.501
X4.0553Y-3.61
X4.0553Y-3.7191
X4.0553Y-3.8281
X4.0553Y-3.9372
X4.0553Y-4.0463
X4.0553Y-4.1553
X4.0553Y-4.2644
X4.0553Y-4.3734
X4.0553Y-4.4825
X4.0553Y-4.5915
T6
X4.9555Y-3.587
X4.9555Y-4.287
X4.9646Y-3.837
X4.9646Y-3.937
X4.9646Y-4.037
X5.0555Y-3.587
X5.0555Y-4.287
X5.1555Y-3.587
X5.1555Y-4.287
X5.2555Y-3.587
X5.2555Y-4.287
X5.3555Y-3.587
X5.3555Y-4.287
X5.4555Y-3.587
X5.4555Y-4.287
X5.5555Y-3.587
X5.5555Y-4.287
X5.6555Y-3.587
X5.6555Y-4.287
X5.7555Y-3.587
X5.7555Y-4.287
X5.8555Y-3.587
X5.8555Y-4.287
X5.9555Y-3.587
X5.9555Y-4.287
X6.0555Y-3.587
X6.0555Y-4.287
X6.1555Y-3.587
X6.1555Y-4.287
X6.2555Y-3.587
X6.2555Y-4.287
X6.3555Y-3.587
X6.3555Y-4.287
X6.4555Y-3.587
X6.4555Y-4.287
X6.5555Y-3.587
X6.5555Y-4.287
X6.6555Y-3.587
X6.6555Y-4.287
X6.7555Y-3.587
X6.7555Y-4.287
X6.8555Y-3.587
X6.8555Y-4.287
T7
X4.0435Y-3.01
X4.0435Y-4.8644
M30
