%TF.GenerationSoftware,KiCad,Pcbnew,8.0.4*%
%TF.CreationDate,2024-09-29T14:35:45-05:00*%
%TF.ProjectId,KiCad-Pi-Pico,4b694361-642d-4506-992d-5069636f2e6b,1.0*%
%TF.SameCoordinates,Original*%
%TF.FileFunction,Paste,Top*%
%TF.FilePolarity,Positive*%
%FSLAX46Y46*%
G04 Gerber Fmt 4.6, Leading zero omitted, Abs format (unit mm)*
G04 Created by KiCad (PCBNEW 8.0.4) date 2024-09-29 14:35:45*
%MOMM*%
%LPD*%
G01*
G04 APERTURE LIST*
G04 Aperture macros list*
%AMRoundRect*
0 Rectangle with rounded corners*
0 $1 Rounding radius*
0 $2 $3 $4 $5 $6 $7 $8 $9 X,Y pos of 4 corners*
0 Add a 4 corners polygon primitive as box body*
4,1,4,$2,$3,$4,$5,$6,$7,$8,$9,$2,$3,0*
0 Add four circle primitives for the rounded corners*
1,1,$1+$1,$2,$3*
1,1,$1+$1,$4,$5*
1,1,$1+$1,$6,$7*
1,1,$1+$1,$8,$9*
0 Add four rect primitives between the rounded corners*
20,1,$1+$1,$2,$3,$4,$5,0*
20,1,$1+$1,$4,$5,$6,$7,0*
20,1,$1+$1,$6,$7,$8,$9,0*
20,1,$1+$1,$8,$9,$2,$3,0*%
G04 Aperture macros list end*
%ADD10RoundRect,0.143500X0.061500X-0.591500X0.061500X0.591500X-0.061500X0.591500X-0.061500X-0.591500X0*%
%ADD11RoundRect,0.143500X-0.061500X0.591500X-0.061500X-0.591500X0.061500X-0.591500X0.061500X0.591500X0*%
%ADD12RoundRect,0.250000X0.400000X0.625000X-0.400000X0.625000X-0.400000X-0.625000X0.400000X-0.625000X0*%
%ADD13RoundRect,0.250000X-0.625000X0.400000X-0.625000X-0.400000X0.625000X-0.400000X0.625000X0.400000X0*%
%ADD14RoundRect,0.250000X0.625000X-0.400000X0.625000X0.400000X-0.625000X0.400000X-0.625000X-0.400000X0*%
%ADD15R,1.200000X0.650001*%
%ADD16RoundRect,0.250000X-0.412500X-0.650000X0.412500X-0.650000X0.412500X0.650000X-0.412500X0.650000X0*%
%ADD17RoundRect,0.250000X0.412500X0.650000X-0.412500X0.650000X-0.412500X-0.650000X0.412500X-0.650000X0*%
%ADD18RoundRect,0.150000X0.587500X0.150000X-0.587500X0.150000X-0.587500X-0.150000X0.587500X-0.150000X0*%
G04 APERTURE END LIST*
D10*
%TO.C,U2*%
X112725000Y-122870000D03*
X113375000Y-122870000D03*
X114025000Y-122870000D03*
X114675000Y-122870000D03*
X115325000Y-122870000D03*
X115975000Y-122870000D03*
X116625000Y-122870000D03*
X117275000Y-122870000D03*
D11*
X117275000Y-117130000D03*
X116625000Y-117130000D03*
X115975000Y-117130000D03*
X115325000Y-117130000D03*
X114675000Y-117130000D03*
X114025000Y-117130000D03*
X113375000Y-117130000D03*
X112725000Y-117130000D03*
%TD*%
D12*
%TO.C,R4*%
X171075000Y-80800000D03*
X167975000Y-80800000D03*
%TD*%
%TO.C,R5*%
X160525000Y-80800000D03*
X157425000Y-80800000D03*
%TD*%
D13*
%TO.C,R7*%
X146250000Y-102150000D03*
X146250000Y-105250000D03*
%TD*%
D12*
%TO.C,R10*%
X122300000Y-113500000D03*
X119200000Y-113500000D03*
%TD*%
D14*
%TO.C,R1*%
X174025000Y-77350000D03*
X174025000Y-74250000D03*
%TD*%
D15*
%TO.C,U3*%
X113524999Y-96049999D03*
X113524999Y-97000000D03*
X113524999Y-97949998D03*
X116474998Y-97949998D03*
X116474998Y-96049999D03*
%TD*%
D12*
%TO.C,R8*%
X139625000Y-80800000D03*
X136525000Y-80800000D03*
%TD*%
D14*
%TO.C,R14*%
X164000000Y-97300000D03*
X164000000Y-94200000D03*
%TD*%
%TO.C,R9*%
X142475000Y-77350000D03*
X142475000Y-74250000D03*
%TD*%
D16*
%TO.C,C_in*%
X118437500Y-102500000D03*
X121562500Y-102500000D03*
%TD*%
D14*
%TO.C,R11*%
X136250000Y-97300000D03*
X136250000Y-94200000D03*
%TD*%
%TO.C,R2*%
X163525000Y-77350000D03*
X163525000Y-74250000D03*
%TD*%
D17*
%TO.C,C_out*%
X114062500Y-102500000D03*
X110937500Y-102500000D03*
%TD*%
D14*
%TO.C,R13*%
X146250000Y-97350000D03*
X146250000Y-94250000D03*
%TD*%
D18*
%TO.C,Q4*%
X138412500Y-76750000D03*
X138412500Y-74850000D03*
X136537500Y-75800000D03*
%TD*%
%TO.C,Q3*%
X148962500Y-76750000D03*
X148962500Y-74850000D03*
X147087500Y-75800000D03*
%TD*%
D14*
%TO.C,R3*%
X153025000Y-77350000D03*
X153025000Y-74250000D03*
%TD*%
D18*
%TO.C,Q1*%
X169962500Y-76750000D03*
X169962500Y-74850000D03*
X168087500Y-75800000D03*
%TD*%
D12*
%TO.C,R6*%
X150025000Y-80800000D03*
X146925000Y-80800000D03*
%TD*%
D18*
%TO.C,Q2*%
X159462500Y-76750000D03*
X159462500Y-74850000D03*
X157587500Y-75800000D03*
%TD*%
D14*
%TO.C,R12*%
X141250000Y-97350000D03*
X141250000Y-94250000D03*
%TD*%
M02*
