M48
; DRILL file {KiCad 8.0.4} date 2024-09-29T14:35:50-0500
; FORMAT={-:-/ absolute / inch / decimal}
; #@! TF.CreationDate,2024-09-29T14:35:50-05:00
; #@! TF.GenerationSoftware,Kicad,Pcbnew,8.0.4
; #@! TF.FileFunction,Plated,1,2,PTH
FMAT,2
INCH
; #@! TA.AperFunction,Plated,PTH,ViaDrill
T1C0.0118
; #@! TA.AperFunction,Plated,PTH,ComponentDrill
T2C0.0315
; #@! TA.AperFunction,Plated,PTH,ComponentDrill
T3C0.0320
; #@! TA.AperFunction,Plated,PTH,ComponentDrill
T4C0.0390
; #@! TA.AperFunction,Plated,PTH,ComponentDrill
T5C0.0394
; #@! TA.AperFunction,Plated,PTH,ComponentDrill
T6C0.0402
; #@! TA.AperFunction,Plated,PTH,ComponentDrill
T7C0.1260
%
G90
G05
T1
X3.8898Y-3.1368
X3.8898Y-4.7559
X3.9134Y-3.1577
X3.937Y-3.1811
X3.9606Y-3.2047
X4.189Y-3.2283
X4.189Y-4.2126
X4.189Y-4.7323
X4.2126Y-3.2825
X4.2126Y-3.435
X4.2126Y-4.0827
X4.2126Y-4.1142
X4.2126Y-4.7087
X4.4291Y-4.0256
X4.4291Y-4.0591
X4.438Y-4.7835
X4.4409Y-4.685
X4.4889Y-4.7559
X4.4892Y-4.6654
X4.5148Y-4.6837
X4.5148Y-4.7323
X4.5276Y-3.7894
X4.5276Y-3.8484
X4.5404Y-4.6654
X4.5659Y-4.7736
X4.5915Y-4.6654
X4.5915Y-4.7539
X4.5967Y-4.7229
X4.7244Y-4.0354
X4.7539Y-4.4882
X5.0209Y-4.6614
X5.3396Y-3.2283
X5.551Y-4.1829
X5.579Y-4.1439
X5.6012Y-4.1661
X5.6023Y-4.1985
X5.6093Y-3.2283
X5.6094Y-2.9843
X5.6988Y-3.7697
X5.7844Y-3.0827
X6.0244Y-2.9803
X6.0246Y-3.252
X6.1978Y-3.0827
X6.438Y-3.2283
X6.4382Y-2.9843
X6.6132Y-3.0827
X6.8516Y-2.9843
T2
X4.5611Y-3.335
X4.5611Y-3.435
X4.5611Y-3.535
X5.3273Y-4.6488
X5.4273Y-4.6488
X5.6273Y-4.6488
X5.8273Y-4.6488
X6.1992Y-4.6949
X6.2992Y-4.6949
X6.3992Y-4.6949
T3
X4.9709Y-4.7494
X5.0209Y-4.7494
X5.0709Y-4.7494
T4
X4.498Y-2.9236
X4.498Y-3.1008
X4.7539Y-2.9236
X4.7539Y-3.1008
X6.6043Y-4.6354
X6.6043Y-4.8126
X6.8602Y-4.6354
X6.8602Y-4.8126
T5
X4.0223Y-3.337
X4.0223Y-3.4461
X4.0223Y-3.5551
X4.0223Y-3.6642
X4.0223Y-3.7732
X4.0223Y-3.8823
X4.0223Y-3.9913
X4.0223Y-4.1004
X4.0223Y-4.2094
X4.0223Y-4.3185
X4.0223Y-4.4276
X4.0223Y-4.5366
X4.1341Y-3.2825
X4.1341Y-3.3915
X4.1341Y-3.5006
X4.1341Y-3.6096
X4.1341Y-3.7187
X4.1341Y-3.8278
X4.1341Y-3.9368
X4.1341Y-4.0459
X4.1341Y-4.1549
X4.1341Y-4.264
X4.1341Y-4.373
X4.1341Y-4.4821
X4.1341Y-4.5911
T6
X4.9555Y-3.587
X4.9555Y-4.287
X4.9646Y-3.837
X4.9646Y-3.937
X4.9646Y-4.037
X5.0555Y-3.587
X5.0555Y-4.287
X5.1555Y-3.587
X5.1555Y-4.287
X5.2555Y-3.587
X5.2555Y-4.287
X5.3555Y-3.587
X5.3555Y-4.287
X5.4555Y-3.587
X5.4555Y-4.287
X5.5555Y-3.587
X5.5555Y-4.287
X5.6555Y-3.587
X5.6555Y-4.287
X5.7555Y-3.587
X5.7555Y-4.287
X5.8555Y-3.587
X5.8555Y-4.287
X5.9555Y-3.587
X5.9555Y-4.287
X6.0555Y-3.587
X6.0555Y-4.287
X6.1555Y-3.587
X6.1555Y-4.287
X6.2555Y-3.587
X6.2555Y-4.287
X6.3555Y-3.587
X6.3555Y-4.287
X6.4555Y-3.587
X6.4555Y-4.287
X6.5555Y-3.587
X6.5555Y-4.287
X6.6555Y-3.587
X6.6555Y-4.287
X6.7555Y-3.587
X6.7555Y-4.287
X6.8555Y-3.587
X6.8555Y-4.287
T7
X4.1223Y-3.0096
X4.1223Y-4.864
M30
